999
dxfrw 0.6.3
  0
SECTION
  2
HEADER
  9
$ACADVER
  1
AC1021
  9
$DWGCODEPAGE
  3
ANSI_1252
  9
$INSBASE
 10
0
 20
0
 30
0
  9
$EXTMIN
 10
0
 20
0
 30
0
  9
$EXTMAX
 10
0
 20
0
 30
0
  9
$LIMMIN
 10
0
 20
0
  9
$LIMMAX
 10
420
 20
297
  9
$ORTHOMODE
 70
    0
  9
$REGENMODE
 70
    1
  9
$FILLMODE
 70
    1
  9
$QTEXTMODE
 70
    0
  9
$MIRRTEXT
 70
    0
  9
$LTSCALE
 40
1
  9
$ATTMODE
 70
    0
  9
$TEXTSIZE
 40
2.5
  9
$TRACEWID
 40
15.68
  9
$TEXTSTYLE
  7
STANDARD
  9
$CLAYER
  8
sektoren
  9
$CELTYPE
  6
BYLAYER
  9
$CECOLOR
 62
  256
  9
$CELTSCALE
 40
1
  9
$DISPSILH
 70
    0
  9
$DIMSCALE
 40
2.5
  9
$DIMASZ
 40
2.5
  9
$DIMEXO
 40
0.625
  9
$DIMDLI
 40
3.75
  9
$DIMRND
 40
0
  9
$DIMDLE
 40
0
  9
$DIMEXE
 40
1.25
  9
$DIMTP
 40
0
  9
$DIMTM
 40
0
  9
$DIMTXT
 40
2.5
  9
$DIMCEN
 40
2.5
  9
$DIMTSZ
 40
0
  9
$DIMTOL
 70
    0
  9
$DIMLIM
 70
    0
  9
$DIMTIH
 70
    0
  9
$DIMTOH
 70
    0
  9
$DIMSE1
 70
    0
  9
$DIMSE2
 70
    0
  9
$DIMTAD
 70
    1
  9
$DIMZIN
 70
    8
  9
$DIMBLK
  1

  9
$DIMASO
 70
    1
  9
$DIMSHO
 70
    1
  9
$DIMPOST
  1

  9
$DIMAPOST
  1

  9
$DIMALT
 70
    0
  9
$DIMALTD
 70
    3
  9
$DIMALTF
 40
0.03937
  9
$DIMLFAC
 40
1
  9
$DIMTOFL
 70
    1
  9
$DIMTVP
 40
0
  9
$DIMTIX
 70
    0
  9
$DIMSOXD
 70
    0
  9
$DIMSAH
 70
    0
  9
$DIMBLK1
  1

  9
$DIMBLK2
  1

  9
$DIMSTYLE
  2
STANDARD
  9
$DIMCLRD
 70
    0
  9
$DIMCLRE
 70
    0
  9
$DIMCLRT
 70
    0
  9
$DIMTFAC
 40
1
  9
$DIMGAP
 40
0.625
  9
$DIMJUST
 70
    0
  9
$DIMSD1
 70
    0
  9
$DIMSD2
 70
    0
  9
$DIMTOLJ
 70
    0
  9
$DIMTZIN
 70
    8
  9
$DIMALTZ
 70
    0
  9
$DIMALTTZ
 70
    0
  9
$DIMUPT
 70
    0
  9
$DIMDEC
 70
    2
  9
$DIMTDEC
 70
    2
  9
$DIMALTU
 70
    2
  9
$DIMALTTD
 70
    3
  9
$DIMTXSTY
  7
STANDARD
  9
$DIMAUNIT
 70
    0
  9
$DIMADEC
 70
    0
  9
$DIMALTRND
 40
0
  9
$DIMAZIN
 70
    0
  9
$DIMDSEP
 70
   44
  9
$DIMATFIT
 70
    3
  9
$DIMFRAC
 70
    0
  9
$DIMLDRBLK
  1
STANDARD
  9
$DIMLUNIT
 70
    2
  9
$DIMLWD
 70
   -2
  9
$DIMLWE
 70
   -2
  9
$DIMTMOVE
 70
    0
  9
$DIMFXL
 40
1
  9
$DIMFXLON
 70
    0
  9
$DIMJOGANG
 40
0.7854
  9
$DIMTFILL
 70
    0
  9
$DIMTFILLCLR
 70
    0
  9
$DIMARCSYM
 70
    0
  9
$DIMLTYPE
  6

  9
$DIMLTEX1
  6

  9
$DIMLTEX2
  6

  9
$LUNITS
 70
    2
  9
$LUPREC
 70
    4
  9
$SKETCHINC
 40
1
  9
$FILLETRAD
 40
0
  9
$AUNITS
 70
    0
  9
$AUPREC
 70
    2
  9
$MENU
  1
.
  9
$ELEVATION
 40
0
  9
$PELEVATION
 40
0
  9
$THICKNESS
 40
0
  9
$LIMCHECK
 70
    0
  9
$CHAMFERA
 40
0
  9
$CHAMFERB
 40
0
  9
$CHAMFERC
 40
0
  9
$CHAMFERD
 40
0
  9
$SKPOLY
 70
    0
  9
$USRTIMER
 70
    1
  9
$ANGBASE
 50
0
  9
$ANGDIR
 70
    0
  9
$PDMODE
 70
   34
  9
$PDSIZE
 40
0
  9
$PLINEWID
 40
0
  9
$SPLFRAME
 70
    0
  9
$SPLINETYPE
 70
    2
  9
$SPLINESEGS
 70
    8
  9
$HANDSEED
  5
20000
  9
$SURFTAB1
 70
    6
  9
$SURFTAB2
 70
    6
  9
$SURFTYPE
 70
    6
  9
$SURFU
 70
    6
  9
$SURFV
 70
    6
  9
$UCSBASE
  2

  9
$UCSNAME
  2

  9
$UCSORG
 10
0
 20
0
 30
0
  9
$UCSXDIR
 10
1
 20
0
 30
0
  9
$UCSYDIR
 10
0
 20
1
 30
0
  9
$UCSORTHOREF
  2

  9
$UCSORTHOVIEW
 70
    0
  9
$UCSORGTOP
 10
0
 20
0
 30
0
  9
$UCSORGBOTTOM
 10
0
 20
0
 30
0
  9
$UCSORGLEFT
 10
0
 20
0
 30
0
  9
$UCSORGRIGHT
 10
0
 20
0
 30
0
  9
$UCSORGFRONT
 10
0
 20
0
 30
0
  9
$UCSORGBACK
 10
0
 20
0
 30
0
  9
$PUCSBASE
  2

  9
$PUCSNAME
  2

  9
$PUCSORG
 10
0
 20
0
 30
0
  9
$PUCSXDIR
 10
1
 20
0
 30
0
  9
$PUCSYDIR
 10
0
 20
1
 30
0
  9
$PUCSORTHOREF
  2

  9
$PUCSORTHOVIEW
 70
    0
  9
$PUCSORGTOP
 10
0
 20
0
 30
0
  9
$PUCSORGBOTTOM
 10
0
 20
0
 30
0
  9
$PUCSORGLEFT
 10
0
 20
0
 30
0
  9
$PUCSORGRIGHT
 10
0
 20
0
 30
0
  9
$PUCSORGFRONT
 10
0
 20
0
 30
0
  9
$PUCSORGBACK
 10
0
 20
0
 30
0
  9
$USERI1
 70
    0
  9
$USERI2
 70
    0
  9
$USERI3
 70
    0
  9
$USERI4
 70
    0
  9
$USERI5
 70
    0
  9
$USERR1
 40
0
  9
$USERR2
 40
0
  9
$USERR3
 40
0
  9
$USERR4
 40
0
  9
$USERR5
 40
0
  9
$WORLDVIEW
 70
    1
  9
$SHADEDGE
 70
    3
  9
$SHADEDIF
 70
   70
  9
$TILEMODE
 70
    1
  9
$MAXACTVP
 70
   64
  9
$PINSBASE
 10
0
 20
0
 30
0
  9
$PLIMCHECK
 70
    0
  9
$PEXTMIN
 10
0
 20
0
 30
0
  9
$PEXTMAX
 10
0
 20
0
 30
0
  9
$GRIDMODE
 70
    1
  9
$SNAPSTYLE
 70
    0
  9
$PLIMMIN
 10
0
 20
0
  9
$PLIMMAX
 10
210
 20
297
  9
$UNITMODE
 70
    0
  9
$VISRETAIN
 70
    1
  9
$PLINEGEN
 70
    0
  9
$PSLTSCALE
 70
    1
  9
$TREEDEPTH
 70
 3020
  9
$CMLSTYLE
  2
Standard
  9
$CMLJUST
 70
    0
  9
$CMLSCALE
 40
20
  9
$PROXYGRAPHICS
 70
    1
  9
$MEASUREMENT
 70
    1
  9
$CELWEIGHT
370
   -1
  9
$ENDCAPS
280
    0
  9
$JOINSTYLE
280
    0
  9
$LWDISPLAY
290
    0
  9
$INSUNITS
 70
    4
  9
$HYPERLINKBASE
  1

  9
$STYLESHEET
  1

  9
$XEDIT
290
    1
  9
$CEPSNTYPE
380
    0
  9
$PSTYLEMODE
290
    1
  9
$EXTNAMES
290
    1
  9
$PSVPSCALE
 40
1
  9
$OLESTARTUP
290
    0
  9
$SORTENTS
280
  127
  9
$INDEXCTL
280
    0
  9
$HIDETEXT
280
    1
  9
$XCLIPFRAME
290
    0
  9
$HALOGAP
280
    0
  9
$OBSCOLOR
 70
  257
  9
$OBSLTYPE
280
    0
  9
$INTERSECTIONDISPLAY
280
    0
  9
$INTERSECTIONCOLOR
 70
  257
  9
$DIMASSOC
280
    1
  9
$PROJECTNAME
  1

  9
$CAMERADISPLAY
290
    0
  9
$LENSLENGTH
 40
50
  9
$CAMERAHEIGHT
 40
0
  9
$STEPSPERSEC
 40
2
  9
$STEPSIZE
 40
50
  9
$3DDWFPREC
 40
2
  9
$PSOLWIDTH
 40
5
  9
$PSOLHEIGHT
 40
80
  9
$LOFTANG1
 40
1.570796326794897
  9
$LOFTANG2
 40
1.570796326794897
  9
$LOFTMAG1
 40
0
  9
$LOFTMAG2
 40
0
  9
$LOFTPARAM
 70
    7
  9
$LOFTNORMALS
280
    1
  9
$LATITUDE
 40
1
  9
$LONGITUDE
 40
1
  9
$NORTHDIRECTION
 40
0
  9
$TIMEZONE
 70
-8000
  9
$LIGHTGLYPHDISPLAY
280
    1
  9
$TILEMODELIGHTSYNCH
280
    1
  9
$SOLIDHIST
280
    1
  9
$SHOWHIST
280
    1
  9
$DWFFRAME
280
    2
  9
$DGNFRAME
280
    0
  9
$REALWORLDSCALE
290
    1
  9
$INTERFERECOLOR
 62
    1
  9
$CSHADOW
280
    0
  9
$SHADOWPLANELOCATION
 40
0
  0
ENDSEC
  0
SECTION
  2
CLASSES
  0
ENDSEC
  0
SECTION
  2
TABLES
  0
TABLE
  2
VPORT
  5
8
330
0
100
AcDbSymbolTable
 70
    1
  0
VPORT
  5
31
330
2
100
AcDbSymbolTableRecord
100
AcDbViewportTableRecord
  2
*ACTIVE
 70
    0
 10
0
 20
0
 11
1
 21
1
 12
78.14626655583483
 22
60.09424145479092
 13
0
 23
0
 14
10
 24
10
 15
10
 25
10
 16
0
 26
0
 36
1
 17
0
 27
0
 37
0
 40
300.2336806278882
 41
1.131329113924051
 42
50
 43
0
 44
0
 50
0
 51
0
 71
    0
 72
  100
 73
    1
 74
    3
 75
    0
 76
    1
 77
    0
 78
    0
281
    0
 65
    1
110
0
120
0
130
0
111
1
121
0
131
0
112
0
122
1
132
0
 79
    0
146
0
348
10020
 60
    7
 61
    5
292
1
282
    1
141
0
142
0
 63
  250
421
3358443
  0
ENDTAB
  0
TABLE
  2
LTYPE
  5
5
330
0
100
AcDbSymbolTable
 70
    4
  0
LTYPE
  5
14
330
5
100
AcDbSymbolTableRecord
100
AcDbLinetypeTableRecord
  2
ByBlock
 70
    0
  3

 72
   65
 73
    0
 40
0
  0
LTYPE
  5
15
330
5
100
AcDbSymbolTableRecord
100
AcDbLinetypeTableRecord
  2
ByLayer
 70
    0
  3

 72
   65
 73
    0
 40
0
  0
LTYPE
  5
16
330
5
100
AcDbSymbolTableRecord
100
AcDbLinetypeTableRecord
  2
Continuous
 70
    0
  3
Solid line
 72
   65
 73
    0
 40
0
  0
LTYPE
  5
32
330
5
100
AcDbSymbolTableRecord
100
AcDbLinetypeTableRecord
  2
DOT
 70
    0
  3
Dot . . . . . . . . . . . . . . . . . . . . . .
 72
   65
 73
    2
 40
6.35
 49
0
 74
    0
 49
-6.35
 74
    0
  0
LTYPE
  5
33
330
5
100
AcDbSymbolTableRecord
100
AcDbLinetypeTableRecord
  2
DOTTINY
 70
    0
  3
Dot (.15x) .....................................
 72
   65
 73
    2
 40
0.9525
 49
0
 74
    0
 49
-0.9525
 74
    0
  0
LTYPE
  5
34
330
5
100
AcDbSymbolTableRecord
100
AcDbLinetypeTableRecord
  2
DOT2
 70
    0
  3
Dot (.5x) .....................................
 72
   65
 73
    2
 40
3.175
 49
0
 74
    0
 49
-3.175
 74
    0
  0
LTYPE
  5
35
330
5
100
AcDbSymbolTableRecord
100
AcDbLinetypeTableRecord
  2
DOTX2
 70
    0
  3
Dot (2x) .  .  .  .  .  .  .  .  .  .  .  .  .
 72
   65
 73
    2
 40
12.7
 49
0
 74
    0
 49
-12.7
 74
    0
  0
LTYPE
  5
36
330
5
100
AcDbSymbolTableRecord
100
AcDbLinetypeTableRecord
  2
DASHED
 70
    0
  3
Dashed _ _ _ _ _ _ _ _ _ _ _ _ _ _ _ _ _
 72
   65
 73
    2
 40
19.05
 49
12.7
 74
    0
 49
-6.35
 74
    0
  0
LTYPE
  5
37
330
5
100
AcDbSymbolTableRecord
100
AcDbLinetypeTableRecord
  2
DASHEDTINY
 70
    0
  3
Dashed (.15x) _ _ _ _ _ _ _ _ _ _ _ _ _ _ _ _ _
 72
   65
 73
    2
 40
2.8575
 49
1.905
 74
    0
 49
-0.9525
 74
    0
  0
LTYPE
  5
38
330
5
100
AcDbSymbolTableRecord
100
AcDbLinetypeTableRecord
  2
DASHED2
 70
    0
  3
Dashed (.5x) _ _ _ _ _ _ _ _ _ _ _ _ _ _ _ _ _
 72
   65
 73
    2
 40
9.524999999999999
 49
6.35
 74
    0
 49
-3.175
 74
    0
  0
LTYPE
  5
39
330
5
100
AcDbSymbolTableRecord
100
AcDbLinetypeTableRecord
  2
DASHEDX2
 70
    0
  3
Dashed (2x) ____  ____  ____  ____  ____  ___
 72
   65
 73
    2
 40
38.09999999999999
 49
25.4
 74
    0
 49
-12.7
 74
    0
  0
LTYPE
  5
3A
330
5
100
AcDbSymbolTableRecord
100
AcDbLinetypeTableRecord
  2
DASHDOT
 70
    0
  3
Dash dot __ . __ . __ . __ . __ . __ . __ . __
 72
   65
 73
    4
 40
25.4
 49
12.7
 74
    0
 49
-6.35
 74
    0
 49
0
 74
    0
 49
-6.35
 74
    0
  0
LTYPE
  5
3B
330
5
100
AcDbSymbolTableRecord
100
AcDbLinetypeTableRecord
  2
DASHDOTTINY
 70
    0
  3
Dash dot (.15x) _._._._._._._._._._._._._._._.
 72
   65
 73
    4
 40
3.81
 49
1.905
 74
    0
 49
-0.9525
 74
    0
 49
0
 74
    0
 49
-0.9525
 74
    0
  0
LTYPE
  5
3C
330
5
100
AcDbSymbolTableRecord
100
AcDbLinetypeTableRecord
  2
DASHDOT2
 70
    0
  3
Dash dot (.5x) _._._._._._._._._._._._._._._.
 72
   65
 73
    4
 40
12.7
 49
6.35
 74
    0
 49
-3.175
 74
    0
 49
0
 74
    0
 49
-3.175
 74
    0
  0
LTYPE
  5
3D
330
5
100
AcDbSymbolTableRecord
100
AcDbLinetypeTableRecord
  2
DASHDOTX2
 70
    0
  3
Dash dot (2x) ____  .  ____  .  ____  .  ___
 72
   65
 73
    4
 40
50.8
 49
25.4
 74
    0
 49
-12.7
 74
    0
 49
0
 74
    0
 49
-12.7
 74
    0
  0
LTYPE
  5
3E
330
5
100
AcDbSymbolTableRecord
100
AcDbLinetypeTableRecord
  2
DIVIDE
 70
    0
  3
Divide ____ . . ____ . . ____ . . ____ . . ____
 72
   65
 73
    6
 40
31.75
 49
12.7
 74
    0
 49
-6.35
 74
    0
 49
0
 74
    0
 49
-6.35
 74
    0
 49
0
 74
    0
 49
-6.35
 74
    0
  0
LTYPE
  5
3F
330
5
100
AcDbSymbolTableRecord
100
AcDbLinetypeTableRecord
  2
DIVIDETINY
 70
    0
  3
Divide (.15x) __..__..__..__..__..__..__..__.._
 72
   65
 73
    6
 40
4.7625
 49
1.905
 74
    0
 49
-0.9525
 74
    0
 49
0
 74
    0
 49
-0.9525
 74
    0
 49
0
 74
    0
 49
-0.9525
 74
    0
  0
LTYPE
  5
40
330
5
100
AcDbSymbolTableRecord
100
AcDbLinetypeTableRecord
  2
DIVIDE2
 70
    0
  3
Divide (.5x) __..__..__..__..__..__..__..__.._
 72
   65
 73
    6
 40
15.875
 49
6.35
 74
    0
 49
-3.175
 74
    0
 49
0
 74
    0
 49
-3.175
 74
    0
 49
0
 74
    0
 49
-3.175
 74
    0
  0
LTYPE
  5
41
330
5
100
AcDbSymbolTableRecord
100
AcDbLinetypeTableRecord
  2
DIVIDEX2
 70
    0
  3
Divide (2x) ________  .  .  ________  .  .  _
 72
   65
 73
    6
 40
63.5
 49
25.4
 74
    0
 49
-12.7
 74
    0
 49
0
 74
    0
 49
-12.7
 74
    0
 49
0
 74
    0
 49
-12.7
 74
    0
  0
LTYPE
  5
42
330
5
100
AcDbSymbolTableRecord
100
AcDbLinetypeTableRecord
  2
BORDER
 70
    0
  3
Border __ __ . __ __ . __ __ . __ __ . __ __ .
 72
   65
 73
    6
 40
44.45
 49
12.7
 74
    0
 49
-6.35
 74
    0
 49
12.7
 74
    0
 49
-6.35
 74
    0
 49
0
 74
    0
 49
-6.35
 74
    0
  0
LTYPE
  5
43
330
5
100
AcDbSymbolTableRecord
100
AcDbLinetypeTableRecord
  2
BORDERTINY
 70
    0
  3
Border (.15x) __.__.__.__.__.__.__.__.__.__.__.
 72
   65
 73
    6
 40
6.6675
 49
1.905
 74
    0
 49
-0.9525
 74
    0
 49
1.905
 74
    0
 49
-0.9525
 74
    0
 49
0
 74
    0
 49
-0.9525
 74
    0
  0
LTYPE
  5
44
330
5
100
AcDbSymbolTableRecord
100
AcDbLinetypeTableRecord
  2
BORDER2
 70
    0
  3
Border (.5x) __.__.__.__.__.__.__.__.__.__.__.
 72
   65
 73
    6
 40
22.225
 49
6.35
 74
    0
 49
-3.175
 74
    0
 49
6.35
 74
    0
 49
-3.175
 74
    0
 49
0
 74
    0
 49
-3.175
 74
    0
  0
LTYPE
  5
45
330
5
100
AcDbSymbolTableRecord
100
AcDbLinetypeTableRecord
  2
BORDERX2
 70
    0
  3
Border (2x) ____  ____  .  ____  ____  .  ___
 72
   65
 73
    6
 40
88.89999999999999
 49
25.4
 74
    0
 49
-12.7
 74
    0
 49
25.4
 74
    0
 49
-12.7
 74
    0
 49
0
 74
    0
 49
-12.7
 74
    0
  0
LTYPE
  5
46
330
5
100
AcDbSymbolTableRecord
100
AcDbLinetypeTableRecord
  2
CENTER
 70
    0
  3
Center ____ _ ____ _ ____ _ ____ _ ____ _ ____
 72
   65
 73
    4
 40
50.8
 49
31.75
 74
    0
 49
-6.35
 74
    0
 49
6.35
 74
    0
 49
-6.35
 74
    0
  0
LTYPE
  5
47
330
5
100
AcDbSymbolTableRecord
100
AcDbLinetypeTableRecord
  2
CENTERTINY
 70
    0
  3
Center (.15x) ___ _ ___ _ ___ _ ___ _ ___ _ ___
 72
   65
 73
    4
 40
7.619999999999999
 49
4.7625
 74
    0
 49
-0.9525
 74
    0
 49
0.9525
 74
    0
 49
-0.9525
 74
    0
  0
LTYPE
  5
48
330
5
100
AcDbSymbolTableRecord
100
AcDbLinetypeTableRecord
  2
CENTER2
 70
    0
  3
Center (.5x) ___ _ ___ _ ___ _ ___ _ ___ _ ___
 72
   65
 73
    4
 40
28.575
 49
19.05
 74
    0
 49
-3.175
 74
    0
 49
3.175
 74
    0
 49
-3.175
 74
    0
  0
LTYPE
  5
49
330
5
100
AcDbSymbolTableRecord
100
AcDbLinetypeTableRecord
  2
CENTERX2
 70
    0
  3
Center (2x) ________  __  ________  __  _____
 72
   65
 73
    4
 40
101.6
 49
63.5
 74
    0
 49
-12.7
 74
    0
 49
12.7
 74
    0
 49
-12.7
 74
    0
  0
ENDTAB
  0
TABLE
  2
LAYER
  5
2
330
0
100
AcDbSymbolTable
 70
    1
  0
LAYER
  5
4A
330
2
100
AcDbSymbolTableRecord
100
AcDbLayerTableRecord
  2
#_Spielfeldmarkierung
 70
    0
 62
    7
  6
CONTINUOUS
370
   -3
390
F
  0
LAYER
  5
10
330
2
100
AcDbSymbolTableRecord
100
AcDbLayerTableRecord
  2
0
 70
    0
 62
    7
  6
CONTINUOUS
370
    0
390
F
  0
LAYER
  5
4B
330
2
100
AcDbSymbolTableRecord
100
AcDbLayerTableRecord
  2
sektoren
 70
    0
 62
    7
  6
CONTINUOUS
370
   -3
390
F
  0
LAYER
  5
4C
330
2
100
AcDbSymbolTableRecord
100
AcDbLayerTableRecord
  2
exits
 70
    0
 62
    1
  6
CONTINUOUS
370
    0
390
F
  0
LAYER
  5
4D
330
2
100
AcDbSymbolTableRecord
100
AcDbLayerTableRecord
  2
overview
 70
    0
 62
  176
420
  128
  6
CONTINUOUS
370
    0
390
F
  0
ENDTAB
  0
TABLE
  2
STYLE
  5
3
330
0
100
AcDbSymbolTable
 70
    3
  0
STYLE
  5
4E
330
2
100
AcDbSymbolTableRecord
100
AcDbTextStyleTableRecord
  2
Standard
 70
    0
 40
0
 41
1
 50
0
 71
    0
 42
1
  3
txt
  4

  0
ENDTAB
  0
TABLE
  2
VIEW
  5
6
330
0
100
AcDbSymbolTable
 70
    0
  0
ENDTAB
  0
TABLE
  2
UCS
  5
7
330
0
100
AcDbSymbolTable
 70
    0
  0
ENDTAB
  0
TABLE
  2
APPID
  5
9
330
0
100
AcDbSymbolTable
 70
    1
  0
APPID
  5
12
330
9
100
AcDbSymbolTableRecord
100
AcDbRegAppTableRecord
  2
ACAD
 70
    0
  0
APPID
  5
4F
330
9
100
AcDbSymbolTableRecord
100
AcDbRegAppTableRecord
  2
LibreCad
 70
    0
  0
ENDTAB
  0
TABLE
  2
DIMSTYLE
  5
A
330
0
100
AcDbSymbolTable
 70
    1
100
AcDbDimStyleTable
 71
    1
  0
DIMSTYLE
105
50
330
A
100
AcDbSymbolTableRecord
100
AcDbDimStyleTableRecord
  2
Standard
 70
    0
 40
1
 41
2.5
 42
0.625
 43
0.38
 44
1.25
 45
0
 46
0
 47
0
 48
0
 49
1
140
2.5
141
0.09
142
2.5
143
25.4
144
1
145
0
146
1
147
0.625
148
0
 71
    0
 72
    0
 73
    0
 74
    1
 75
    0
 76
    0
 77
    0
 78
    1
 79
    0
170
    0
171
    2
172
    0
173
    0
174
    0
175
    0
176
    0
177
    0
178
    0
179
    0
271
    2
272
    4
273
    2
274
    2
275
    0
276
    0
277
    2
278
    0
279
    0
280
    0
281
    0
282
    0
283
    1
284
    0
285
    0
286
    0
288
    0
289
    3
340
standard
341

371
   -2
372
   -2
  0
ENDTAB
  0
TABLE
  2
BLOCK_RECORD
  5
1
330
0
100
AcDbSymbolTable
 70
    2
  0
BLOCK_RECORD
  5
1F
330
1
100
AcDbSymbolTableRecord
100
AcDbBlockTableRecord
  2
*Model_Space
 70
    0
280
    1
281
    0
  0
BLOCK_RECORD
  5
1E
330
1
100
AcDbSymbolTableRecord
100
AcDbBlockTableRecord
  2
*Paper_Space
 70
    0
280
    1
281
    0
  0
ENDTAB
  0
ENDSEC
  0
SECTION
  2
BLOCKS
  0
BLOCK
  5
20
330
1F
100
AcDbEntity
  8
0
100
AcDbBlockBegin
  2
*Model_Space
 70
    0
 10
0
 20
0
 30
0
  3
*Model_Space
  1

  0
ENDBLK
  5
21
330
1F
100
AcDbEntity
  8
0
100
AcDbBlockEnd
  0
BLOCK
  5
1C
330
1B
100
AcDbEntity
  8
0
100
AcDbBlockBegin
  2
*Paper_Space
 70
    0
 10
0
 20
0
 30
0
  3
*Paper_Space
  1

  0
ENDBLK
  5
1D
330
1F
100
AcDbEntity
  8
0
100
AcDbBlockEnd
  0
ENDSEC
  0
SECTION
  2
ENTITIES
  0
LINE
  5
51
100
AcDbEntity
  8
#_Spielfeldmarkierung
  6
CONTINUOUS
 62
    7
370
   13
100
AcDbLine
 10
-55.50004820161166
 20
35.50116125060549
 11
-55.50004820161155
 21
-35.49883874939451
  0
LINE
  5
52
100
AcDbEntity
  8
#_Spielfeldmarkierung
  6
CONTINUOUS
 62
    7
370
   13
100
AcDbLine
 10
55.499951798388
 20
35.50116125060549
 11
-55.50004820161166
 21
35.50116125060549
  0
LINE
  5
53
100
AcDbEntity
  8
#_Spielfeldmarkierung
  6
CONTINUOUS
 62
    7
370
   13
100
AcDbLine
 10
-55.50004820161155
 20
-35.49883874939451
 11
55.49995179838845
 21
-35.49883874939451
  0
LINE
  5
54
100
AcDbEntity
  8
#_Spielfeldmarkierung
  6
CONTINUOUS
 62
    7
370
   13
100
AcDbLine
 10
55.499951798388
 20
35.50116125060549
 11
55.49995179838845
 21
-35.49883874939451
  0
LINE
  5
55
100
AcDbEntity
  8
#_Spielfeldmarkierung
  6
CONTINUOUS
 62
    7
370
   13
100
AcDbLine
 10
-52.49999999999997
 20
20.15999999999985
 11
-35.99999999976714
 21
20.15999999999985
  0
LINE
  5
56
100
AcDbEntity
  8
#_Spielfeldmarkierung
  6
CONTINUOUS
 62
    7
370
   13
100
AcDbLine
 10
-35.99999999976714
 20
20.15999999999985
 11
-35.99999999976714
 21
0
  0
LINE
  5
57
100
AcDbEntity
  8
#_Spielfeldmarkierung
  6
CONTINUOUS
 62
    7
370
   13
100
AcDbLine
 10
-47.00000000011639
 20
9.159999999999854
 11
-47.00000000011639
 21
0
  0
LINE
  5
58
100
AcDbEntity
  8
#_Spielfeldmarkierung
  6
CONTINUOUS
 62
    7
370
   13
100
AcDbLine
 10
-52.49999999999997
 20
9.159999999999854
 11
-47.00000000011639
 21
9.159999999999854
  0
LINE
  5
59
100
AcDbEntity
  8
#_Spielfeldmarkierung
  6
CONTINUOUS
 62
    7
370
   13
100
AcDbLine
 10
-52.6199999998789
 20
3.132000000001426
 11
-52.6199999998789
 21
0
  0
LINE
  5
5A
100
AcDbEntity
  8
#_Spielfeldmarkierung
  6
CONTINUOUS
 62
    7
370
   13
100
AcDbLine
 10
-52.49999999999997
 20
34
 11
-52.49999999999997
 21
0
  0
LINE
  5
5B
100
AcDbEntity
  8
#_Spielfeldmarkierung
  6
CONTINUOUS
 62
    7
370
   13
100
AcDbLine
 10
0
 20
34
 11
-52.49999999999997
 21
34
  0
LINE
  5
5C
100
AcDbEntity
  8
#_Spielfeldmarkierung
  6
CONTINUOUS
 62
    7
370
   13
100
AcDbLine
 10
0
 20
0
 11
0
 21
34
  0
LINE
  5
5D
100
AcDbEntity
  8
#_Spielfeldmarkierung
  6
CONTINUOUS
 62
    7
370
   13
100
AcDbLine
 10
-52.6199999998789
 20
3.132000000001426
 11
-52.49999999999997
 21
3.132000000001426
  0
LINE
  5
5E
100
AcDbEntity
  8
#_Spielfeldmarkierung
  6
CONTINUOUS
 62
    7
370
   13
100
AcDbLine
 10
-52.49999999999997
 20
-20.15999999999985
 11
-35.99999999976714
 21
-20.15999999999985
  0
LINE
  5
5F
100
AcDbEntity
  8
#_Spielfeldmarkierung
  6
CONTINUOUS
 62
    7
370
   13
100
AcDbLine
 10
-35.99999999976714
 20
-20.15999999999985
 11
-35.99999999976714
 21
0
  0
LINE
  5
60
100
AcDbEntity
  8
#_Spielfeldmarkierung
  6
CONTINUOUS
 62
    7
370
   13
100
AcDbLine
 10
-47.00000000011639
 20
-9.159999999999854
 11
-47.00000000011639
 21
0
  0
LINE
  5
61
100
AcDbEntity
  8
#_Spielfeldmarkierung
  6
CONTINUOUS
 62
    7
370
   13
100
AcDbLine
 10
-52.49999999999997
 20
-9.159999999999854
 11
-47.00000000011639
 21
-9.159999999999854
  0
LINE
  5
62
100
AcDbEntity
  8
#_Spielfeldmarkierung
  6
CONTINUOUS
 62
    7
370
   13
100
AcDbLine
 10
-52.6199999998789
 20
-3.131999999997788
 11
-52.6199999998789
 21
0
  0
LINE
  5
63
100
AcDbEntity
  8
#_Spielfeldmarkierung
  6
CONTINUOUS
 62
    7
370
   13
100
AcDbLine
 10
-52.49999999999997
 20
-34
 11
-52.49999999999997
 21
0
  0
LINE
  5
64
100
AcDbEntity
  8
#_Spielfeldmarkierung
  6
CONTINUOUS
 62
    7
370
   13
100
AcDbLine
 10
0
 20
-34
 11
-52.49999999999997
 21
-34
  0
LINE
  5
65
100
AcDbEntity
  8
#_Spielfeldmarkierung
  6
CONTINUOUS
 62
    7
370
   13
100
AcDbLine
 10
0
 20
0
 11
0
 21
-34
  0
LINE
  5
66
100
AcDbEntity
  8
#_Spielfeldmarkierung
  6
CONTINUOUS
 62
    7
370
   13
100
AcDbLine
 10
-52.6199999998789
 20
-3.131999999997788
 11
-52.49999999999997
 21
-3.131999999997788
  0
LINE
  5
67
100
AcDbEntity
  8
#_Spielfeldmarkierung
  6
CONTINUOUS
 62
    7
370
   13
100
AcDbLine
 10
52.5
 20
20.15999999999985
 11
35.99999999976717
 21
20.15999999999985
  0
LINE
  5
68
100
AcDbEntity
  8
#_Spielfeldmarkierung
  6
CONTINUOUS
 62
    7
370
   13
100
AcDbLine
 10
35.99999999976717
 20
20.15999999999985
 11
35.99999999976717
 21
0
  0
LINE
  5
69
100
AcDbEntity
  8
#_Spielfeldmarkierung
  6
CONTINUOUS
 62
    7
370
   13
100
AcDbLine
 10
47.00000000011642
 20
9.159999999999854
 11
47.00000000011642
 21
0
  0
LINE
  5
6A
100
AcDbEntity
  8
#_Spielfeldmarkierung
  6
CONTINUOUS
 62
    7
370
   13
100
AcDbLine
 10
52.5
 20
9.159999999999854
 11
47.00000000011642
 21
9.159999999999854
  0
LINE
  5
6B
100
AcDbEntity
  8
#_Spielfeldmarkierung
  6
CONTINUOUS
 62
    7
370
   13
100
AcDbLine
 10
52.61999999987893
 20
3.132000000001426
 11
52.61999999987893
 21
0
  0
LINE
  5
6C
100
AcDbEntity
  8
#_Spielfeldmarkierung
  6
CONTINUOUS
 62
    7
370
   13
100
AcDbLine
 10
52.5
 20
34
 11
52.5
 21
0
  0
LINE
  5
6D
100
AcDbEntity
  8
#_Spielfeldmarkierung
  6
CONTINUOUS
 62
    7
370
   13
100
AcDbLine
 10
0
 20
34
 11
52.5
 21
34
  0
LINE
  5
6E
100
AcDbEntity
  8
#_Spielfeldmarkierung
  6
CONTINUOUS
 62
    7
370
   13
100
AcDbLine
 10
0
 20
0
 11
0
 21
34
  0
LINE
  5
6F
100
AcDbEntity
  8
#_Spielfeldmarkierung
  6
CONTINUOUS
 62
    7
370
   13
100
AcDbLine
 10
52.61999999987893
 20
3.132000000001426
 11
52.5
 21
3.132000000001426
  0
LINE
  5
70
100
AcDbEntity
  8
#_Spielfeldmarkierung
  6
CONTINUOUS
 62
    7
370
   13
100
AcDbLine
 10
52.5
 20
-20.15999999999985
 11
35.99999999976717
 21
-20.15999999999985
  0
LINE
  5
71
100
AcDbEntity
  8
#_Spielfeldmarkierung
  6
CONTINUOUS
 62
    7
370
   13
100
AcDbLine
 10
35.99999999976717
 20
-20.15999999999985
 11
35.99999999976717
 21
0
  0
LINE
  5
72
100
AcDbEntity
  8
#_Spielfeldmarkierung
  6
CONTINUOUS
 62
    7
370
   13
100
AcDbLine
 10
47.00000000011642
 20
-9.159999999999854
 11
47.00000000011642
 21
0
  0
LINE
  5
73
100
AcDbEntity
  8
#_Spielfeldmarkierung
  6
CONTINUOUS
 62
    7
370
   13
100
AcDbLine
 10
52.5
 20
-9.159999999999854
 11
47.00000000011642
 21
-9.159999999999854
  0
LINE
  5
74
100
AcDbEntity
  8
#_Spielfeldmarkierung
  6
CONTINUOUS
 62
    7
370
   13
100
AcDbLine
 10
52.61999999987893
 20
-3.131999999997788
 11
52.61999999987893
 21
0
  0
LINE
  5
75
100
AcDbEntity
  8
#_Spielfeldmarkierung
  6
CONTINUOUS
 62
    7
370
   13
100
AcDbLine
 10
52.5
 20
-34
 11
52.5
 21
0
  0
LINE
  5
76
100
AcDbEntity
  8
#_Spielfeldmarkierung
  6
CONTINUOUS
 62
    7
370
   13
100
AcDbLine
 10
0
 20
0
 11
0
 21
-34
  0
LINE
  5
77
100
AcDbEntity
  8
#_Spielfeldmarkierung
  6
CONTINUOUS
 62
    7
370
   13
100
AcDbLine
 10
52.61999999987893
 20
-3.131999999997788
 11
52.5
 21
-3.131999999997788
  0
ARC
  5
78
100
AcDbEntity
  8
#_Spielfeldmarkierung
  6
CONTINUOUS
 62
    7
370
   13
100
AcDbCircle
 10
-41.5000000002328
 20
0
 40
0.1499999999978172
100
AcDbArc
 50
0
 51
180
  0
ARC
  5
79
100
AcDbEntity
  8
#_Spielfeldmarkierung
  6
CONTINUOUS
 62
    7
370
   13
100
AcDbCircle
 10
-41.5000000002328
 20
0
 40
9.149999999997817
100
AcDbArc
 50
0
 51
53.05178926686698
  0
ARC
  5
7A
100
AcDbEntity
  8
#_Spielfeldmarkierung
  6
CONTINUOUS
 62
    7
370
   13
100
AcDbCircle
 10
0
 20
0
 40
9.150000000001455
100
AcDbArc
 50
90
 51
180
  0
ARC
  5
7B
100
AcDbEntity
  8
#_Spielfeldmarkierung
  6
CONTINUOUS
 62
    7
370
   13
100
AcDbCircle
 10
0
 20
0
 40
0.1500000000014552
100
AcDbArc
 50
90
 51
180
  0
ARC
  5
7C
100
AcDbEntity
  8
#_Spielfeldmarkierung
  6
CONTINUOUS
 62
    7
370
   13
100
AcDbCircle
 10
-41.5000000002328
 20
0
 40
0.1499999999978172
100
AcDbArc
 50
180
 51
0
  0
ARC
  5
7D
100
AcDbEntity
  8
#_Spielfeldmarkierung
  6
CONTINUOUS
 62
    7
370
   13
100
AcDbCircle
 10
-41.5000000002328
 20
0
 40
9.149999999999768
100
AcDbArc
 50
306.948210733051
 51
0
  0
ARC
  5
7E
100
AcDbEntity
  8
#_Spielfeldmarkierung
  6
CONTINUOUS
 62
    7
370
   13
100
AcDbCircle
 10
0
 20
0
 40
9.149999999997817
100
AcDbArc
 50
180
 51
270
  0
ARC
  5
7F
100
AcDbEntity
  8
#_Spielfeldmarkierung
  6
CONTINUOUS
 62
    7
370
   13
100
AcDbCircle
 10
0
 20
0
 40
0.1499999999978172
100
AcDbArc
 50
180
 51
270
  0
ARC
  5
80
100
AcDbEntity
  8
#_Spielfeldmarkierung
  6
CONTINUOUS
 62
    7
370
   13
100
AcDbCircle
 10
41.50000000023283
 20
0
 40
0.1499999999978172
100
AcDbArc
 50
0
 51
180
  0
ARC
  5
81
100
AcDbEntity
  8
#_Spielfeldmarkierung
  6
CONTINUOUS
 62
    7
370
   13
100
AcDbCircle
 10
41.50000000023283
 20
0
 40
9.149999999999768
100
AcDbArc
 50
126.948210733051
 51
180
  0
ARC
  5
82
100
AcDbEntity
  8
#_Spielfeldmarkierung
  6
CONTINUOUS
 62
    7
370
   13
100
AcDbCircle
 10
0
 20
0
 40
9.149999999997817
100
AcDbArc
 50
0
 51
90
  0
ARC
  5
83
100
AcDbEntity
  8
#_Spielfeldmarkierung
  6
CONTINUOUS
 62
    7
370
   13
100
AcDbCircle
 10
0
 20
0
 40
0.1499999999978172
100
AcDbArc
 50
0
 51
90
  0
ARC
  5
84
100
AcDbEntity
  8
#_Spielfeldmarkierung
  6
CONTINUOUS
 62
    7
370
   13
100
AcDbCircle
 10
41.50000000023283
 20
0
 40
0.1499999999978172
100
AcDbArc
 50
180
 51
0
  0
ARC
  5
85
100
AcDbEntity
  8
#_Spielfeldmarkierung
  6
CONTINUOUS
 62
    7
370
   13
100
AcDbCircle
 10
41.50000000023283
 20
0
 40
9.149999999997817
100
AcDbArc
 50
180
 51
233.051789266867
  0
ARC
  5
86
100
AcDbEntity
  8
#_Spielfeldmarkierung
  6
CONTINUOUS
 62
    7
370
   13
100
AcDbCircle
 10
0
 20
0
 40
9.150000000001455
100
AcDbArc
 50
270
 51
0
  0
ARC
  5
87
100
AcDbEntity
  8
#_Spielfeldmarkierung
  6
CONTINUOUS
 62
    7
370
   13
100
AcDbCircle
 10
0
 20
0
 40
0.1500000000014552
100
AcDbArc
 50
270
 51
0
  0
LINE
  5
88
100
AcDbEntity
  8
#_Spielfeldmarkierung
  6
CONTINUOUS
 62
    7
370
   13
100
AcDbLine
 10
0
 20
-34
 11
52.5
 21
-34
  0
LINE
  5
89
100
AcDbEntity
  8
exits
  6
ByLayer
 62
  256
370
   -1
100
AcDbLine
 10
-70.04806777462818
 20
14.0999264891143
 11
-72.07720730974998
 21
14.10002617399732
  0
LINE
  5
8A
100
AcDbEntity
  8
exits
  6
ByLayer
 62
  256
370
   -1
100
AcDbLine
 10
-72.07720730974998
 20
14.10002617399732
 11
-72.07720681059018
 21
9.899901265307561
  0
LINE
  5
8B
100
AcDbEntity
  8
exits
  6
ByLayer
 62
  256
370
   -1
100
AcDbLine
 10
-72.07720681059018
 20
9.899901265307561
 11
-70.04801630620342
 21
9.899892946255536
  0
LINE
  5
8C
100
AcDbEntity
  8
exits
  6
ByLayer
 62
  256
370
   -1
100
AcDbLine
 10
-69.99357744609316
 20
32.31852339580655
 11
-72.02357877570049
 21
32.45162231990253
  0
LINE
  5
8D
100
AcDbEntity
  8
exits
  6
ByLayer
 62
  256
370
   -1
100
AcDbLine
 10
-72.02357877570051
 20
32.45162231990253
 11
-71.46781168753242
 21
36.59600624263112
  0
LINE
  5
8E
100
AcDbEntity
  8
exits
  6
ByLayer
 62
  256
370
   -1
100
AcDbLine
 10
-71.46781168753266
 20
36.59600624262924
 11
-69.62312377915541
 21
36.16707236468137
  0
LINE
  5
8F
100
AcDbEntity
  8
exits
  6
ByLayer
 62
  256
370
   -1
100
AcDbLine
 10
-64.10467867262506
 20
45.65350765173207
 11
-65.34048002460932
 21
47.26403532920813
  0
LINE
  5
90
100
AcDbEntity
  8
exits
  6
ByLayer
 62
  256
370
   -1
100
AcDbLine
 10
-65.34048002460932
 20
47.26403532920813
 11
-62.73404571181473
 21
49.26402275306464
  0
LINE
  5
91
100
AcDbEntity
  8
exits
  6
ByLayer
 62
  256
370
   -1
100
AcDbLine
 10
-62.73404571181473
 20
49.26402275306464
 11
-62.16618368134678
 21
49.55889038780879
  0
LINE
  5
92
100
AcDbEntity
  8
exits
  6
ByLayer
 62
  256
370
   -1
100
AcDbLine
 10
-62.16618368134678
 20
49.55889038780879
 11
-60.10826070685599
 21
50.42228492445429
  0
LINE
  5
93
100
AcDbEntity
  8
exits
  6
ByLayer
 62
  256
370
   -1
100
AcDbLine
 10
-60.10826070685599
 20
50.42228492445429
 11
-59.42852395779102
 21
48.50655238861613
  0
LINE
  5
94
100
AcDbEntity
  8
exits
  6
ByLayer
 62
  256
370
   -1
100
AcDbLine
 10
-62.51567338697161
 20
49.37741461141271
 11
-61.91727647121104
 21
48.34103619331216
  0
LINE
  5
95
100
AcDbEntity
  8
exits
  6
ByLayer
 62
  256
370
   -1
100
AcDbLine
 10
-50.09720638889431
 20
50.04988174125901
 11
-50.09720727874392
 21
52.07994707739272
  0
LINE
  5
96
100
AcDbEntity
  8
exits
  6
ByLayer
 62
  256
370
   -1
100
AcDbLine
 10
-50.09720727874392
 20
52.07994707739272
 11
-45.91982279491222
 21
52.069870495543
  0
LINE
  5
97
100
AcDbEntity
  8
exits
  6
ByLayer
 62
  256
370
   -1
100
AcDbLine
 10
-45.91982279491222
 20
52.069870495543
 11
-45.8972071200873
 21
50.04988173143647
  0
LINE
  5
98
100
AcDbEntity
  8
exits
  6
ByLayer
 62
  256
370
   -1
100
AcDbLine
 10
-26.09722077267671
 20
50.04988171008881
 11
-26.09722149302561
 21
52.07994703485747
  0
LINE
  5
99
100
AcDbEntity
  8
exits
  6
ByLayer
 62
  256
370
   -1
100
AcDbLine
 10
-26.09722149302561
 20
52.07994703485748
 11
-21.89718015663985
 21
52.07994706700265
  0
LINE
  5
9A
100
AcDbEntity
  8
exits
  6
ByLayer
 62
  256
370
   -1
100
AcDbLine
 10
-21.89718015663985
 20
52.07994706700265
 11
-21.8972214255804
 21
50.0498817454354
  0
LINE
  5
9B
100
AcDbEntity
  8
exits
  6
ByLayer
 62
  256
370
   -1
100
AcDbLine
 10
-2.097228433765352
 20
50.0498817475891
 11
-2.097227019406503
 21
52.07994703485747
  0
LINE
  5
9C
100
AcDbEntity
  8
exits
  6
ByLayer
 62
  256
370
   -1
100
AcDbLine
 10
-2.097227019406503
 20
52.07994703485747
 11
2.102771218309996
 21
52.07994703487202
  0
LINE
  5
9D
100
AcDbEntity
  8
exits
  6
ByLayer
 62
  256
370
   -1
100
AcDbLine
 10
2.102771218309996
 20
52.07994703487202
 11
2.102770224763426
 21
50.04988173443417
  0
LINE
  5
9E
100
AcDbEntity
  8
exits
  6
ByLayer
 62
  256
370
   -1
100
AcDbLine
 10
21.90276420514833
 20
50.0507583750732
 11
21.90276400622365
 21
52.07994703485747
  0
LINE
  5
9F
100
AcDbEntity
  8
exits
  6
ByLayer
 62
  256
370
   -1
100
AcDbLine
 10
21.90276400622365
 20
52.07994703485747
 11
26.10276506715722
 21
52.07994703485747
  0
LINE
  5
A0
100
AcDbEntity
  8
exits
  6
ByLayer
 62
  256
370
   -1
100
AcDbLine
 10
26.10276506715722
 20
52.07994703485747
 11
26.10276256370393
 21
50.04988171008881
  0
LINE
  5
A1
100
AcDbEntity
  8
exits
  6
ByLayer
 62
  256
370
   -1
100
AcDbLine
 10
45.90275524349686
 20
50.04988173094171
 11
45.92537136023434
 21
52.06987049547024
  0
LINE
  5
A2
100
AcDbEntity
  8
exits
  6
ByLayer
 62
  256
370
   -1
100
AcDbLine
 10
45.92537136023434
 20
52.06987049547024
 11
50.10275515317021
 21
52.07994707689795
  0
LINE
  5
A3
100
AcDbEntity
  8
exits
  6
ByLayer
 62
  256
370
   -1
100
AcDbLine
 10
50.10275515317021
 20
52.07994707689795
 11
50.10275390202564
 21
50.04988174125901
  0
LINE
  5
A4
100
AcDbEntity
  8
exits
  6
ByLayer
 62
  256
370
   -1
100
AcDbLine
 10
59.32642766149051
 20
48.55112648029171
 11
60.10329023981153
 21
50.42663856096624
  0
LINE
  5
A5
100
AcDbEntity
  8
exits
  6
ByLayer
 62
  256
370
   -1
100
AcDbLine
 10
60.10329023981153
 20
50.42663856096624
 11
62.24250841085136
 21
49.52957117705955
  0
LINE
  5
A6
100
AcDbEntity
  8
exits
  6
ByLayer
 62
  256
370
   -1
100
AcDbLine
 10
62.24250841085136
 20
49.52957117705955
 11
62.78427732854884
 21
49.21662929828744
  0
LINE
  5
A7
100
AcDbEntity
  8
exits
  6
ByLayer
 62
  256
370
   -1
100
AcDbLine
 10
62.78427732854884
 20
49.21662929828744
 11
64.94914257901522
 21
47.56857150352152
  0
LINE
  5
A8
100
AcDbEntity
  8
exits
  6
ByLayer
 62
  256
370
   -1
100
AcDbLine
 10
64.94914257901522
 20
47.56857150352152
 11
63.71310839985067
 21
45.9578259337577
  0
LINE
  5
A9
100
AcDbEntity
  8
exits
  6
ByLayer
 62
  256
370
   -1
100
AcDbLine
 10
62.51080352261472
 20
49.37459592174694
 11
61.91606759788964
 21
48.3444081908973
  0
LINE
  5
AA
100
AcDbEntity
  8
exits
  6
ByLayer
 62
  256
370
   -1
100
AcDbLine
 10
70.05275528365432
 20
30.86030572290474
 11
72.87265080382035
 21
30.83626051714236
  0
LINE
  5
AB
100
AcDbEntity
  8
exits
  6
ByLayer
 62
  256
370
   -1
100
AcDbLine
 10
72.87265080382035
 20
30.83626051714236
 11
72.88272532034584
 21
27.06030682830897
  0
LINE
  5
AC
100
AcDbEntity
  8
exits
  6
ByLayer
 62
  256
370
   -1
100
AcDbLine
 10
72.88272532034584
 20
27.06030682830897
 11
70.05274852187408
 21
27.06030799233308
  0
LINE
  5
AD
100
AcDbEntity
  8
exits
  6
ByLayer
 62
  256
370
   -1
100
AcDbLine
 10
70.05404519705603
 20
18.09992536704522
 11
72.88274761434563
 21
18.10002354100288
  0
LINE
  5
AE
100
AcDbEntity
  8
exits
  6
ByLayer
 62
  256
370
   -1
100
AcDbLine
 10
72.88274761443294
 20
18.09984293775051
 11
72.88274761434563
 21
13.89992669595813
  0
LINE
  5
AF
100
AcDbEntity
  8
exits
  6
ByLayer
 62
  256
370
   -1
100
AcDbLine
 10
72.88274761434563
 20
13.89992669595813
 11
70.05535358283355
 21
13.89991864083277
  0
LINE
  5
B0
100
AcDbEntity
  8
exits
  6
ByLayer
 62
  256
370
   -1
100
AcDbLine
 10
70.05403479470674
 20
2.099930183379911
 11
72.88274761434563
 21
2.099929886389873
  0
LINE
  5
B1
100
AcDbEntity
  8
exits
  6
ByLayer
 62
  256
370
   -1
100
AcDbLine
 10
72.88274761434563
 20
2.099929886389873
 11
72.88274761466577
 21
-2.099065213493304
  0
LINE
  5
B2
100
AcDbEntity
  8
exits
  6
ByLayer
 62
  256
370
   -1
100
AcDbLine
 10
72.88274761466577
 20
-2.099065213493304
 11
70.05274852187408
 21
-2.100068337502307
  0
LINE
  5
B3
100
AcDbEntity
  8
exits
  6
ByLayer
 62
  256
370
   -1
100
AcDbLine
 10
70.05274852187408
 20
-13.90006442579011
 11
72.88274761434563
 21
-13.90014687870257
  0
LINE
  5
B4
100
AcDbEntity
  8
exits
  6
ByLayer
 62
  256
370
   -1
100
AcDbLine
 10
72.88274761434563
 20
-13.90014687870257
 11
72.89274761115351
 21
-18.10006009372569
  0
LINE
  5
B5
100
AcDbEntity
  8
exits
  6
ByLayer
 62
  256
370
   -1
100
AcDbLine
 10
72.89274761115351
 20
-18.10006009372569
 11
70.05274852187408
 21
-18.10006009372569
  0
LINE
  5
B6
100
AcDbEntity
  8
exits
  6
ByLayer
 62
  256
370
   -1
100
AcDbLine
 10
70.05274852187408
 20
-27.05908076194442
 11
72.88144720883842
 21
-27.05908076197352
  0
LINE
  5
B7
100
AcDbEntity
  8
exits
  6
ByLayer
 62
  256
370
   -1
100
AcDbLine
 10
72.88144720883842
 20
-27.05908076197352
 11
72.88274761452026
 21
-30.85908015869768
  0
LINE
  5
B8
100
AcDbEntity
  8
exits
  6
ByLayer
 62
  256
370
   -1
100
AcDbLine
 10
72.88274761452026
 20
-30.85908015869768
 11
70.05274852187408
 21
-30.85908015869768
  0
LINE
  5
B9
100
AcDbEntity
  8
exits
  6
ByLayer
 62
  256
370
   -1
100
AcDbLine
 10
63.71310820639751
 20
-45.95796411398601
 11
64.96112372007023
 21
-47.58432364714076
  0
LINE
  5
BA
100
AcDbEntity
  8
exits
  6
ByLayer
 62
  256
370
   -1
100
AcDbLine
 10
64.96112372007023
 20
-47.58432364714076
 11
62.74964652719477
 21
-49.28158514146321
  0
LINE
  5
BB
100
AcDbEntity
  8
exits
  6
ByLayer
 62
  256
370
   -1
100
AcDbLine
 10
62.74964652722306
 20
-49.2815851414415
 11
62.3
 21
-49.50000000000001
  0
LINE
  5
BC
100
AcDbEntity
  8
exits
  6
ByLayer
 62
  256
370
   -1
100
AcDbLine
 10
62.3
 20
-49.50000000000001
 11
60.11092060160858
 21
-50.4451979975272
  0
LINE
  5
BD
100
AcDbEntity
  8
exits
  6
ByLayer
 62
  256
370
   -1
100
AcDbLine
 10
60.11092060160858
 20
-50.4451979975272
 11
59.32642766149051
 21
-48.55126449663635
  0
LINE
  5
BE
100
AcDbEntity
  8
exits
  6
ByLayer
 62
  256
370
   -1
100
AcDbLine
 10
62.5247633692044
 20
-49.39082166430354
 11
61.91911301089719
 21
-48.34188135574732
  0
LINE
  5
BF
100
AcDbEntity
  8
exits
  6
ByLayer
 62
  256
370
   -1
100
AcDbLine
 10
48.61283847508871
 20
-49.85001103376248
 11
48.61283924342983
 21
-52.09001916892862
  0
LINE
  5
C0
100
AcDbEntity
  8
exits
  6
ByLayer
 62
  256
370
   -1
100
AcDbLine
 10
48.61283924342983
 20
-52.09001916892862
 11
44.41267224805465
 21
-52.09001916892862
  0
LINE
  5
C1
100
AcDbEntity
  8
exits
  6
ByLayer
 62
  256
370
   -1
100
AcDbLine
 10
44.41267224805465
 20
-52.09001916892862
 11
44.4128248999446
 21
-50.05001977104962
  0
LINE
  5
C2
100
AcDbEntity
  8
exits
  6
ByLayer
 62
  256
370
   -1
100
AcDbLine
 10
34.58276716075174
 20
-50.05001129372954
 11
34.6
 21
-53.1
  0
LINE
  5
C3
100
AcDbEntity
  8
exits
  6
ByLayer
 62
  256
370
   -1
100
AcDbLine
 10
34.6
 20
-53.1
 11
21.4
 21
-53.1
  0
LINE
  5
C4
100
AcDbEntity
  8
exits
  6
ByLayer
 62
  256
370
   -1
100
AcDbLine
 10
21.4
 20
-53.1
 11
21.4
 21
-50
  0
LINE
  5
C5
100
AcDbEntity
  8
exits
  6
ByLayer
 62
  256
370
   -1
100
AcDbLine
 10
3.582953996429339
 20
-50.05002977816889
 11
3.582788141266562
 21
-53.08003275353963
  0
LINE
  5
C6
100
AcDbEntity
  8
exits
  6
ByLayer
 62
  256
370
   -1
100
AcDbLine
 10
3.582794241876149
 20
-53.08003275355319
 11
-3.577246985197647
 21
-53.08001684059832
  0
LINE
  5
C7
100
AcDbEntity
  8
exits
  6
ByLayer
 62
  256
370
   -1
100
AcDbLine
 10
-3.577246985197647
 20
-53.08001684059832
 11
-3.577412234505985
 21
-50.05002977816889
  0
LINE
  5
C8
100
AcDbEntity
  8
exits
  6
ByLayer
 62
  256
370
   -1
100
AcDbLine
 10
-21.41722716065435
 20
-50.05001129372954
 11
-21.4
 21
-53.1
  0
LINE
  5
C9
100
AcDbEntity
  8
exits
  6
ByLayer
 62
  256
370
   -1
100
AcDbLine
 10
-21.4
 20
-53.1
 11
-34.60000000000001
 21
-53.1
  0
LINE
  5
CA
100
AcDbEntity
  8
exits
  6
ByLayer
 62
  256
370
   -1
100
AcDbLine
 10
-34.6
 20
-53.10000000000001
 11
-34.60000000000001
 21
-50
  0
LINE
  5
CB
100
AcDbEntity
  8
exits
  6
ByLayer
 62
  256
370
   -1
100
AcDbLine
 10
-44.40721492021422
 20
-50.05001977096231
 11
-44.40713045711473
 21
-52.09001916892862
  0
LINE
  5
CC
100
AcDbEntity
  8
exits
  6
ByLayer
 62
  256
370
   -1
100
AcDbLine
 10
-44.40713045711473
 20
-52.09001916892862
 11
-48.60729779489648
 21
-52.09001035652159
  0
LINE
  5
CD
100
AcDbEntity
  8
exits
  6
ByLayer
 62
  256
370
   -1
100
AcDbLine
 10
-48.60729779489648
 20
-52.09001035652159
 11
-48.60729509606918
 21
-50.05001769542264
  0
LINE
  5
CE
100
AcDbEntity
  8
exits
  6
ByLayer
 62
  256
370
   -1
100
AcDbLine
 10
-59.32088978219272
 20
-48.55127394027636
 11
-60.0977251410981
 21
-50.42672040361481
  0
LINE
  5
CF
100
AcDbEntity
  8
exits
  6
ByLayer
 62
  256
370
   -1
100
AcDbLine
 10
-60.0977251410981
 20
-50.42672040361481
 11
-62.3
 21
-49.5
  0
LINE
  5
D0
100
AcDbEntity
  8
exits
  6
ByLayer
 62
  256
370
   -1
100
AcDbLine
 10
-62.3
 20
-49.5
 11
-62.84400221662091
 21
-49.16650872558216
  0
LINE
  5
D1
100
AcDbEntity
  8
exits
  6
ByLayer
 62
  256
370
   -1
100
AcDbLine
 10
-62.84400221662091
 20
-49.16650872558216
 11
-64.94340625690839
 21
-47.56845641031373
  0
LINE
  5
D2
100
AcDbEntity
  8
exits
  6
ByLayer
 62
  256
370
   -1
100
AcDbLine
 10
-64.94340625690839
 20
-47.56845641031373
 11
-63.64539964148153
 21
-45.87703783807206
  0
LINE
  5
D3
100
AcDbEntity
  8
exits
  6
ByLayer
 62
  256
370
   -1
100
AcDbLine
 10
-62.5070049021572
 20
-49.37309917768359
 11
-61.9
 21
-48.3
  0
LINE
  5
D4
100
AcDbEntity
  8
exits
  6
ByLayer
 62
  256
370
   -1
100
AcDbLine
 10
-69.4951722335276
 20
-36.10303267496033
 11
-71.46781046912966
 21
-36.59607754509466
  0
LINE
  5
D5
100
AcDbEntity
  8
exits
  6
ByLayer
 62
  256
370
   -1
100
AcDbLine
 10
-71.46781046912966
 20
-36.59607754509466
 11
-72.02377588759137
 21
-32.449663917723
  0
LINE
  5
D6
100
AcDbEntity
  8
exits
  6
ByLayer
 62
  256
370
   -1
100
AcDbLine
 10
-72.02377588759137
 20
-32.449663917723
 11
-70
 21
-32.3
  0
LINE
  5
D7
100
AcDbEntity
  8
exits
  6
ByLayer
 62
  256
370
   -1
100
AcDbLine
 10
-70.04720607618529
 20
-14.10006448790932
 11
-72.09999999999999
 21
-14.1
  0
LINE
  5
D8
100
AcDbEntity
  8
exits
  6
ByLayer
 62
  256
370
   -1
100
AcDbLine
 10
-72.09999999999999
 20
-14.1
 11
-72.07720632362489
 21
-9.899917777918517
  0
LINE
  5
D9
100
AcDbEntity
  8
exits
  6
ByLayer
 62
  256
370
   -1
100
AcDbLine
 10
-72.07720632362489
 20
-9.899917777918517
 11
-70.04764364194435
 21
-9.900065846537245
  0
LINE
  5
DA
100
AcDbEntity
  8
overview
  6
ByLayer
 62
  256
370
   -1
100
AcDbLine
 10
51.43876564731808
 20
-64.44083709691358
 11
-54.27532499794356
 21
-64.44083709691358
  0
LINE
  5
DB
100
AcDbEntity
  8
overview
  6
ByLayer
 62
  256
370
   -1
100
AcDbLine
 10
-54.27532499794356
 20
-64.44083709691358
 11
-54.3
 21
-75.39999999999999
  0
LINE
  5
DC
100
AcDbEntity
  8
overview
  6
ByLayer
 62
  256
370
   -1
100
AcDbLine
 10
-54.3
 20
-75.39999999999999
 11
51.40000000000001
 21
-75.39999999999999
  0
LINE
  5
DD
100
AcDbEntity
  8
overview
  6
ByLayer
 62
  256
370
   -1
100
AcDbLine
 10
51.40000000000001
 20
-75.39999999999999
 11
51.43
 21
-64.44
  0
LINE
  5
DE
100
AcDbEntity
  8
overview
  6
CONTINUOUS
 62
  253
370
   13
100
AcDbLine
 10
-97.65756058972696
 20
33.47594004592568
 11
-97.65756058972694
 21
-33.83795051630706
  0
LINE
  5
DF
100
AcDbEntity
  8
overview
  6
CONTINUOUS
 62
  253
370
   13
100
AcDbLine
 10
-53.17332473039281
 20
-78.02243544693241
 11
53.87385803268078
 21
-78.02243544693236
  0
ARC
  5
E0
100
AcDbEntity
  8
overview
  6
CONTINUOUS
 62
  253
370
   13
100
AcDbCircle
 10
54.59816831421742
 20
-35.16176199360831
 40
43.77140040525538
100
AcDbArc
 50
349.3293407002295
 51
1.815401417204397
  0
LINE
  5
E1
100
AcDbEntity
  8
overview
  6
CONTINUOUS
 62
  253
370
   13
100
AcDbLine
 10
98.34759901637514
 20
-33.77510894605484
 11
98.34759901637514
 21
33.71309847567271
  0
ARC
  5
E2
100
AcDbEntity
  8
overview
  6
CONTINUOUS
 62
  253
370
   13
100
AcDbCircle
 10
55.05973167319692
 20
34.87702014515248
 40
43.30351224523572
100
AcDbArc
 50
358.4598054951101
 51
10.68327151132193
  0
LINE
  5
E3
100
AcDbEntity
  8
overview
  6
CONTINUOUS
 62
  253
370
   13
100
AcDbLine
 10
53.87961711648856
 20
77.96043050439403
 11
-53.17332473039642
 21
77.96017633650581
  0
ARC
  5
E4
100
AcDbEntity
  8
overview
  6
CONTINUOUS
 62
  253
370
   13
100
AcDbCircle
 10
53.72595027842002
 20
32.96176173194349
 40
44.99893115163778
100
AcDbArc
 50
12.76527768335904
 51
51.28480898039758
  0
ARC
  5
E5
100
AcDbEntity
  8
overview
  6
CONTINUOUS
 62
  253
370
   13
100
AcDbCircle
 10
53.72595027842002
 20
32.96176173194349
 40
44.99893115163778
100
AcDbArc
 50
51.28480898039758
 51
89.80434027743611
  0
ARC
  5
E6
100
AcDbEntity
  8
overview
  6
CONTINUOUS
 62
  253
370
   13
100
AcDbCircle
 10
-53.74497617824485
 20
34.04759191948188
 40
43.91630512190297
100
AcDbArc
 50
89.25416903279537
 51
135.0000002777251
  0
ARC
  5
E7
100
AcDbEntity
  8
overview
  6
CONTINUOUS
 62
  253
370
   13
100
AcDbCircle
 10
-53.74497617824485
 20
34.04759191948188
 40
43.91630512190297
100
AcDbArc
 50
135.0000002777251
 51
180.7458315226549
  0
ARC
  5
E8
100
AcDbEntity
  8
overview
  6
CONTINUOUS
 62
  253
370
   13
100
AcDbCircle
 10
-53.86321720419514
 20
-34.23175557813855
 40
43.79611392574228
100
AcDbArc
 50
179.4848019599975
 51
225.1936917273964
  0
ARC
  5
E9
100
AcDbEntity
  8
overview
  6
CONTINUOUS
 62
  253
370
   13
100
AcDbCircle
 10
-53.86321720419514
 20
-34.23175557813855
 40
43.79611392574228
100
AcDbArc
 50
225.1936917273964
 51
270.9025814947952
  0
ARC
  5
EA
100
AcDbEntity
  8
overview
  6
CONTINUOUS
 62
  253
370
   13
100
AcDbCircle
 10
54.11575868976848
 20
-33.42718045494173
 40
44.59591106512529
100
AcDbArc
 50
269.6892101910568
 51
308.4714230216924
  0
ARC
  5
EB
100
AcDbEntity
  8
overview
  6
CONTINUOUS
 62
  253
370
   13
100
AcDbCircle
 10
54.11575868976848
 20
-33.42718045494173
 40
44.59591106512529
100
AcDbArc
 50
308.4714230216924
 51
347.253635852328
  0
LINE
  5
EC
100
AcDbEntity
  8
sektoren
  6
CONTINUOUS
 62
  252
370
   13
100
AcDbLine
 10
57.24966855978862
 20
35.51284202792522
 11
89.40760362686858
 21
54.08058515795346
  0
LINE
  5
ED
100
AcDbEntity
  8
sektoren
  6
CONTINUOUS
 62
  252
370
   13
100
AcDbLine
 10
-57.24752651268349
 20
-35.51421577996734
 11
-89.40546157696949
 21
-54.08195890999559
  0
LINE
  5
EE
100
AcDbEntity
  8
sektoren
  6
CONTINUOUS
 62
  252
370
   13
100
AcDbLine
 10
57.25190580336645
 20
-35.5106090414447
 11
89.41101057341591
 21
-54.07632617793206
  0
LINE
  5
EF
100
AcDbEntity
  8
sektoren
  6
CONTINUOUS
 62
  252
370
   13
100
AcDbLine
 10
-63.97862576992915
 20
73.58953783147808
 11
-54.36664843579487
 21
37.72167193190035
  0
LINE
  5
F0
100
AcDbEntity
  8
sektoren
  6
CONTINUOUS
 62
  252
370
   13
100
AcDbLine
 10
-57.24976375626133
 20
35.50923528940257
 11
-89.40886852910475
 21
54.07495242775258
  0
ENDSEC
  0
SECTION
  2
OBJECTS
  0
DICTIONARY
  5
C
330
0
100
AcDbDictionary
281
    1
  3
ACAD_GROUP
350
D
  0
DICTIONARY
  5
D
330
C
100
AcDbDictionary
281
    1
  0
ENDSEC
  0
EOF
