999
dxfrw 0.6.3
  0
SECTION
  2
HEADER
  9
$ACADVER
  1
AC1021
  9
$DWGCODEPAGE
  3
ANSI_1252
  9
$INSBASE
 10
0
 20
0
 30
0
  9
$EXTMIN
 10
0
 20
0
 30
0
  9
$EXTMAX
 10
0
 20
0
 30
0
  9
$LIMMIN
 10
0
 20
0
  9
$LIMMAX
 10
420
 20
297
  9
$ORTHOMODE
 70
    0
  9
$REGENMODE
 70
    1
  9
$FILLMODE
 70
    1
  9
$QTEXTMODE
 70
    0
  9
$MIRRTEXT
 70
    0
  9
$LTSCALE
 40
1
  9
$ATTMODE
 70
    0
  9
$TEXTSIZE
 40
2.5
  9
$TRACEWID
 40
15.68
  9
$TEXTSTYLE
  7
STANDARD
  9
$CLAYER
  8
G00-fill_Plattenlaufer
  9
$CELTYPE
  6
BYLAYER
  9
$CECOLOR
 62
  256
  9
$CELTSCALE
 40
1
  9
$DISPSILH
 70
    0
  9
$DIMSCALE
 40
2.5
  9
$DIMASZ
 40
2.5
  9
$DIMEXO
 40
0.625
  9
$DIMDLI
 40
3.75
  9
$DIMRND
 40
0
  9
$DIMDLE
 40
0
  9
$DIMEXE
 40
1.25
  9
$DIMTP
 40
0
  9
$DIMTM
 40
0
  9
$DIMTXT
 40
2.5
  9
$DIMCEN
 40
2.5
  9
$DIMTSZ
 40
0
  9
$DIMTOL
 70
    0
  9
$DIMLIM
 70
    0
  9
$DIMTIH
 70
    0
  9
$DIMTOH
 70
    0
  9
$DIMSE1
 70
    0
  9
$DIMSE2
 70
    0
  9
$DIMTAD
 70
    1
  9
$DIMZIN
 70
    8
  9
$DIMBLK
  1

  9
$DIMASO
 70
    1
  9
$DIMSHO
 70
    1
  9
$DIMPOST
  1

  9
$DIMAPOST
  1

  9
$DIMALT
 70
    0
  9
$DIMALTD
 70
    3
  9
$DIMALTF
 40
0.03937
  9
$DIMLFAC
 40
1
  9
$DIMTOFL
 70
    1
  9
$DIMTVP
 40
0
  9
$DIMTIX
 70
    0
  9
$DIMSOXD
 70
    0
  9
$DIMSAH
 70
    0
  9
$DIMBLK1
  1

  9
$DIMBLK2
  1

  9
$DIMSTYLE
  2
STANDARD
  9
$DIMCLRD
 70
    0
  9
$DIMCLRE
 70
    0
  9
$DIMCLRT
 70
    0
  9
$DIMTFAC
 40
1
  9
$DIMGAP
 40
0.625
  9
$DIMJUST
 70
    0
  9
$DIMSD1
 70
    0
  9
$DIMSD2
 70
    0
  9
$DIMTOLJ
 70
    0
  9
$DIMTZIN
 70
    8
  9
$DIMALTZ
 70
    0
  9
$DIMALTTZ
 70
    0
  9
$DIMUPT
 70
    0
  9
$DIMDEC
 70
    2
  9
$DIMTDEC
 70
    2
  9
$DIMALTU
 70
    2
  9
$DIMALTTD
 70
    3
  9
$DIMTXSTY
  7
STANDARD
  9
$DIMAUNIT
 70
    0
  9
$DIMADEC
 70
    0
  9
$DIMALTRND
 40
0
  9
$DIMAZIN
 70
    0
  9
$DIMDSEP
 70
   44
  9
$DIMATFIT
 70
    3
  9
$DIMFRAC
 70
    0
  9
$DIMLDRBLK
  1
STANDARD
  9
$DIMLUNIT
 70
    2
  9
$DIMLWD
 70
   -2
  9
$DIMLWE
 70
   -2
  9
$DIMTMOVE
 70
    0
  9
$DIMFXL
 40
1
  9
$DIMFXLON
 70
    0
  9
$DIMJOGANG
 40
0.7854
  9
$DIMTFILL
 70
    0
  9
$DIMTFILLCLR
 70
    0
  9
$DIMARCSYM
 70
    0
  9
$DIMLTYPE
  6

  9
$DIMLTEX1
  6

  9
$DIMLTEX2
  6

  9
$LUNITS
 70
    2
  9
$LUPREC
 70
    4
  9
$SKETCHINC
 40
1
  9
$FILLETRAD
 40
0
  9
$AUNITS
 70
    0
  9
$AUPREC
 70
    2
  9
$MENU
  1
.
  9
$ELEVATION
 40
0
  9
$PELEVATION
 40
0
  9
$THICKNESS
 40
0
  9
$LIMCHECK
 70
    0
  9
$CHAMFERA
 40
0
  9
$CHAMFERB
 40
0
  9
$CHAMFERC
 40
0
  9
$CHAMFERD
 40
0
  9
$SKPOLY
 70
    0
  9
$USRTIMER
 70
    1
  9
$ANGBASE
 50
0
  9
$ANGDIR
 70
    0
  9
$PDMODE
 70
   34
  9
$PDSIZE
 40
0
  9
$PLINEWID
 40
0
  9
$SPLFRAME
 70
    0
  9
$SPLINETYPE
 70
    2
  9
$SPLINESEGS
 70
    8
  9
$HANDSEED
  5
20000
  9
$SURFTAB1
 70
    6
  9
$SURFTAB2
 70
    6
  9
$SURFTYPE
 70
    6
  9
$SURFU
 70
    6
  9
$SURFV
 70
    6
  9
$UCSBASE
  2

  9
$UCSNAME
  2

  9
$UCSORG
 10
0
 20
0
 30
0
  9
$UCSXDIR
 10
1
 20
0
 30
0
  9
$UCSYDIR
 10
0
 20
1
 30
0
  9
$UCSORTHOREF
  2

  9
$UCSORTHOVIEW
 70
    0
  9
$UCSORGTOP
 10
0
 20
0
 30
0
  9
$UCSORGBOTTOM
 10
0
 20
0
 30
0
  9
$UCSORGLEFT
 10
0
 20
0
 30
0
  9
$UCSORGRIGHT
 10
0
 20
0
 30
0
  9
$UCSORGFRONT
 10
0
 20
0
 30
0
  9
$UCSORGBACK
 10
0
 20
0
 30
0
  9
$PUCSBASE
  2

  9
$PUCSNAME
  2

  9
$PUCSORG
 10
0
 20
0
 30
0
  9
$PUCSXDIR
 10
1
 20
0
 30
0
  9
$PUCSYDIR
 10
0
 20
1
 30
0
  9
$PUCSORTHOREF
  2

  9
$PUCSORTHOVIEW
 70
    0
  9
$PUCSORGTOP
 10
0
 20
0
 30
0
  9
$PUCSORGBOTTOM
 10
0
 20
0
 30
0
  9
$PUCSORGLEFT
 10
0
 20
0
 30
0
  9
$PUCSORGRIGHT
 10
0
 20
0
 30
0
  9
$PUCSORGFRONT
 10
0
 20
0
 30
0
  9
$PUCSORGBACK
 10
0
 20
0
 30
0
  9
$USERI1
 70
    0
  9
$USERI2
 70
    0
  9
$USERI3
 70
    0
  9
$USERI4
 70
    0
  9
$USERI5
 70
    0
  9
$USERR1
 40
0
  9
$USERR2
 40
0
  9
$USERR3
 40
0
  9
$USERR4
 40
0
  9
$USERR5
 40
0
  9
$WORLDVIEW
 70
    1
  9
$SHADEDGE
 70
    3
  9
$SHADEDIF
 70
   70
  9
$TILEMODE
 70
    1
  9
$MAXACTVP
 70
   64
  9
$PINSBASE
 10
0
 20
0
 30
0
  9
$PLIMCHECK
 70
    0
  9
$PEXTMIN
 10
0
 20
0
 30
0
  9
$PEXTMAX
 10
0
 20
0
 30
0
  9
$GRIDMODE
 70
    1
  9
$SNAPSTYLE
 70
    0
  9
$PLIMMIN
 10
0
 20
0
  9
$PLIMMAX
 10
210
 20
297
  9
$UNITMODE
 70
    0
  9
$VISRETAIN
 70
    1
  9
$PLINEGEN
 70
    0
  9
$PSLTSCALE
 70
    1
  9
$TREEDEPTH
 70
 3020
  9
$CMLSTYLE
  2
Standard
  9
$CMLJUST
 70
    0
  9
$CMLSCALE
 40
20
  9
$PROXYGRAPHICS
 70
    1
  9
$MEASUREMENT
 70
    1
  9
$CELWEIGHT
370
   -1
  9
$ENDCAPS
280
    0
  9
$JOINSTYLE
280
    0
  9
$LWDISPLAY
290
    0
  9
$INSUNITS
 70
    4
  9
$HYPERLINKBASE
  1

  9
$STYLESHEET
  1

  9
$XEDIT
290
    1
  9
$CEPSNTYPE
380
    0
  9
$PSTYLEMODE
290
    1
  9
$EXTNAMES
290
    1
  9
$PSVPSCALE
 40
1
  9
$OLESTARTUP
290
    0
  9
$SORTENTS
280
  127
  9
$INDEXCTL
280
    0
  9
$HIDETEXT
280
    1
  9
$XCLIPFRAME
290
    0
  9
$HALOGAP
280
    0
  9
$OBSCOLOR
 70
  257
  9
$OBSLTYPE
280
    0
  9
$INTERSECTIONDISPLAY
280
    0
  9
$INTERSECTIONCOLOR
 70
  257
  9
$DIMASSOC
280
    1
  9
$PROJECTNAME
  1

  9
$CAMERADISPLAY
290
    0
  9
$LENSLENGTH
 40
50
  9
$CAMERAHEIGHT
 40
0
  9
$STEPSPERSEC
 40
2
  9
$STEPSIZE
 40
50
  9
$3DDWFPREC
 40
2
  9
$PSOLWIDTH
 40
5
  9
$PSOLHEIGHT
 40
80
  9
$LOFTANG1
 40
1.570796326794897
  9
$LOFTANG2
 40
1.570796326794897
  9
$LOFTMAG1
 40
0
  9
$LOFTMAG2
 40
0
  9
$LOFTPARAM
 70
    7
  9
$LOFTNORMALS
280
    1
  9
$LATITUDE
 40
1
  9
$LONGITUDE
 40
1
  9
$NORTHDIRECTION
 40
0
  9
$TIMEZONE
 70
-8000
  9
$LIGHTGLYPHDISPLAY
280
    1
  9
$TILEMODELIGHTSYNCH
280
    1
  9
$SOLIDHIST
280
    1
  9
$SHOWHIST
280
    1
  9
$DWFFRAME
280
    2
  9
$DGNFRAME
280
    0
  9
$REALWORLDSCALE
290
    1
  9
$INTERFERECOLOR
 62
    1
  9
$CSHADOW
280
    0
  9
$SHADOWPLANELOCATION
 40
0
  0
ENDSEC
  0
SECTION
  2
CLASSES
  0
ENDSEC
  0
SECTION
  2
TABLES
  0
TABLE
  2
VPORT
  5
8
330
0
100
AcDbSymbolTable
 70
    1
  0
VPORT
  5
31
330
2
100
AcDbSymbolTableRecord
100
AcDbViewportTableRecord
  2
*ACTIVE
 70
    0
 10
0
 20
0
 11
1
 21
1
 12
76.42918643137943
 22
87.77203388762656
 13
0
 23
0
 14
10
 24
10
 15
10
 25
10
 16
0
 26
0
 36
1
 17
0
 27
0
 37
0
 40
341.365694873723
 41
1.131329113924051
 42
50
 43
0
 44
0
 50
0
 51
0
 71
    0
 72
  100
 73
    1
 74
    3
 75
    0
 76
    1
 77
    0
 78
    0
281
    0
 65
    1
110
0
120
0
130
0
111
1
121
0
131
0
112
0
122
1
132
0
 79
    0
146
0
348
10020
 60
    7
 61
    5
292
1
282
    1
141
0
142
0
 63
  250
421
3358443
  0
ENDTAB
  0
TABLE
  2
LTYPE
  5
5
330
0
100
AcDbSymbolTable
 70
    4
  0
LTYPE
  5
14
330
5
100
AcDbSymbolTableRecord
100
AcDbLinetypeTableRecord
  2
ByBlock
 70
    0
  3

 72
   65
 73
    0
 40
0
  0
LTYPE
  5
15
330
5
100
AcDbSymbolTableRecord
100
AcDbLinetypeTableRecord
  2
ByLayer
 70
    0
  3

 72
   65
 73
    0
 40
0
  0
LTYPE
  5
16
330
5
100
AcDbSymbolTableRecord
100
AcDbLinetypeTableRecord
  2
Continuous
 70
    0
  3
Solid line
 72
   65
 73
    0
 40
0
  0
LTYPE
  5
32
330
5
100
AcDbSymbolTableRecord
100
AcDbLinetypeTableRecord
  2
DOT
 70
    0
  3
Dot . . . . . . . . . . . . . . . . . . . . . .
 72
   65
 73
    2
 40
6.35
 49
0
 74
    0
 49
-6.35
 74
    0
  0
LTYPE
  5
33
330
5
100
AcDbSymbolTableRecord
100
AcDbLinetypeTableRecord
  2
DOTTINY
 70
    0
  3
Dot (.15x) .....................................
 72
   65
 73
    2
 40
0.9525
 49
0
 74
    0
 49
-0.9525
 74
    0
  0
LTYPE
  5
34
330
5
100
AcDbSymbolTableRecord
100
AcDbLinetypeTableRecord
  2
DOT2
 70
    0
  3
Dot (.5x) .....................................
 72
   65
 73
    2
 40
3.175
 49
0
 74
    0
 49
-3.175
 74
    0
  0
LTYPE
  5
35
330
5
100
AcDbSymbolTableRecord
100
AcDbLinetypeTableRecord
  2
DOTX2
 70
    0
  3
Dot (2x) .  .  .  .  .  .  .  .  .  .  .  .  .
 72
   65
 73
    2
 40
12.7
 49
0
 74
    0
 49
-12.7
 74
    0
  0
LTYPE
  5
36
330
5
100
AcDbSymbolTableRecord
100
AcDbLinetypeTableRecord
  2
DASHED
 70
    0
  3
Dashed _ _ _ _ _ _ _ _ _ _ _ _ _ _ _ _ _
 72
   65
 73
    2
 40
19.05
 49
12.7
 74
    0
 49
-6.35
 74
    0
  0
LTYPE
  5
37
330
5
100
AcDbSymbolTableRecord
100
AcDbLinetypeTableRecord
  2
DASHEDTINY
 70
    0
  3
Dashed (.15x) _ _ _ _ _ _ _ _ _ _ _ _ _ _ _ _ _
 72
   65
 73
    2
 40
2.8575
 49
1.905
 74
    0
 49
-0.9525
 74
    0
  0
LTYPE
  5
38
330
5
100
AcDbSymbolTableRecord
100
AcDbLinetypeTableRecord
  2
DASHED2
 70
    0
  3
Dashed (.5x) _ _ _ _ _ _ _ _ _ _ _ _ _ _ _ _ _
 72
   65
 73
    2
 40
9.524999999999999
 49
6.35
 74
    0
 49
-3.175
 74
    0
  0
LTYPE
  5
39
330
5
100
AcDbSymbolTableRecord
100
AcDbLinetypeTableRecord
  2
DASHEDX2
 70
    0
  3
Dashed (2x) ____  ____  ____  ____  ____  ___
 72
   65
 73
    2
 40
38.09999999999999
 49
25.4
 74
    0
 49
-12.7
 74
    0
  0
LTYPE
  5
3A
330
5
100
AcDbSymbolTableRecord
100
AcDbLinetypeTableRecord
  2
DASHDOT
 70
    0
  3
Dash dot __ . __ . __ . __ . __ . __ . __ . __
 72
   65
 73
    4
 40
25.4
 49
12.7
 74
    0
 49
-6.35
 74
    0
 49
0
 74
    0
 49
-6.35
 74
    0
  0
LTYPE
  5
3B
330
5
100
AcDbSymbolTableRecord
100
AcDbLinetypeTableRecord
  2
DASHDOTTINY
 70
    0
  3
Dash dot (.15x) _._._._._._._._._._._._._._._.
 72
   65
 73
    4
 40
3.81
 49
1.905
 74
    0
 49
-0.9525
 74
    0
 49
0
 74
    0
 49
-0.9525
 74
    0
  0
LTYPE
  5
3C
330
5
100
AcDbSymbolTableRecord
100
AcDbLinetypeTableRecord
  2
DASHDOT2
 70
    0
  3
Dash dot (.5x) _._._._._._._._._._._._._._._.
 72
   65
 73
    4
 40
12.7
 49
6.35
 74
    0
 49
-3.175
 74
    0
 49
0
 74
    0
 49
-3.175
 74
    0
  0
LTYPE
  5
3D
330
5
100
AcDbSymbolTableRecord
100
AcDbLinetypeTableRecord
  2
DASHDOTX2
 70
    0
  3
Dash dot (2x) ____  .  ____  .  ____  .  ___
 72
   65
 73
    4
 40
50.8
 49
25.4
 74
    0
 49
-12.7
 74
    0
 49
0
 74
    0
 49
-12.7
 74
    0
  0
LTYPE
  5
3E
330
5
100
AcDbSymbolTableRecord
100
AcDbLinetypeTableRecord
  2
DIVIDE
 70
    0
  3
Divide ____ . . ____ . . ____ . . ____ . . ____
 72
   65
 73
    6
 40
31.75
 49
12.7
 74
    0
 49
-6.35
 74
    0
 49
0
 74
    0
 49
-6.35
 74
    0
 49
0
 74
    0
 49
-6.35
 74
    0
  0
LTYPE
  5
3F
330
5
100
AcDbSymbolTableRecord
100
AcDbLinetypeTableRecord
  2
DIVIDETINY
 70
    0
  3
Divide (.15x) __..__..__..__..__..__..__..__.._
 72
   65
 73
    6
 40
4.7625
 49
1.905
 74
    0
 49
-0.9525
 74
    0
 49
0
 74
    0
 49
-0.9525
 74
    0
 49
0
 74
    0
 49
-0.9525
 74
    0
  0
LTYPE
  5
40
330
5
100
AcDbSymbolTableRecord
100
AcDbLinetypeTableRecord
  2
DIVIDE2
 70
    0
  3
Divide (.5x) __..__..__..__..__..__..__..__.._
 72
   65
 73
    6
 40
15.875
 49
6.35
 74
    0
 49
-3.175
 74
    0
 49
0
 74
    0
 49
-3.175
 74
    0
 49
0
 74
    0
 49
-3.175
 74
    0
  0
LTYPE
  5
41
330
5
100
AcDbSymbolTableRecord
100
AcDbLinetypeTableRecord
  2
DIVIDEX2
 70
    0
  3
Divide (2x) ________  .  .  ________  .  .  _
 72
   65
 73
    6
 40
63.5
 49
25.4
 74
    0
 49
-12.7
 74
    0
 49
0
 74
    0
 49
-12.7
 74
    0
 49
0
 74
    0
 49
-12.7
 74
    0
  0
LTYPE
  5
42
330
5
100
AcDbSymbolTableRecord
100
AcDbLinetypeTableRecord
  2
BORDER
 70
    0
  3
Border __ __ . __ __ . __ __ . __ __ . __ __ .
 72
   65
 73
    6
 40
44.45
 49
12.7
 74
    0
 49
-6.35
 74
    0
 49
12.7
 74
    0
 49
-6.35
 74
    0
 49
0
 74
    0
 49
-6.35
 74
    0
  0
LTYPE
  5
43
330
5
100
AcDbSymbolTableRecord
100
AcDbLinetypeTableRecord
  2
BORDERTINY
 70
    0
  3
Border (.15x) __.__.__.__.__.__.__.__.__.__.__.
 72
   65
 73
    6
 40
6.6675
 49
1.905
 74
    0
 49
-0.9525
 74
    0
 49
1.905
 74
    0
 49
-0.9525
 74
    0
 49
0
 74
    0
 49
-0.9525
 74
    0
  0
LTYPE
  5
44
330
5
100
AcDbSymbolTableRecord
100
AcDbLinetypeTableRecord
  2
BORDER2
 70
    0
  3
Border (.5x) __.__.__.__.__.__.__.__.__.__.__.
 72
   65
 73
    6
 40
22.225
 49
6.35
 74
    0
 49
-3.175
 74
    0
 49
6.35
 74
    0
 49
-3.175
 74
    0
 49
0
 74
    0
 49
-3.175
 74
    0
  0
LTYPE
  5
45
330
5
100
AcDbSymbolTableRecord
100
AcDbLinetypeTableRecord
  2
BORDERX2
 70
    0
  3
Border (2x) ____  ____  .  ____  ____  .  ___
 72
   65
 73
    6
 40
88.89999999999999
 49
25.4
 74
    0
 49
-12.7
 74
    0
 49
25.4
 74
    0
 49
-12.7
 74
    0
 49
0
 74
    0
 49
-12.7
 74
    0
  0
LTYPE
  5
46
330
5
100
AcDbSymbolTableRecord
100
AcDbLinetypeTableRecord
  2
CENTER
 70
    0
  3
Center ____ _ ____ _ ____ _ ____ _ ____ _ ____
 72
   65
 73
    4
 40
50.8
 49
31.75
 74
    0
 49
-6.35
 74
    0
 49
6.35
 74
    0
 49
-6.35
 74
    0
  0
LTYPE
  5
47
330
5
100
AcDbSymbolTableRecord
100
AcDbLinetypeTableRecord
  2
CENTERTINY
 70
    0
  3
Center (.15x) ___ _ ___ _ ___ _ ___ _ ___ _ ___
 72
   65
 73
    4
 40
7.619999999999999
 49
4.7625
 74
    0
 49
-0.9525
 74
    0
 49
0.9525
 74
    0
 49
-0.9525
 74
    0
  0
LTYPE
  5
48
330
5
100
AcDbSymbolTableRecord
100
AcDbLinetypeTableRecord
  2
CENTER2
 70
    0
  3
Center (.5x) ___ _ ___ _ ___ _ ___ _ ___ _ ___
 72
   65
 73
    4
 40
28.575
 49
19.05
 74
    0
 49
-3.175
 74
    0
 49
3.175
 74
    0
 49
-3.175
 74
    0
  0
LTYPE
  5
49
330
5
100
AcDbSymbolTableRecord
100
AcDbLinetypeTableRecord
  2
CENTERX2
 70
    0
  3
Center (2x) ________  __  ________  __  _____
 72
   65
 73
    4
 40
101.6
 49
63.5
 74
    0
 49
-12.7
 74
    0
 49
12.7
 74
    0
 49
-12.7
 74
    0
  0
ENDTAB
  0
TABLE
  2
LAYER
  5
2
330
0
100
AcDbSymbolTable
 70
    1
  0
LAYER
  5
4A
330
2
100
AcDbSymbolTableRecord
100
AcDbLayerTableRecord
  2
#_Spielfeldmarkierung
 70
    0
 62
    7
  6
CONTINUOUS
370
   -3
390
F
  0
LAYER
  5
10
330
2
100
AcDbSymbolTableRecord
100
AcDbLayerTableRecord
  2
0
 70
    0
 62
    7
  6
CONTINUOUS
370
    0
390
F
  0
LAYER
  5
4B
330
2
100
AcDbSymbolTableRecord
100
AcDbLayerTableRecord
  2
171-KON-STUTZEN
 70
    0
 62
    7
  6
CONTINUOUS
370
   -3
390
F
  0
LAYER
  5
4C
330
2
100
AcDbSymbolTableRecord
100
AcDbLayerTableRecord
  2
G00-Trainingsplatz
 70
    0
 62
    7
  6
CONTINUOUS
370
   -3
390
F
  0
LAYER
  5
4D
330
2
100
AcDbSymbolTableRecord
100
AcDbLayerTableRecord
  2
G00-fill_Plattenlaufer
 70
    0
 62
    7
  6
CONTINUOUS
370
   -3
390
F
  0
LAYER
  5
4E
330
2
100
AcDbSymbolTableRecord
100
AcDbLayerTableRecord
  2
overview
 70
    0
 62
    7
  6
CONTINUOUS
370
    0
390
F
  0
ENDTAB
  0
TABLE
  2
STYLE
  5
3
330
0
100
AcDbSymbolTable
 70
    3
  0
STYLE
  5
4F
330
2
100
AcDbSymbolTableRecord
100
AcDbTextStyleTableRecord
  2
Standard
 70
    0
 40
0
 41
1
 50
0
 71
    0
 42
1
  3
txt
  4

  0
ENDTAB
  0
TABLE
  2
VIEW
  5
6
330
0
100
AcDbSymbolTable
 70
    0
  0
ENDTAB
  0
TABLE
  2
UCS
  5
7
330
0
100
AcDbSymbolTable
 70
    0
  0
ENDTAB
  0
TABLE
  2
APPID
  5
9
330
0
100
AcDbSymbolTable
 70
    1
  0
APPID
  5
12
330
9
100
AcDbSymbolTableRecord
100
AcDbRegAppTableRecord
  2
ACAD
 70
    0
  0
APPID
  5
50
330
9
100
AcDbSymbolTableRecord
100
AcDbRegAppTableRecord
  2
LibreCad
 70
    0
  0
ENDTAB
  0
TABLE
  2
DIMSTYLE
  5
A
330
0
100
AcDbSymbolTable
 70
    1
100
AcDbDimStyleTable
 71
    1
  0
DIMSTYLE
105
51
330
A
100
AcDbSymbolTableRecord
100
AcDbDimStyleTableRecord
  2
Standard
 70
    0
 40
1
 41
2.5
 42
0.625
 43
0.38
 44
1.25
 45
0
 46
0
 47
0
 48
0
 49
1
140
2.5
141
0.09
142
2.5
143
25.4
144
1
145
0
146
1
147
0.625
148
0
 71
    0
 72
    0
 73
    0
 74
    1
 75
    0
 76
    0
 77
    0
 78
    1
 79
    0
170
    0
171
    2
172
    0
173
    0
174
    0
175
    0
176
    0
177
    0
178
    0
179
    0
271
    2
272
    4
273
    2
274
    2
275
    0
276
    0
277
    2
278
    0
279
    0
280
    0
281
    0
282
    0
283
    1
284
    0
285
    0
286
    0
288
    0
289
    3
340
standard
341

371
   -2
372
   -2
  0
ENDTAB
  0
TABLE
  2
BLOCK_RECORD
  5
1
330
0
100
AcDbSymbolTable
 70
    2
  0
BLOCK_RECORD
  5
1F
330
1
100
AcDbSymbolTableRecord
100
AcDbBlockTableRecord
  2
*Model_Space
 70
    0
280
    1
281
    0
  0
BLOCK_RECORD
  5
1E
330
1
100
AcDbSymbolTableRecord
100
AcDbBlockTableRecord
  2
*Paper_Space
 70
    0
280
    1
281
    0
  0
ENDTAB
  0
ENDSEC
  0
SECTION
  2
BLOCKS
  0
BLOCK
  5
20
330
1F
100
AcDbEntity
  8
0
100
AcDbBlockBegin
  2
*Model_Space
 70
    0
 10
0
 20
0
 30
0
  3
*Model_Space
  1

  0
ENDBLK
  5
21
330
1F
100
AcDbEntity
  8
0
100
AcDbBlockEnd
  0
BLOCK
  5
1C
330
1B
100
AcDbEntity
  8
0
100
AcDbBlockBegin
  2
*Paper_Space
 70
    0
 10
0
 20
0
 30
0
  3
*Paper_Space
  1

  0
ENDBLK
  5
1D
330
1F
100
AcDbEntity
  8
0
100
AcDbBlockEnd
  0
ENDSEC
  0
SECTION
  2
ENTITIES
  0
LINE
  5
52
100
AcDbEntity
  8
#_Spielfeldmarkierung
  6
CONTINUOUS
 62
    7
370
   13
100
AcDbLine
 10
-52.49999999999997
 20
20.15999999999985
 11
-35.99999999976714
 21
20.15999999999985
  0
LINE
  5
53
100
AcDbEntity
  8
#_Spielfeldmarkierung
  6
CONTINUOUS
 62
    7
370
   13
100
AcDbLine
 10
-35.99999999976714
 20
20.15999999999985
 11
-35.99999999976714
 21
0
  0
LINE
  5
54
100
AcDbEntity
  8
#_Spielfeldmarkierung
  6
CONTINUOUS
 62
    7
370
   13
100
AcDbLine
 10
-47.00000000011639
 20
9.159999999999854
 11
-47.00000000011639
 21
0
  0
LINE
  5
55
100
AcDbEntity
  8
#_Spielfeldmarkierung
  6
CONTINUOUS
 62
    7
370
   13
100
AcDbLine
 10
-52.49999999999997
 20
9.159999999999854
 11
-47.00000000011639
 21
9.159999999999854
  0
LINE
  5
56
100
AcDbEntity
  8
#_Spielfeldmarkierung
  6
CONTINUOUS
 62
    7
370
   13
100
AcDbLine
 10
-52.49999999999997
 20
34
 11
-52.49999999999997
 21
0
  0
LINE
  5
57
100
AcDbEntity
  8
#_Spielfeldmarkierung
  6
CONTINUOUS
 62
    7
370
   13
100
AcDbLine
 10
0
 20
34
 11
-52.49999999999997
 21
34
  0
LINE
  5
58
100
AcDbEntity
  8
#_Spielfeldmarkierung
  6
CONTINUOUS
 62
    7
370
   13
100
AcDbLine
 10
0
 20
0
 11
0
 21
34
  0
LINE
  5
59
100
AcDbEntity
  8
#_Spielfeldmarkierung
  6
CONTINUOUS
 62
    7
370
   13
100
AcDbLine
 10
-52.49999999999997
 20
-20.15999999999985
 11
-35.99999999976714
 21
-20.15999999999985
  0
LINE
  5
5A
100
AcDbEntity
  8
#_Spielfeldmarkierung
  6
CONTINUOUS
 62
    7
370
   13
100
AcDbLine
 10
-35.99999999976714
 20
-20.15999999999985
 11
-35.99999999976714
 21
0
  0
LINE
  5
5B
100
AcDbEntity
  8
#_Spielfeldmarkierung
  6
CONTINUOUS
 62
    7
370
   13
100
AcDbLine
 10
-47.00000000011639
 20
-9.159999999999854
 11
-47.00000000011639
 21
0
  0
LINE
  5
5C
100
AcDbEntity
  8
#_Spielfeldmarkierung
  6
CONTINUOUS
 62
    7
370
   13
100
AcDbLine
 10
-52.49999999999997
 20
-9.159999999999854
 11
-47.00000000011639
 21
-9.159999999999854
  0
LINE
  5
5D
100
AcDbEntity
  8
#_Spielfeldmarkierung
  6
CONTINUOUS
 62
    7
370
   13
100
AcDbLine
 10
-52.49999999999997
 20
-34
 11
-52.49999999999997
 21
0
  0
LINE
  5
5E
100
AcDbEntity
  8
#_Spielfeldmarkierung
  6
CONTINUOUS
 62
    7
370
   13
100
AcDbLine
 10
0
 20
-34
 11
-52.49999999999997
 21
-34
  0
LINE
  5
5F
100
AcDbEntity
  8
#_Spielfeldmarkierung
  6
CONTINUOUS
 62
    7
370
   13
100
AcDbLine
 10
0
 20
0
 11
0
 21
-34
  0
LINE
  5
60
100
AcDbEntity
  8
#_Spielfeldmarkierung
  6
CONTINUOUS
 62
    7
370
   13
100
AcDbLine
 10
52.5
 20
20.15999999999985
 11
35.99999999976717
 21
20.15999999999985
  0
LINE
  5
61
100
AcDbEntity
  8
#_Spielfeldmarkierung
  6
CONTINUOUS
 62
    7
370
   13
100
AcDbLine
 10
35.99999999976717
 20
20.15999999999985
 11
35.99999999976717
 21
0
  0
LINE
  5
62
100
AcDbEntity
  8
#_Spielfeldmarkierung
  6
CONTINUOUS
 62
    7
370
   13
100
AcDbLine
 10
47.00000000011642
 20
9.159999999999854
 11
47.00000000011642
 21
0
  0
LINE
  5
63
100
AcDbEntity
  8
#_Spielfeldmarkierung
  6
CONTINUOUS
 62
    7
370
   13
100
AcDbLine
 10
52.5
 20
9.159999999999854
 11
47.00000000011642
 21
9.159999999999854
  0
LINE
  5
64
100
AcDbEntity
  8
#_Spielfeldmarkierung
  6
CONTINUOUS
 62
    7
370
   13
100
AcDbLine
 10
52.61999999987893
 20
3.132000000001426
 11
52.61999999987893
 21
0
  0
LINE
  5
65
100
AcDbEntity
  8
#_Spielfeldmarkierung
  6
CONTINUOUS
 62
    7
370
   13
100
AcDbLine
 10
52.5
 20
34
 11
52.5
 21
0
  0
LINE
  5
66
100
AcDbEntity
  8
#_Spielfeldmarkierung
  6
CONTINUOUS
 62
    7
370
   13
100
AcDbLine
 10
0
 20
34
 11
52.5
 21
34
  0
LINE
  5
67
100
AcDbEntity
  8
#_Spielfeldmarkierung
  6
CONTINUOUS
 62
    7
370
   13
100
AcDbLine
 10
0
 20
0
 11
0
 21
34
  0
LINE
  5
68
100
AcDbEntity
  8
#_Spielfeldmarkierung
  6
CONTINUOUS
 62
    7
370
   13
100
AcDbLine
 10
52.61999999987893
 20
3.132000000001426
 11
52.5
 21
3.132000000001426
  0
LINE
  5
69
100
AcDbEntity
  8
#_Spielfeldmarkierung
  6
CONTINUOUS
 62
    7
370
   13
100
AcDbLine
 10
52.5
 20
-20.15999999999985
 11
35.99999999976717
 21
-20.15999999999985
  0
LINE
  5
6A
100
AcDbEntity
  8
#_Spielfeldmarkierung
  6
CONTINUOUS
 62
    7
370
   13
100
AcDbLine
 10
35.99999999976717
 20
-20.15999999999985
 11
35.99999999976717
 21
0
  0
LINE
  5
6B
100
AcDbEntity
  8
#_Spielfeldmarkierung
  6
CONTINUOUS
 62
    7
370
   13
100
AcDbLine
 10
47.00000000011642
 20
-9.159999999999854
 11
47.00000000011642
 21
0
  0
LINE
  5
6C
100
AcDbEntity
  8
#_Spielfeldmarkierung
  6
CONTINUOUS
 62
    7
370
   13
100
AcDbLine
 10
52.5
 20
-9.159999999999854
 11
47.00000000011642
 21
-9.159999999999854
  0
LINE
  5
6D
100
AcDbEntity
  8
#_Spielfeldmarkierung
  6
CONTINUOUS
 62
    7
370
   13
100
AcDbLine
 10
52.61999999987893
 20
-3.131999999997788
 11
52.61999999987893
 21
0
  0
LINE
  5
6E
100
AcDbEntity
  8
#_Spielfeldmarkierung
  6
CONTINUOUS
 62
    7
370
   13
100
AcDbLine
 10
52.5
 20
-34
 11
52.5
 21
0
  0
LINE
  5
6F
100
AcDbEntity
  8
#_Spielfeldmarkierung
  6
CONTINUOUS
 62
    7
370
   13
100
AcDbLine
 10
0
 20
0
 11
0
 21
-34
  0
LINE
  5
70
100
AcDbEntity
  8
#_Spielfeldmarkierung
  6
CONTINUOUS
 62
    7
370
   13
100
AcDbLine
 10
52.61999999987893
 20
-3.131999999997788
 11
52.5
 21
-3.131999999997788
  0
LWPOLYLINE
  5
71
100
AcDbEntity
  8
G00-Trainingsplatz
  6
CONTINUOUS
 62
   72
370
   13
100
AcDbPolyline
 90
    2
 70
    0
 43
0
 10
33.03791360404846
 20
146.0809894427657
 10
33.31081020586696
 20
84.49448550865054
  0
ARC
  5
72
100
AcDbEntity
  8
G00-Trainingsplatz
  6
CONTINUOUS
 62
   72
370
   13
100
AcDbCircle
 10
-4.974491189824974
 20
115.1470446772873
 40
9.150000002710948
100
AcDbArc
 50
307.1688314510499
 51
53.27240993966681
  0
ARC
  5
73
100
AcDbEntity
  8
G00-Trainingsplatz
  6
CONTINUOUS
 62
   72
370
   13
100
AcDbCircle
 10
71.30270916443821
 20
115.4434437006712
 40
9.150000002913302
100
AcDbArc
 50
127.1703273237551
 51
233.2739058397343
  0
ARC
  5
74
100
AcDbEntity
  8
#_Spielfeldmarkierung
  6
CONTINUOUS
 62
    7
370
   13
100
AcDbCircle
 10
-41.5000000002328
 20
0
 40
0.1499999999978172
100
AcDbArc
 50
0
 51
180
  0
ARC
  5
75
100
AcDbEntity
  8
#_Spielfeldmarkierung
  6
CONTINUOUS
 62
    7
370
   13
100
AcDbCircle
 10
-41.5000000002328
 20
0
 40
9.149999999997817
100
AcDbArc
 50
0
 51
53.05178926686698
  0
ARC
  5
76
100
AcDbEntity
  8
#_Spielfeldmarkierung
  6
CONTINUOUS
 62
    7
370
   13
100
AcDbCircle
 10
0
 20
0
 40
9.150000000001455
100
AcDbArc
 50
90
 51
180
  0
ARC
  5
77
100
AcDbEntity
  8
#_Spielfeldmarkierung
  6
CONTINUOUS
 62
    7
370
   13
100
AcDbCircle
 10
-41.5000000002328
 20
0
 40
0.1499999999978172
100
AcDbArc
 50
180
 51
0
  0
ARC
  5
78
100
AcDbEntity
  8
#_Spielfeldmarkierung
  6
CONTINUOUS
 62
    7
370
   13
100
AcDbCircle
 10
-41.5000000002328
 20
0
 40
9.149999999999768
100
AcDbArc
 50
306.948210733051
 51
0
  0
ARC
  5
79
100
AcDbEntity
  8
#_Spielfeldmarkierung
  6
CONTINUOUS
 62
    7
370
   13
100
AcDbCircle
 10
0
 20
0
 40
9.149999999997817
100
AcDbArc
 50
180
 51
270
  0
ARC
  5
7A
100
AcDbEntity
  8
#_Spielfeldmarkierung
  6
CONTINUOUS
 62
    7
370
   13
100
AcDbCircle
 10
41.50000000023283
 20
0
 40
0.1499999999978172
100
AcDbArc
 50
0
 51
180
  0
ARC
  5
7B
100
AcDbEntity
  8
#_Spielfeldmarkierung
  6
CONTINUOUS
 62
    7
370
   13
100
AcDbCircle
 10
41.50000000023283
 20
0
 40
9.149999999999768
100
AcDbArc
 50
126.948210733051
 51
180
  0
ARC
  5
7C
100
AcDbEntity
  8
#_Spielfeldmarkierung
  6
CONTINUOUS
 62
    7
370
   13
100
AcDbCircle
 10
52.5
 20
34
 40
0.8999999999978172
100
AcDbArc
 50
180
 51
270
  0
ARC
  5
7D
100
AcDbEntity
  8
#_Spielfeldmarkierung
  6
CONTINUOUS
 62
    7
370
   13
100
AcDbCircle
 10
0
 20
0
 40
9.149999999997817
100
AcDbArc
 50
0
 51
90
  0
ARC
  5
7E
100
AcDbEntity
  8
#_Spielfeldmarkierung
  6
CONTINUOUS
 62
    7
370
   13
100
AcDbCircle
 10
41.50000000023283
 20
0
 40
0.1499999999978172
100
AcDbArc
 50
180
 51
0
  0
ARC
  5
7F
100
AcDbEntity
  8
#_Spielfeldmarkierung
  6
CONTINUOUS
 62
    7
370
   13
100
AcDbCircle
 10
41.50000000023283
 20
0
 40
9.149999999997817
100
AcDbArc
 50
180
 51
233.051789266867
  0
ARC
  5
80
100
AcDbEntity
  8
#_Spielfeldmarkierung
  6
CONTINUOUS
 62
    7
370
   13
100
AcDbCircle
 10
0
 20
0
 40
9.150000000001455
100
AcDbArc
 50
270
 51
0
  0
LINE
  5
81
100
AcDbEntity
  8
#_Spielfeldmarkierung
  6
CONTINUOUS
 62
    7
370
   13
100
AcDbLine
 10
0
 20
-34
 11
52.5
 21
-34
  0
LINE
  5
82
100
AcDbEntity
  8
overview
  6
CONTINUOUS
 62
  252
370
   13
100
AcDbLine
 10
78.85209435856238
 20
-32.48623331031922
 11
77.89359267687693
 21
-39.76854901715342
  0
LINE
  5
83
100
AcDbEntity
  8
overview
  6
CONTINUOUS
 62
  252
370
   13
100
AcDbLine
 10
77.89359267687693
 20
-39.76854901715342
 11
75.33364950007096
 21
-45.9493492129368
  0
LINE
  5
84
100
AcDbEntity
  8
overview
  6
CONTINUOUS
 62
  252
370
   13
100
AcDbLine
 10
75.33364950007096
 20
-45.9493492129368
 11
71.26122521961376
 21
-51.25698203268621
  0
LINE
  5
85
100
AcDbEntity
  8
overview
  6
CONTINUOUS
 62
  252
370
   13
100
AcDbLine
 10
65.95384897364572
 20
-55.32974068775002
 11
71.26122521961376
 21
-51.25698203268621
  0
LINE
  5
86
100
AcDbEntity
  8
overview
  6
CONTINUOUS
 62
  252
370
   13
100
AcDbLine
 10
59.77321005871788
 20
-57.89007325145576
 11
65.95384897364572
 21
-55.32974068775002
  0
LINE
  5
87
100
AcDbEntity
  8
overview
  6
CONTINUOUS
 62
  252
370
   13
100
AcDbLine
 10
52.49095538703993
 20
-58.84903351544563
 11
59.77321005871788
 21
-57.89007325145576
  0
LINE
  5
88
100
AcDbEntity
  8
overview
  6
CONTINUOUS
 62
  252
370
   13
100
AcDbLine
 10
78.85209435856238
 20
-32.48623331031922
 11
78.85004760770396
 21
32.48982711926874
  0
LINE
  5
89
100
AcDbEntity
  8
overview
  6
CONTINUOUS
 62
  252
370
   13
100
AcDbLine
 10
52.4872478049089
 20
58.85096651733693
 11
59.76956290172681
 21
57.89246503681716
  0
LINE
  5
8A
100
AcDbEntity
  8
overview
  6
CONTINUOUS
 62
  252
370
   13
100
AcDbLine
 10
59.76956290172681
 20
57.89246503681716
 11
65.95036310589209
 21
55.33252185907986
  0
LINE
  5
8B
100
AcDbEntity
  8
overview
  6
CONTINUOUS
 62
  252
370
   13
100
AcDbLine
 10
75.33075457977399
 20
45.9527213317233
 11
71.25799592657283
 21
51.26009757676002
  0
LINE
  5
8C
100
AcDbEntity
  8
overview
  6
CONTINUOUS
 62
  252
370
   13
100
AcDbLine
 10
77.89108714161709
 20
39.77208242424604
 11
75.33075457977399
 21
45.9527213317233
  0
LINE
  5
8D
100
AcDbEntity
  8
overview
  6
CONTINUOUS
 62
  252
370
   13
100
AcDbLine
 10
52.4872478049089
 20
58.85096651733693
 11
-52.48881294319139
 21
58.84765976619747
  0
LINE
  5
8E
100
AcDbEntity
  8
overview
  6
CONTINUOUS
 62
  252
370
   13
100
AcDbLine
 10
-78.84995231145726
 20
32.48485955920842
 11
-77.89145062977181
 21
39.76717526417997
  0
LINE
  5
8F
100
AcDbEntity
  8
overview
  6
CONTINUOUS
 62
  252
370
   13
100
AcDbLine
 10
-77.89145062977181
 20
39.76717526417997
 11
-75.33150745389716
 21
45.94797546089467
  0
LINE
  5
90
100
AcDbEntity
  8
overview
  6
CONTINUOUS
 62
  252
370
   13
100
AcDbLine
 10
-75.33150745389716
 20
45.94797546089467
 11
-71.25908317343996
 21
51.25560827971276
  0
LINE
  5
91
100
AcDbEntity
  8
overview
  6
CONTINUOUS
 62
  252
370
   13
100
AcDbLine
 10
-65.95170692840324
 20
55.32836693570789
 11
-71.25908317343996
 21
51.25560827971276
  0
LINE
  5
92
100
AcDbEntity
  8
overview
  6
CONTINUOUS
 62
  252
370
   13
100
AcDbLine
 10
-59.77106801068143
 20
57.88869950034496
 11
-65.95170692840324
 21
55.32836693570789
  0
LINE
  5
93
100
AcDbEntity
  8
overview
  6
CONTINUOUS
 62
  252
370
   13
100
AcDbLine
 10
-52.48881294319139
 20
58.84765976619747
 11
-59.77106801068143
 21
57.88869950034496
  0
LINE
  5
94
100
AcDbEntity
  8
overview
  6
CONTINUOUS
 62
  252
370
   13
100
AcDbLine
 10
-78.84790556246148
 20
-32.49120087131087
 11
-78.84995231145726
 21
32.48485955920842
  0
LINE
  5
95
100
AcDbEntity
  8
overview
  6
CONTINUOUS
 62
  252
370
   13
100
AcDbLine
 10
-78.84790556246148
 20
-32.49120087131087
 11
-77.88894509544329
 21
-39.77345617442552
  0
LINE
  5
96
100
AcDbEntity
  8
overview
  6
CONTINUOUS
 62
  252
370
   13
100
AcDbLine
 10
-77.88894509544329
 20
-39.77345617442552
 11
-75.32861253360019
 21
-45.95409508376542
  0
LINE
  5
97
100
AcDbEntity
  8
overview
  6
CONTINUOUS
 62
  252
370
   13
100
AcDbLine
 10
-75.32861253360019
 20
-45.95409508376542
 11
-71.25585388039903
 21
-51.26147132880214
  0
LINE
  5
98
100
AcDbEntity
  8
overview
  6
CONTINUOUS
 62
  252
370
   13
100
AcDbLine
 10
-65.94822106064962
 20
-55.33389561112199
 11
-71.25585388039903
 21
-51.26147132880214
  0
LINE
  5
99
100
AcDbEntity
  8
overview
  6
CONTINUOUS
 62
  252
370
   13
100
AcDbLine
 10
-59.76742085369037
 20
-57.89383878885928
 11
-65.94822106064962
 21
-55.33389561112199
  0
LINE
  5
9A
100
AcDbEntity
  8
overview
  6
CONTINUOUS
 62
  252
370
   13
100
AcDbLine
 10
-52.4851057587351
 20
-58.85234022095028
 11
-59.76742085369037
 21
-57.89383878885928
  0
LINE
  5
9B
100
AcDbEntity
  8
overview
  6
CONTINUOUS
 62
  252
370
   13
100
AcDbLine
 10
-53.93479306736694
 20
-80.9809750779641
 11
-51.12900813130395
 21
-38.15229749354694
  0
LINE
  5
9C
100
AcDbEntity
  8
overview
  6
CONTINUOUS
 62
  252
370
   13
100
AcDbLine
 10
53.94203676821932
 20
-80.97757695197288
 11
51.13355367889896
 21
-38.14907621639941
  0
LINE
  5
9D
100
AcDbEntity
  8
overview
  6
CONTINUOUS
 62
  252
370
   13
100
AcDbLine
 10
65.95036310589209
 20
55.33252185907986
 11
71.25799592657283
 21
51.26009757676002
  0
LINE
  5
9E
100
AcDbEntity
  8
overview
  6
CONTINUOUS
 62
  252
370
   13
100
AcDbLine
 10
78.85004760770396
 20
32.48982711926874
 11
77.89108714161709
 21
39.77208242424604
  0
LINE
  5
9F
100
AcDbEntity
  8
overview
  6
ByLayer
 62
  256
370
   -1
100
AcDbLine
 10
-80
 20
82
 11
-64
 21
82
  0
LINE
  5
A0
100
AcDbEntity
  8
overview
  6
ByLayer
 62
  256
370
   -1
100
AcDbLine
 10
-64
 20
82
 11
-64
 21
154
  0
LINE
  5
A1
100
AcDbEntity
  8
overview
  6
ByLayer
 62
  256
370
   -1
100
AcDbLine
 10
-64
 20
154
 11
-80
 21
154
  0
LINE
  5
A2
100
AcDbEntity
  8
overview
  6
ByLayer
 62
  256
370
   -1
100
AcDbLine
 10
-80
 20
154
 11
-80
 21
82
  0
LINE
  5
A3
100
AcDbEntity
  8
overview
  6
ByLayer
 62
  256
370
   -1
100
AcDbLine
 10
126
 20
6
 11
129
 21
6
  0
LINE
  5
A4
100
AcDbEntity
  8
overview
  6
ByLayer
 62
  256
370
   -1
100
AcDbLine
 10
129
 20
6
 11
129
 21
-6
  0
LINE
  5
A5
100
AcDbEntity
  8
overview
  6
ByLayer
 62
  256
370
   -1
100
AcDbLine
 10
129
 20
-6
 11
126
 21
-6
  0
LINE
  5
A6
100
AcDbEntity
  8
overview
  6
ByLayer
 62
  256
370
   -1
100
AcDbLine
 10
126
 20
-6
 11
126
 21
6
  0
LINE
  5
A7
100
AcDbEntity
  8
overview
  6
ByLayer
 62
  256
370
   -1
100
AcDbLine
 10
130
 20
-80
 11
130
 21
80
  0
LINE
  5
A8
100
AcDbEntity
  8
overview
  6
ByLayer
 62
  256
370
   -1
100
AcDbLine
 10
130
 20
80
 11
110
 21
80
  0
LINE
  5
A9
100
AcDbEntity
  8
overview
  6
ByLayer
 62
  256
370
   -1
100
AcDbLine
 10
110
 20
80
 11
110
 21
160
  0
LINE
  5
AA
100
AcDbEntity
  8
overview
  6
ByLayer
 62
  256
370
   -1
100
AcDbLine
 10
110
 20
160
 11
-160
 21
160
  0
LINE
  5
AB
100
AcDbEntity
  8
overview
  6
ByLayer
 62
  256
370
   -1
100
AcDbLine
 10
-160
 20
160
 11
-160
 21
-80
  0
LINE
  5
AC
100
AcDbEntity
  8
overview
  6
ByLayer
 62
  256
370
   -1
100
AcDbLine
 10
-160
 20
-80
 11
130
 21
-80
  0
LINE
  5
AD
100
AcDbEntity
  8
overview
  6
ByLayer
 62
  256
370
   -1
100
AcDbLine
 10
-160
 20
-80
 11
-260
 21
-80
  0
LINE
  5
AE
100
AcDbEntity
  8
overview
  6
ByLayer
 62
  256
370
   -1
100
AcDbLine
 10
-260
 20
-100
 11
290
 21
-100
  0
LINE
  5
AF
100
AcDbEntity
  8
G00-fill_Plattenlaufer
  6
ByLayer
 62
  256
370
   -1
100
AcDbLine
 10
-140
 20
60
 11
-140
 21
-60
  0
LINE
  5
B0
100
AcDbEntity
  8
G00-fill_Plattenlaufer
  6
ByLayer
 62
  256
370
   -1
100
AcDbLine
 10
-80
 20
154
 11
-160
 21
154
  0
LINE
  5
B1
100
AcDbEntity
  8
G00-fill_Plattenlaufer
  6
ByLayer
 62
  256
370
   -1
100
AcDbLine
 10
-64
 20
154
 11
104
 21
154
  0
LINE
  5
B2
100
AcDbEntity
  8
G00-fill_Plattenlaufer
  6
ByLayer
 62
  256
370
   -1
100
AcDbLine
 10
104
 20
154
 11
104
 21
80
  0
LINE
  5
B3
100
AcDbEntity
  8
G00-fill_Plattenlaufer
  6
ByLayer
 62
  256
370
   -1
100
AcDbLine
 10
104
 20
80
 11
110
 21
80
  0
LINE
  5
B4
100
AcDbEntity
  8
G00-fill_Plattenlaufer
  6
ByLayer
 62
  256
370
   -1
100
AcDbLine
 10
121
 20
80
 11
121
 21
-80
  0
LINE
  5
B5
100
AcDbEntity
  8
overview
  6
ByLayer
 62
  256
370
   -1
100
AcDbLine
 10
-125
 20
60
 11
-125
 21
-60
  0
LINE
  5
B6
100
AcDbEntity
  8
overview
  6
ByLayer
 62
  256
370
   -1
100
AcDbLine
 10
-154
 20
60
 11
-154
 21
-60
  0
LINE
  5
B7
100
AcDbEntity
  8
overview
  6
ByLayer
 62
  256
370
   -1
100
AcDbLine
 10
-154
 20
60
 11
-125
 21
60
  0
LINE
  5
B8
100
AcDbEntity
  8
overview
  6
ByLayer
 62
  256
370
   -1
100
AcDbLine
 10
-154
 20
-60
 11
-125
 21
-60
  0
LINE
  5
B9
100
AcDbEntity
  8
overview
  6
ByLayer
 62
  256
370
   -1
100
AcDbLine
 10
130
 20
-80
 11
290
 21
-80
  0
LINE
  5
BA
100
AcDbEntity
  8
overview
  6
ByLayer
 62
  256
370
   -1
100
AcDbLine
 10
-80
 20
82
 11
-116
 21
82
  0
LINE
  5
BB
100
AcDbEntity
  8
overview
  6
ByLayer
 62
  256
370
   -1
100
AcDbLine
 10
-116
 20
82
 11
-116
 21
100
  0
LINE
  5
BC
100
AcDbEntity
  8
overview
  6
ByLayer
 62
  256
370
   -1
100
AcDbLine
 10
-116
 20
100
 11
-80
 21
100
  0
CIRCLE
  5
BD
100
AcDbEntity
  8
171-KON-STUTZEN
  6
CONTINUOUS
 62
    7
370
   13
100
AcDbCircle
 10
-90.99719994000353
 20
-33.28444167802786
 40
0.3999998722420802
  0
CIRCLE
  5
BE
100
AcDbEntity
  8
171-KON-STUTZEN
  6
CONTINUOUS
 62
    7
370
   13
100
AcDbCircle
 10
-90.99720004233259
 20
-24.00006134271075
 40
0.3999998722420802
  0
CIRCLE
  5
BF
100
AcDbEntity
  8
171-KON-STUTZEN
  6
CONTINUOUS
 62
    7
370
   13
100
AcDbCircle
 10
-90.99720004227439
 20
-16.00006389786699
 40
0.3999998722420802
  0
CIRCLE
  5
C0
100
AcDbEntity
  8
171-KON-STUTZEN
  6
CONTINUOUS
 62
    7
370
   13
100
AcDbCircle
 10
-90.99720004035353
 20
-8.000066453023237
 40
0.3999998722420802
  0
CIRCLE
  5
C1
100
AcDbEntity
  8
171-KON-STUTZEN
  6
CONTINUOUS
 62
    7
370
   13
100
AcDbCircle
 10
-90.99720004154679
 20
-6.90081942594e-05
 40
0.3999998722420802
  0
CIRCLE
  5
C2
100
AcDbEntity
  8
171-KON-STUTZEN
  6
CONTINUOUS
 62
    7
370
   13
100
AcDbCircle
 10
-90.997200041605
 20
7.999928436882328
 40
0.3999998722420802
  0
CIRCLE
  5
C3
100
AcDbEntity
  8
171-KON-STUTZEN
  6
CONTINUOUS
 62
    7
370
   13
100
AcDbCircle
 10
-90.99720004003339
 20
15.99992588172609
 40
0.3999998722420802
  0
CIRCLE
  5
C4
100
AcDbEntity
  8
171-KON-STUTZEN
  6
CONTINUOUS
 62
    7
370
   13
100
AcDbCircle
 10
-90.99720003997518
 20
23.99992332656984
 40
0.3999998722420802
  0
CIRCLE
  5
C5
100
AcDbEntity
  8
171-KON-STUTZEN
  6
CONTINUOUS
 62
    7
370
   13
100
AcDbCircle
 10
-43.99721505111975
 20
70.99990831354808
 40
0.3999998722420802
  0
CIRCLE
  5
C6
100
AcDbEntity
  8
171-KON-STUTZEN
  6
CONTINUOUS
 62
    7
370
   13
100
AcDbCircle
 10
-35.99721760626144
 20
70.99990831354808
 40
0.3999998722420802
  0
CIRCLE
  5
C7
100
AcDbEntity
  8
171-KON-STUTZEN
  6
CONTINUOUS
 62
    7
370
   13
100
AcDbCircle
 10
-27.99722016143224
 20
70.99990831354808
 40
0.3999998722420802
  0
CIRCLE
  5
C8
100
AcDbEntity
  8
171-KON-STUTZEN
  6
CONTINUOUS
 62
    7
370
   13
100
AcDbCircle
 10
-19.99722271657394
 20
70.99990831354808
 40
0.3999998722420802
  0
CIRCLE
  5
C9
100
AcDbEntity
  8
171-KON-STUTZEN
  6
CONTINUOUS
 62
    7
370
   13
100
AcDbCircle
 10
-11.99722527174474
 20
70.99990831354808
 40
0.3999998722420802
  0
CIRCLE
  5
CA
100
AcDbEntity
  8
171-KON-STUTZEN
  6
CONTINUOUS
 62
    7
370
   13
100
AcDbCircle
 10
-3.997227826915562
 20
70.99990831354808
 40
0.3999998722420802
  0
CIRCLE
  5
CB
100
AcDbEntity
  8
171-KON-STUTZEN
  6
CONTINUOUS
 62
    7
370
   13
100
AcDbCircle
 10
4.002769617942747
 20
70.99990831354808
 40
0.3999998722420802
  0
CIRCLE
  5
CC
100
AcDbEntity
  8
171-KON-STUTZEN
  6
CONTINUOUS
 62
    7
370
   13
100
AcDbCircle
 10
12.00276706277195
 20
70.99990831354808
 40
0.3999998722420802
  0
CIRCLE
  5
CD
100
AcDbEntity
  8
171-KON-STUTZEN
  6
CONTINUOUS
 62
    7
370
   13
100
AcDbCircle
 10
20.00276450763026
 20
70.99990831354808
 40
0.3999998722420802
  0
CIRCLE
  5
CE
100
AcDbEntity
  8
171-KON-STUTZEN
  6
CONTINUOUS
 62
    7
370
   13
100
AcDbCircle
 10
28.00276195245947
 20
70.99990831354808
 40
0.3999998722420802
  0
CIRCLE
  5
CF
100
AcDbEntity
  8
171-KON-STUTZEN
  6
CONTINUOUS
 62
    7
370
   13
100
AcDbCircle
 10
36.00275939731777
 20
70.99990831354808
 40
0.3999998722420802
  0
CIRCLE
  5
D0
100
AcDbEntity
  8
171-KON-STUTZEN
  6
CONTINUOUS
 62
    7
370
   13
100
AcDbCircle
 10
44.00275684214698
 20
70.99990831354808
 40
0.3999998722420802
  0
CIRCLE
  5
D1
100
AcDbEntity
  8
171-KON-STUTZEN
  6
CONTINUOUS
 62
    7
370
   13
100
AcDbCircle
 10
53.28713548069622
 20
70.99987504993624
 40
0.3999998722420802
  0
CIRCLE
  5
D2
100
AcDbEntity
  8
171-KON-STUTZEN
  6
CONTINUOUS
 62
    7
370
   13
100
AcDbCircle
 10
91.00274183074048
 20
26.65034023397311
 40
0.3999998722420802
  0
CIRCLE
  5
D3
100
AcDbEntity
  8
171-KON-STUTZEN
  6
CONTINUOUS
 62
    7
370
   13
100
AcDbCircle
 10
91.00274183053675
 20
19.99992460412614
 40
0.3999998722420802
  0
CIRCLE
  5
D4
100
AcDbEntity
  8
171-KON-STUTZEN
  6
CONTINUOUS
 62
    7
370
   13
100
AcDbCircle
 10
91.00274183033302
 20
11.99992715928238
 40
0.3999998722420802
  0
CIRCLE
  5
D5
100
AcDbEntity
  8
171-KON-STUTZEN
  6
CONTINUOUS
 62
    7
370
   13
100
AcDbCircle
 10
91.0027418301293
 20
3.999929714438622
 40
0.3999998722420802
  0
CIRCLE
  5
D6
100
AcDbEntity
  8
171-KON-STUTZEN
  6
CONTINUOUS
 62
    7
370
   13
100
AcDbCircle
 10
91.00274182989646
 20
-4.000067730623414
 40
0.3999998722420802
  0
CIRCLE
  5
D7
100
AcDbEntity
  8
171-KON-STUTZEN
  6
CONTINUOUS
 62
    7
370
   13
100
AcDbCircle
 10
91.00274182972184
 20
-12.00006517546694
 40
0.3999998722420802
  0
CIRCLE
  5
D8
100
AcDbEntity
  8
171-KON-STUTZEN
  6
CONTINUOUS
 62
    7
370
   13
100
AcDbCircle
 10
91.00274182951811
 20
-20.0000626203107
 40
0.3999998722420802
  0
CIRCLE
  5
D9
100
AcDbEntity
  8
171-KON-STUTZEN
  6
CONTINUOUS
 62
    7
370
   13
100
AcDbCircle
 10
91.00274182931439
 20
-26.65041191526666
 40
0.3999998722420802
  0
CIRCLE
  5
DA
100
AcDbEntity
  8
171-KON-STUTZEN
  6
CONTINUOUS
 62
    7
370
   13
100
AcDbCircle
 10
91.00274182931439
 20
-33.28444168221881
 40
0.3999998722420802
  0
CIRCLE
  5
DB
100
AcDbEntity
  8
171-KON-STUTZEN
  6
CONTINUOUS
 62
    7
370
   13
100
AcDbCircle
 10
91.00274183059496
 20
33.28430366820248
 40
0.3999998722420802
  0
CIRCLE
  5
DC
100
AcDbEntity
  8
171-KON-STUTZEN
  6
CONTINUOUS
 62
    7
370
   13
100
AcDbCircle
 10
-90.99720003956773
 20
33.28430366820248
 40
0.3999998722420802
  0
CIRCLE
  5
DD
100
AcDbEntity
  8
171-KON-STUTZEN
  6
CONTINUOUS
 62
    7
370
   13
100
AcDbCircle
 10
-53.2815936897272
 20
70.99987504993624
 40
0.3999998722420802
  0
CIRCLE
  5
DE
100
AcDbEntity
  8
171-KON-STUTZEN
  6
CONTINUOUS
 62
    7
370
   13
100
AcDbCircle
 10
-89.72573867245538
 20
-42.9421581431086
 40
0.3999998722420802
  0
CIRCLE
  5
DF
100
AcDbEntity
  8
171-KON-STUTZEN
  6
CONTINUOUS
 62
    7
370
   13
100
AcDbCircle
 10
-85.94133684630233
 20
-52.07850868150103
 40
0.3999998722420802
  0
CIRCLE
  5
E0
100
AcDbEntity
  8
171-KON-STUTZEN
  6
CONTINUOUS
 62
    7
370
   13
100
AcDbCircle
 10
-79.92122485401651
 20
-59.92407139732654
 40
0.3999998722420802
  0
CIRCLE
  5
E1
100
AcDbEntity
  8
171-KON-STUTZEN
  6
CONTINUOUS
 62
    7
370
   13
100
AcDbCircle
 10
-72.07566199268641
 20
-65.94418349880993
 40
0.3999998722420802
  0
CIRCLE
  5
E2
100
AcDbEntity
  8
171-KON-STUTZEN
  6
CONTINUOUS
 62
    7
370
   13
100
AcDbCircle
 10
-62.93931093102165
 20
-69.72858403019177
 40
0.3999998722420802
  0
CIRCLE
  5
E3
100
AcDbEntity
  8
171-KON-STUTZEN
  6
CONTINUOUS
 62
    7
370
   13
100
AcDbCircle
 10
89.73128060644062
 20
-42.94215779790807
 40
0.3999998722420802
  0
CIRCLE
  5
E4
100
AcDbEntity
  8
171-KON-STUTZEN
  6
CONTINUOUS
 62
    7
370
   13
100
AcDbCircle
 10
85.94687863732956
 20
-52.07850868150103
 40
0.3999998722420802
  0
CIRCLE
  5
E5
100
AcDbEntity
  8
171-KON-STUTZEN
  6
CONTINUOUS
 62
    7
370
   13
100
AcDbCircle
 10
79.92676664501464
 20
-59.92407139732654
 40
0.3999998722420802
  0
CIRCLE
  5
E6
100
AcDbEntity
  8
171-KON-STUTZEN
  6
CONTINUOUS
 62
    7
370
   13
100
AcDbCircle
 10
72.08120378374274
 20
-65.94418349880993
 40
0.3999998722420802
  0
CIRCLE
  5
E7
100
AcDbEntity
  8
171-KON-STUTZEN
  6
CONTINUOUS
 62
    7
370
   13
100
AcDbCircle
 10
62.94485272201977
 20
-69.72858403019177
 40
0.3999998722420802
  0
CIRCLE
  5
E8
100
AcDbEntity
  8
171-KON-STUTZEN
  6
CONTINUOUS
 62
    7
370
   13
100
AcDbCircle
 10
91.00274182931439
 20
33.28430366587418
 40
0.3999998722420802
  0
CIRCLE
  5
E9
100
AcDbEntity
  8
171-KON-STUTZEN
  6
CONTINUOUS
 62
    7
370
   13
100
AcDbCircle
 10
89.73128060644062
 20
42.94201978156343
 40
0.3999998722420802
  0
CIRCLE
  5
EA
100
AcDbEntity
  8
171-KON-STUTZEN
  6
CONTINUOUS
 62
    7
370
   13
100
AcDbCircle
 10
85.94687863732956
 20
52.0783706651564
 40
0.3999998722420802
  0
CIRCLE
  5
EB
100
AcDbEntity
  8
171-KON-STUTZEN
  6
CONTINUOUS
 62
    7
370
   13
100
AcDbCircle
 10
79.92676664501464
 20
59.92393338098191
 40
0.3999998722420802
  0
CIRCLE
  5
EC
100
AcDbEntity
  8
171-KON-STUTZEN
  6
CONTINUOUS
 62
    7
370
   13
100
AcDbCircle
 10
72.08120378374274
 20
65.9440454824653
 40
0.3999998722420802
  0
CIRCLE
  5
ED
100
AcDbEntity
  8
171-KON-STUTZEN
  6
CONTINUOUS
 62
    7
370
   13
100
AcDbCircle
 10
62.94485272201977
 20
69.72844601384713
 40
0.3999998722420802
  0
CIRCLE
  5
EE
100
AcDbEntity
  8
171-KON-STUTZEN
  6
CONTINUOUS
 62
    7
370
   13
100
AcDbCircle
 10
53.28739393231494
 20
70.99990832104231
 40
0.3999998722420802
  0
CIRCLE
  5
EF
100
AcDbEntity
  8
171-KON-STUTZEN
  6
CONTINUOUS
 62
    7
370
   13
100
AcDbCircle
 10
-53.2815936897272
 20
70.99987504993624
 40
0.3999998722420802
  0
CIRCLE
  5
F0
100
AcDbEntity
  8
171-KON-STUTZEN
  6
CONTINUOUS
 62
    7
370
   13
100
AcDbCircle
 10
-90.99720003956773
 20
33.28430366820248
 40
0.3999998722420802
  0
CIRCLE
  5
F1
100
AcDbEntity
  8
171-KON-STUTZEN
  6
CONTINUOUS
 62
    7
370
   13
100
AcDbCircle
 10
-90.99720003831627
 20
33.28430366587418
 40
0.3999998722420802
  0
CIRCLE
  5
F2
100
AcDbEntity
  8
171-KON-STUTZEN
  6
CONTINUOUS
 62
    7
370
   13
100
AcDbCircle
 10
-89.7257388154716
 20
42.94201978156343
 40
0.3999998722420802
  0
CIRCLE
  5
F3
100
AcDbEntity
  8
171-KON-STUTZEN
  6
CONTINUOUS
 62
    7
370
   13
100
AcDbCircle
 10
-85.94133684630233
 20
52.0783706651564
 40
0.3999998722420802
  0
CIRCLE
  5
F4
100
AcDbEntity
  8
171-KON-STUTZEN
  6
CONTINUOUS
 62
    7
370
   13
100
AcDbCircle
 10
-79.92122485401651
 20
59.92393338098191
 40
0.3999998722420802
  0
CIRCLE
  5
F5
100
AcDbEntity
  8
171-KON-STUTZEN
  6
CONTINUOUS
 62
    7
370
   13
100
AcDbCircle
 10
-72.07566199268641
 20
65.9440454824653
 40
0.3999998722420802
  0
CIRCLE
  5
F6
100
AcDbEntity
  8
171-KON-STUTZEN
  6
CONTINUOUS
 62
    7
370
   13
100
AcDbCircle
 10
-62.93931093102165
 20
69.72844601384713
 40
0.3999998722420802
  0
CIRCLE
  5
F7
100
AcDbEntity
  8
171-KON-STUTZEN
  6
CONTINUOUS
 62
    7
370
   13
100
AcDbCircle
 10
-53.28185214131682
 20
70.99990832104231
 40
0.3999998722420802
  0
CIRCLE
  5
F8
100
AcDbEntity
  8
171-KON-STUTZEN
  6
CONTINUOUS
 62
    7
370
   13
100
AcDbCircle
 10
62.94485272201977
 20
-69.72858403019177
 40
0.3999998722420802
  0
LINE
  5
F9
100
AcDbEntity
  8
G00-fill_Plattenlaufer
  6
ByLayer
 62
  256
370
   -1
100
AcDbLine
 10
-16.08940146643165
 20
145.9042375581339
 11
-15.87789592485372
 21
84.27652491815388
  0
LINE
  5
FA
100
AcDbEntity
  8
G00-Trainingsplatz
  6
CONTINUOUS
 62
   72
370
   13
100
AcDbLine
 10
-16.08940146643165
 20
145.9042375581339
 11
82.16522867452856
 21
146.2577413283288
  0
LINE
  5
FB
100
AcDbEntity
  8
G00-Trainingsplatz
  6
CONTINUOUS
 62
   72
370
   13
100
AcDbLine
 10
82.16522867452856
 20
146.2577413283288
 11
82.45538259424772
 21
84.71225053630769
  0
LINE
  5
FC
100
AcDbEntity
  8
G00-Trainingsplatz
  6
CONTINUOUS
 62
   72
370
   13
100
AcDbLine
 10
82.45538259424772
 20
84.71225053630769
 11
-15.87789592485372
 21
84.27652491815388
  0
LINE
  5
FD
100
AcDbEntity
  8
G00-Trainingsplatz
  6
CONTINUOUS
 62
   72
370
   13
100
AcDbLine
 10
-16.05203668832276
 20
135.2645391970873
 11
0.4478409908389693
 21
135.3280732389539
  0
LINE
  5
FE
100
AcDbEntity
  8
G00-Trainingsplatz
  6
CONTINUOUS
 62
   72
370
   13
100
AcDbLine
 10
0.4478409908389693
 20
135.3280732389539
 11
0.6030950884943849
 21
95.00837214849889
  0
LINE
  5
FF
100
AcDbEntity
  8
G00-Trainingsplatz
  6
CONTINUOUS
 62
   72
370
   13
100
AcDbLine
 10
0.6030950884943849
 20
95.00837214849889
 11
-15.89678258787337
 21
94.94483810197562
  0
LINE
  5
100
100
AcDbEntity
  8
G00-Trainingsplatz
  6
CONTINUOUS
 62
   72
370
   13
100
AcDbLine
 10
-16.00968065823857
 20
124.2646207418293
 11
-10.50972143340353
 21
124.2857987545431
  0
LINE
  5
101
100
AcDbEntity
  8
G00-Trainingsplatz
  6
CONTINUOUS
 62
   72
370
   13
100
AcDbLine
 10
-10.50972143340353
 20
124.2857987545431
 11
-10.43917939125988
 21
105.9659345727414
  0
LINE
  5
102
100
AcDbEntity
  8
G00-Trainingsplatz
  6
CONTINUOUS
 62
   72
370
   13
100
AcDbLine
 10
-10.43917939125988
 20
105.9659345727414
 11
-15.93913861888889
 21
105.944756558165
  0
LINE
  5
103
100
AcDbEntity
  8
G00-Trainingsplatz
  6
CONTINUOUS
 62
   72
370
   13
100
AcDbLine
 10
82.22447313029822
 20
135.6459354273975
 11
65.72459711354729
 21
135.5819706097245
  0
LINE
  5
104
100
AcDbEntity
  8
G00-Trainingsplatz
  6
CONTINUOUS
 62
   72
370
   13
100
AcDbLine
 10
65.72459711354729
 20
135.5819706097245
 11
65.88090386368837
 21
95.26227358728647
  0
LINE
  5
105
100
AcDbEntity
  8
G00-Trainingsplatz
  6
CONTINUOUS
 62
   72
370
   13
100
AcDbLine
 10
65.88090386368837
 20
95.26227358728647
 11
82.38077987578269
 21
95.32623839750886
  0
LINE
  5
106
100
AcDbEntity
  8
G00-Trainingsplatz
  6
CONTINUOUS
 62
   72
370
   13
100
AcDbLine
 10
82.26711633742359
 20
124.6460180804133
 11
76.76715766951945
 21
124.624696476385
  0
LINE
  5
107
100
AcDbEntity
  8
G00-Trainingsplatz
  6
CONTINUOUS
 62
   72
370
   13
100
AcDbLine
 10
76.76715766951945
 20
124.624696476385
 11
76.83817799516525
 21
106.3048341404647
  0
LINE
  5
108
100
AcDbEntity
  8
G00-Trainingsplatz
  6
CONTINUOUS
 62
   72
370
   13
100
AcDbLine
 10
76.83817799516525
 20
106.3048341404647
 11
82.338136667726
 21
106.326155744493
  0
ARC
  5
109
100
AcDbEntity
  8
G00-fill_Plattenlaufer
  6
CONTINUOUS
 62
    7
370
   13
100
AcDbCircle
 10
33.17436190495771
 20
115.2877374757081
 40
9.150000000001455
100
AcDbArc
 50
90
 51
180
  0
ARC
  5
10A
100
AcDbEntity
  8
G00-fill_Plattenlaufer
  6
CONTINUOUS
 62
    7
370
   13
100
AcDbCircle
 10
33.17436190495771
 20
115.2877374757081
 40
9.149999999997817
100
AcDbArc
 50
180
 51
270
  0
ARC
  5
10B
100
AcDbEntity
  8
G00-fill_Plattenlaufer
  6
CONTINUOUS
 62
    7
370
   13
100
AcDbCircle
 10
33.17436190495771
 20
115.2877374757081
 40
9.149999999997817
100
AcDbArc
 50
0
 51
90
  0
ARC
  5
10C
100
AcDbEntity
  8
G00-fill_Plattenlaufer
  6
CONTINUOUS
 62
    7
370
   13
100
AcDbCircle
 10
33.17436190495771
 20
115.2877374757081
 40
9.150000000001455
100
AcDbArc
 50
270
 51
0
  0
ENDSEC
  0
SECTION
  2
OBJECTS
  0
DICTIONARY
  5
C
330
0
100
AcDbDictionary
281
    1
  3
ACAD_GROUP
350
D
  0
DICTIONARY
  5
D
330
C
100
AcDbDictionary
281
    1
  0
ENDSEC
  0
EOF
