999
dxfrw 0.6.3
  0
SECTION
  2
HEADER
  9
$ACADVER
  1
AC1021
  9
$DWGCODEPAGE
  3
ANSI_1252
  9
$INSBASE
 10
0
 20
0
 30
0
  9
$EXTMIN
 10
0
 20
0
 30
0
  9
$EXTMAX
 10
0
 20
0
 30
0
  9
$LIMMIN
 10
0
 20
0
  9
$LIMMAX
 10
420
 20
297
  9
$ORTHOMODE
 70
    0
  9
$REGENMODE
 70
    1
  9
$FILLMODE
 70
    1
  9
$QTEXTMODE
 70
    0
  9
$MIRRTEXT
 70
    0
  9
$LTSCALE
 40
1
  9
$ATTMODE
 70
    0
  9
$TEXTSIZE
 40
2.5
  9
$TRACEWID
 40
15.68
  9
$TEXTSTYLE
  7
STANDARD
  9
$CLAYER
  8
#_Spielfeldmarkierung
  9
$CELTYPE
  6
BYLAYER
  9
$CECOLOR
 62
  256
  9
$CELTSCALE
 40
1
  9
$DISPSILH
 70
    0
  9
$DIMSCALE
 40
2.5
  9
$DIMASZ
 40
2.5
  9
$DIMEXO
 40
0.625
  9
$DIMDLI
 40
3.75
  9
$DIMRND
 40
0
  9
$DIMDLE
 40
0
  9
$DIMEXE
 40
1.25
  9
$DIMTP
 40
0
  9
$DIMTM
 40
0
  9
$DIMTXT
 40
2.5
  9
$DIMCEN
 40
2.5
  9
$DIMTSZ
 40
0
  9
$DIMTOL
 70
    0
  9
$DIMLIM
 70
    0
  9
$DIMTIH
 70
    0
  9
$DIMTOH
 70
    0
  9
$DIMSE1
 70
    0
  9
$DIMSE2
 70
    0
  9
$DIMTAD
 70
    1
  9
$DIMZIN
 70
    8
  9
$DIMBLK
  1

  9
$DIMASO
 70
    1
  9
$DIMSHO
 70
    1
  9
$DIMPOST
  1

  9
$DIMAPOST
  1

  9
$DIMALT
 70
    0
  9
$DIMALTD
 70
    3
  9
$DIMALTF
 40
0.03937
  9
$DIMLFAC
 40
1
  9
$DIMTOFL
 70
    1
  9
$DIMTVP
 40
0
  9
$DIMTIX
 70
    0
  9
$DIMSOXD
 70
    0
  9
$DIMSAH
 70
    0
  9
$DIMBLK1
  1

  9
$DIMBLK2
  1

  9
$DIMSTYLE
  2
STANDARD
  9
$DIMCLRD
 70
    0
  9
$DIMCLRE
 70
    0
  9
$DIMCLRT
 70
    0
  9
$DIMTFAC
 40
1
  9
$DIMGAP
 40
0.625
  9
$DIMJUST
 70
    0
  9
$DIMSD1
 70
    0
  9
$DIMSD2
 70
    0
  9
$DIMTOLJ
 70
    0
  9
$DIMTZIN
 70
    8
  9
$DIMALTZ
 70
    0
  9
$DIMALTTZ
 70
    0
  9
$DIMUPT
 70
    0
  9
$DIMDEC
 70
    2
  9
$DIMTDEC
 70
    2
  9
$DIMALTU
 70
    2
  9
$DIMALTTD
 70
    3
  9
$DIMTXSTY
  7
STANDARD
  9
$DIMAUNIT
 70
    0
  9
$DIMADEC
 70
    0
  9
$DIMALTRND
 40
0
  9
$DIMAZIN
 70
    0
  9
$DIMDSEP
 70
   44
  9
$DIMATFIT
 70
    3
  9
$DIMFRAC
 70
    0
  9
$DIMLDRBLK
  1
STANDARD
  9
$DIMLUNIT
 70
    2
  9
$DIMLWD
 70
   -2
  9
$DIMLWE
 70
   -2
  9
$DIMTMOVE
 70
    0
  9
$DIMFXL
 40
1
  9
$DIMFXLON
 70
    0
  9
$DIMJOGANG
 40
0.7854
  9
$DIMTFILL
 70
    0
  9
$DIMTFILLCLR
 70
    0
  9
$DIMARCSYM
 70
    0
  9
$DIMLTYPE
  6

  9
$DIMLTEX1
  6

  9
$DIMLTEX2
  6

  9
$LUNITS
 70
    2
  9
$LUPREC
 70
    4
  9
$SKETCHINC
 40
1
  9
$FILLETRAD
 40
0
  9
$AUNITS
 70
    0
  9
$AUPREC
 70
    2
  9
$MENU
  1
.
  9
$ELEVATION
 40
0
  9
$PELEVATION
 40
0
  9
$THICKNESS
 40
0
  9
$LIMCHECK
 70
    0
  9
$CHAMFERA
 40
0
  9
$CHAMFERB
 40
0
  9
$CHAMFERC
 40
0
  9
$CHAMFERD
 40
0
  9
$SKPOLY
 70
    0
  9
$USRTIMER
 70
    1
  9
$ANGBASE
 50
0
  9
$ANGDIR
 70
    0
  9
$PDMODE
 70
   34
  9
$PDSIZE
 40
0
  9
$PLINEWID
 40
0
  9
$SPLFRAME
 70
    0
  9
$SPLINETYPE
 70
    2
  9
$SPLINESEGS
 70
    8
  9
$HANDSEED
  5
20000
  9
$SURFTAB1
 70
    6
  9
$SURFTAB2
 70
    6
  9
$SURFTYPE
 70
    6
  9
$SURFU
 70
    6
  9
$SURFV
 70
    6
  9
$UCSBASE
  2

  9
$UCSNAME
  2

  9
$UCSORG
 10
0
 20
0
 30
0
  9
$UCSXDIR
 10
1
 20
0
 30
0
  9
$UCSYDIR
 10
0
 20
1
 30
0
  9
$UCSORTHOREF
  2

  9
$UCSORTHOVIEW
 70
    0
  9
$UCSORGTOP
 10
0
 20
0
 30
0
  9
$UCSORGBOTTOM
 10
0
 20
0
 30
0
  9
$UCSORGLEFT
 10
0
 20
0
 30
0
  9
$UCSORGRIGHT
 10
0
 20
0
 30
0
  9
$UCSORGFRONT
 10
0
 20
0
 30
0
  9
$UCSORGBACK
 10
0
 20
0
 30
0
  9
$PUCSBASE
  2

  9
$PUCSNAME
  2

  9
$PUCSORG
 10
0
 20
0
 30
0
  9
$PUCSXDIR
 10
1
 20
0
 30
0
  9
$PUCSYDIR
 10
0
 20
1
 30
0
  9
$PUCSORTHOREF
  2

  9
$PUCSORTHOVIEW
 70
    0
  9
$PUCSORGTOP
 10
0
 20
0
 30
0
  9
$PUCSORGBOTTOM
 10
0
 20
0
 30
0
  9
$PUCSORGLEFT
 10
0
 20
0
 30
0
  9
$PUCSORGRIGHT
 10
0
 20
0
 30
0
  9
$PUCSORGFRONT
 10
0
 20
0
 30
0
  9
$PUCSORGBACK
 10
0
 20
0
 30
0
  9
$USERI1
 70
    0
  9
$USERI2
 70
    0
  9
$USERI3
 70
    0
  9
$USERI4
 70
    0
  9
$USERI5
 70
    0
  9
$USERR1
 40
0
  9
$USERR2
 40
0
  9
$USERR3
 40
0
  9
$USERR4
 40
0
  9
$USERR5
 40
0
  9
$WORLDVIEW
 70
    1
  9
$SHADEDGE
 70
    3
  9
$SHADEDIF
 70
   70
  9
$TILEMODE
 70
    1
  9
$MAXACTVP
 70
   64
  9
$PINSBASE
 10
0
 20
0
 30
0
  9
$PLIMCHECK
 70
    0
  9
$PEXTMIN
 10
0
 20
0
 30
0
  9
$PEXTMAX
 10
0
 20
0
 30
0
  9
$GRIDMODE
 70
    1
  9
$SNAPSTYLE
 70
    0
  9
$PLIMMIN
 10
0
 20
0
  9
$PLIMMAX
 10
210
 20
297
  9
$UNITMODE
 70
    0
  9
$VISRETAIN
 70
    1
  9
$PLINEGEN
 70
    0
  9
$PSLTSCALE
 70
    1
  9
$TREEDEPTH
 70
 3020
  9
$CMLSTYLE
  2
Standard
  9
$CMLJUST
 70
    0
  9
$CMLSCALE
 40
20
  9
$PROXYGRAPHICS
 70
    1
  9
$MEASUREMENT
 70
    1
  9
$CELWEIGHT
370
   -1
  9
$ENDCAPS
280
    0
  9
$JOINSTYLE
280
    0
  9
$LWDISPLAY
290
    0
  9
$INSUNITS
 70
    4
  9
$HYPERLINKBASE
  1

  9
$STYLESHEET
  1

  9
$XEDIT
290
    1
  9
$CEPSNTYPE
380
    0
  9
$PSTYLEMODE
290
    1
  9
$EXTNAMES
290
    1
  9
$PSVPSCALE
 40
1
  9
$OLESTARTUP
290
    0
  9
$SORTENTS
280
  127
  9
$INDEXCTL
280
    0
  9
$HIDETEXT
280
    1
  9
$XCLIPFRAME
290
    0
  9
$HALOGAP
280
    0
  9
$OBSCOLOR
 70
  257
  9
$OBSLTYPE
280
    0
  9
$INTERSECTIONDISPLAY
280
    0
  9
$INTERSECTIONCOLOR
 70
  257
  9
$DIMASSOC
280
    1
  9
$PROJECTNAME
  1

  9
$CAMERADISPLAY
290
    0
  9
$LENSLENGTH
 40
50
  9
$CAMERAHEIGHT
 40
0
  9
$STEPSPERSEC
 40
2
  9
$STEPSIZE
 40
50
  9
$3DDWFPREC
 40
2
  9
$PSOLWIDTH
 40
5
  9
$PSOLHEIGHT
 40
80
  9
$LOFTANG1
 40
1.570796326794897
  9
$LOFTANG2
 40
1.570796326794897
  9
$LOFTMAG1
 40
0
  9
$LOFTMAG2
 40
0
  9
$LOFTPARAM
 70
    7
  9
$LOFTNORMALS
280
    1
  9
$LATITUDE
 40
1
  9
$LONGITUDE
 40
1
  9
$NORTHDIRECTION
 40
0
  9
$TIMEZONE
 70
-8000
  9
$LIGHTGLYPHDISPLAY
280
    1
  9
$TILEMODELIGHTSYNCH
280
    1
  9
$SOLIDHIST
280
    1
  9
$SHOWHIST
280
    1
  9
$DWFFRAME
280
    2
  9
$DGNFRAME
280
    0
  9
$REALWORLDSCALE
290
    1
  9
$INTERFERECOLOR
 62
    1
  9
$CSHADOW
280
    0
  9
$SHADOWPLANELOCATION
 40
0
  0
ENDSEC
  0
SECTION
  2
CLASSES
  0
ENDSEC
  0
SECTION
  2
TABLES
  0
TABLE
  2
VPORT
  5
8
330
0
100
AcDbSymbolTable
 70
    1
  0
VPORT
  5
31
330
2
100
AcDbSymbolTableRecord
100
AcDbViewportTableRecord
  2
*ACTIVE
 70
    0
 10
0
 20
0
 11
1
 21
1
 12
108.9302058977849
 22
129.5291871412763
 13
0
 23
0
 14
10
 24
10
 15
10
 25
10
 16
0
 26
0
 36
1
 17
0
 27
0
 37
0
 40
441.3069879961541
 41
1.131329113924051
 42
50
 43
0
 44
0
 50
0
 51
0
 71
    0
 72
  100
 73
    1
 74
    3
 75
    0
 76
    1
 77
    0
 78
    0
281
    0
 65
    1
110
0
120
0
130
0
111
1
121
0
131
0
112
0
122
1
132
0
 79
    0
146
0
348
10020
 60
    7
 61
    5
292
1
282
    1
141
0
142
0
 63
  250
421
3358443
  0
ENDTAB
  0
TABLE
  2
LTYPE
  5
5
330
0
100
AcDbSymbolTable
 70
    4
  0
LTYPE
  5
14
330
5
100
AcDbSymbolTableRecord
100
AcDbLinetypeTableRecord
  2
ByBlock
 70
    0
  3

 72
   65
 73
    0
 40
0
  0
LTYPE
  5
15
330
5
100
AcDbSymbolTableRecord
100
AcDbLinetypeTableRecord
  2
ByLayer
 70
    0
  3

 72
   65
 73
    0
 40
0
  0
LTYPE
  5
16
330
5
100
AcDbSymbolTableRecord
100
AcDbLinetypeTableRecord
  2
Continuous
 70
    0
  3
Solid line
 72
   65
 73
    0
 40
0
  0
LTYPE
  5
32
330
5
100
AcDbSymbolTableRecord
100
AcDbLinetypeTableRecord
  2
DOT
 70
    0
  3
Dot . . . . . . . . . . . . . . . . . . . . . .
 72
   65
 73
    2
 40
6.35
 49
0
 74
    0
 49
-6.35
 74
    0
  0
LTYPE
  5
33
330
5
100
AcDbSymbolTableRecord
100
AcDbLinetypeTableRecord
  2
DOTTINY
 70
    0
  3
Dot (.15x) .....................................
 72
   65
 73
    2
 40
0.9525
 49
0
 74
    0
 49
-0.9525
 74
    0
  0
LTYPE
  5
34
330
5
100
AcDbSymbolTableRecord
100
AcDbLinetypeTableRecord
  2
DOT2
 70
    0
  3
Dot (.5x) .....................................
 72
   65
 73
    2
 40
3.175
 49
0
 74
    0
 49
-3.175
 74
    0
  0
LTYPE
  5
35
330
5
100
AcDbSymbolTableRecord
100
AcDbLinetypeTableRecord
  2
DOTX2
 70
    0
  3
Dot (2x) .  .  .  .  .  .  .  .  .  .  .  .  .
 72
   65
 73
    2
 40
12.7
 49
0
 74
    0
 49
-12.7
 74
    0
  0
LTYPE
  5
36
330
5
100
AcDbSymbolTableRecord
100
AcDbLinetypeTableRecord
  2
DASHED
 70
    0
  3
Dashed _ _ _ _ _ _ _ _ _ _ _ _ _ _ _ _ _
 72
   65
 73
    2
 40
19.05
 49
12.7
 74
    0
 49
-6.35
 74
    0
  0
LTYPE
  5
37
330
5
100
AcDbSymbolTableRecord
100
AcDbLinetypeTableRecord
  2
DASHEDTINY
 70
    0
  3
Dashed (.15x) _ _ _ _ _ _ _ _ _ _ _ _ _ _ _ _ _
 72
   65
 73
    2
 40
2.8575
 49
1.905
 74
    0
 49
-0.9525
 74
    0
  0
LTYPE
  5
38
330
5
100
AcDbSymbolTableRecord
100
AcDbLinetypeTableRecord
  2
DASHED2
 70
    0
  3
Dashed (.5x) _ _ _ _ _ _ _ _ _ _ _ _ _ _ _ _ _
 72
   65
 73
    2
 40
9.524999999999999
 49
6.35
 74
    0
 49
-3.175
 74
    0
  0
LTYPE
  5
39
330
5
100
AcDbSymbolTableRecord
100
AcDbLinetypeTableRecord
  2
DASHEDX2
 70
    0
  3
Dashed (2x) ____  ____  ____  ____  ____  ___
 72
   65
 73
    2
 40
38.09999999999999
 49
25.4
 74
    0
 49
-12.7
 74
    0
  0
LTYPE
  5
3A
330
5
100
AcDbSymbolTableRecord
100
AcDbLinetypeTableRecord
  2
DASHDOT
 70
    0
  3
Dash dot __ . __ . __ . __ . __ . __ . __ . __
 72
   65
 73
    4
 40
25.4
 49
12.7
 74
    0
 49
-6.35
 74
    0
 49
0
 74
    0
 49
-6.35
 74
    0
  0
LTYPE
  5
3B
330
5
100
AcDbSymbolTableRecord
100
AcDbLinetypeTableRecord
  2
DASHDOTTINY
 70
    0
  3
Dash dot (.15x) _._._._._._._._._._._._._._._.
 72
   65
 73
    4
 40
3.81
 49
1.905
 74
    0
 49
-0.9525
 74
    0
 49
0
 74
    0
 49
-0.9525
 74
    0
  0
LTYPE
  5
3C
330
5
100
AcDbSymbolTableRecord
100
AcDbLinetypeTableRecord
  2
DASHDOT2
 70
    0
  3
Dash dot (.5x) _._._._._._._._._._._._._._._.
 72
   65
 73
    4
 40
12.7
 49
6.35
 74
    0
 49
-3.175
 74
    0
 49
0
 74
    0
 49
-3.175
 74
    0
  0
LTYPE
  5
3D
330
5
100
AcDbSymbolTableRecord
100
AcDbLinetypeTableRecord
  2
DASHDOTX2
 70
    0
  3
Dash dot (2x) ____  .  ____  .  ____  .  ___
 72
   65
 73
    4
 40
50.8
 49
25.4
 74
    0
 49
-12.7
 74
    0
 49
0
 74
    0
 49
-12.7
 74
    0
  0
LTYPE
  5
3E
330
5
100
AcDbSymbolTableRecord
100
AcDbLinetypeTableRecord
  2
DIVIDE
 70
    0
  3
Divide ____ . . ____ . . ____ . . ____ . . ____
 72
   65
 73
    6
 40
31.75
 49
12.7
 74
    0
 49
-6.35
 74
    0
 49
0
 74
    0
 49
-6.35
 74
    0
 49
0
 74
    0
 49
-6.35
 74
    0
  0
LTYPE
  5
3F
330
5
100
AcDbSymbolTableRecord
100
AcDbLinetypeTableRecord
  2
DIVIDETINY
 70
    0
  3
Divide (.15x) __..__..__..__..__..__..__..__.._
 72
   65
 73
    6
 40
4.7625
 49
1.905
 74
    0
 49
-0.9525
 74
    0
 49
0
 74
    0
 49
-0.9525
 74
    0
 49
0
 74
    0
 49
-0.9525
 74
    0
  0
LTYPE
  5
40
330
5
100
AcDbSymbolTableRecord
100
AcDbLinetypeTableRecord
  2
DIVIDE2
 70
    0
  3
Divide (.5x) __..__..__..__..__..__..__..__.._
 72
   65
 73
    6
 40
15.875
 49
6.35
 74
    0
 49
-3.175
 74
    0
 49
0
 74
    0
 49
-3.175
 74
    0
 49
0
 74
    0
 49
-3.175
 74
    0
  0
LTYPE
  5
41
330
5
100
AcDbSymbolTableRecord
100
AcDbLinetypeTableRecord
  2
DIVIDEX2
 70
    0
  3
Divide (2x) ________  .  .  ________  .  .  _
 72
   65
 73
    6
 40
63.5
 49
25.4
 74
    0
 49
-12.7
 74
    0
 49
0
 74
    0
 49
-12.7
 74
    0
 49
0
 74
    0
 49
-12.7
 74
    0
  0
LTYPE
  5
42
330
5
100
AcDbSymbolTableRecord
100
AcDbLinetypeTableRecord
  2
BORDER
 70
    0
  3
Border __ __ . __ __ . __ __ . __ __ . __ __ .
 72
   65
 73
    6
 40
44.45
 49
12.7
 74
    0
 49
-6.35
 74
    0
 49
12.7
 74
    0
 49
-6.35
 74
    0
 49
0
 74
    0
 49
-6.35
 74
    0
  0
LTYPE
  5
43
330
5
100
AcDbSymbolTableRecord
100
AcDbLinetypeTableRecord
  2
BORDERTINY
 70
    0
  3
Border (.15x) __.__.__.__.__.__.__.__.__.__.__.
 72
   65
 73
    6
 40
6.6675
 49
1.905
 74
    0
 49
-0.9525
 74
    0
 49
1.905
 74
    0
 49
-0.9525
 74
    0
 49
0
 74
    0
 49
-0.9525
 74
    0
  0
LTYPE
  5
44
330
5
100
AcDbSymbolTableRecord
100
AcDbLinetypeTableRecord
  2
BORDER2
 70
    0
  3
Border (.5x) __.__.__.__.__.__.__.__.__.__.__.
 72
   65
 73
    6
 40
22.225
 49
6.35
 74
    0
 49
-3.175
 74
    0
 49
6.35
 74
    0
 49
-3.175
 74
    0
 49
0
 74
    0
 49
-3.175
 74
    0
  0
LTYPE
  5
45
330
5
100
AcDbSymbolTableRecord
100
AcDbLinetypeTableRecord
  2
BORDERX2
 70
    0
  3
Border (2x) ____  ____  .  ____  ____  .  ___
 72
   65
 73
    6
 40
88.89999999999999
 49
25.4
 74
    0
 49
-12.7
 74
    0
 49
25.4
 74
    0
 49
-12.7
 74
    0
 49
0
 74
    0
 49
-12.7
 74
    0
  0
LTYPE
  5
46
330
5
100
AcDbSymbolTableRecord
100
AcDbLinetypeTableRecord
  2
CENTER
 70
    0
  3
Center ____ _ ____ _ ____ _ ____ _ ____ _ ____
 72
   65
 73
    4
 40
50.8
 49
31.75
 74
    0
 49
-6.35
 74
    0
 49
6.35
 74
    0
 49
-6.35
 74
    0
  0
LTYPE
  5
47
330
5
100
AcDbSymbolTableRecord
100
AcDbLinetypeTableRecord
  2
CENTERTINY
 70
    0
  3
Center (.15x) ___ _ ___ _ ___ _ ___ _ ___ _ ___
 72
   65
 73
    4
 40
7.619999999999999
 49
4.7625
 74
    0
 49
-0.9525
 74
    0
 49
0.9525
 74
    0
 49
-0.9525
 74
    0
  0
LTYPE
  5
48
330
5
100
AcDbSymbolTableRecord
100
AcDbLinetypeTableRecord
  2
CENTER2
 70
    0
  3
Center (.5x) ___ _ ___ _ ___ _ ___ _ ___ _ ___
 72
   65
 73
    4
 40
28.575
 49
19.05
 74
    0
 49
-3.175
 74
    0
 49
3.175
 74
    0
 49
-3.175
 74
    0
  0
LTYPE
  5
49
330
5
100
AcDbSymbolTableRecord
100
AcDbLinetypeTableRecord
  2
CENTERX2
 70
    0
  3
Center (2x) ________  __  ________  __  _____
 72
   65
 73
    4
 40
101.6
 49
63.5
 74
    0
 49
-12.7
 74
    0
 49
12.7
 74
    0
 49
-12.7
 74
    0
  0
ENDTAB
  0
TABLE
  2
LAYER
  5
2
330
0
100
AcDbSymbolTable
 70
    1
  0
LAYER
  5
4A
330
2
100
AcDbSymbolTableRecord
100
AcDbLayerTableRecord
  2
#_Spielfeldmarkierung
 70
    0
 62
    7
  6
CONTINUOUS
370
   -3
390
F
  0
LAYER
  5
10
330
2
100
AcDbSymbolTableRecord
100
AcDbLayerTableRecord
  2
0
 70
    0
 62
    7
  6
CONTINUOUS
370
    0
390
F
  0
LAYER
  5
4B
330
2
100
AcDbSymbolTableRecord
100
AcDbLayerTableRecord
  2
G00-Trainingsplatz
 70
    0
 62
    7
  6
CONTINUOUS
370
   -3
390
F
  0
LAYER
  5
4C
330
2
100
AcDbSymbolTableRecord
100
AcDbLayerTableRecord
  2
G00-fill_Plattenlaufer
 70
    0
 62
    7
  6
CONTINUOUS
370
   -3
390
F
  0
LAYER
  5
4D
330
2
100
AcDbSymbolTableRecord
100
AcDbLayerTableRecord
  2
overview
 70
    0
 62
    7
  6
CONTINUOUS
370
    0
390
F
  0
ENDTAB
  0
TABLE
  2
STYLE
  5
3
330
0
100
AcDbSymbolTable
 70
    3
  0
STYLE
  5
4E
330
2
100
AcDbSymbolTableRecord
100
AcDbTextStyleTableRecord
  2
Standard
 70
    0
 40
0
 41
1
 50
0
 71
    0
 42
1
  3
txt
  4

  0
ENDTAB
  0
TABLE
  2
VIEW
  5
6
330
0
100
AcDbSymbolTable
 70
    0
  0
ENDTAB
  0
TABLE
  2
UCS
  5
7
330
0
100
AcDbSymbolTable
 70
    0
  0
ENDTAB
  0
TABLE
  2
APPID
  5
9
330
0
100
AcDbSymbolTable
 70
    1
  0
APPID
  5
12
330
9
100
AcDbSymbolTableRecord
100
AcDbRegAppTableRecord
  2
ACAD
 70
    0
  0
APPID
  5
4F
330
9
100
AcDbSymbolTableRecord
100
AcDbRegAppTableRecord
  2
LibreCad
 70
    0
  0
ENDTAB
  0
TABLE
  2
DIMSTYLE
  5
A
330
0
100
AcDbSymbolTable
 70
    1
100
AcDbDimStyleTable
 71
    1
  0
DIMSTYLE
105
50
330
A
100
AcDbSymbolTableRecord
100
AcDbDimStyleTableRecord
  2
Standard
 70
    0
 40
1
 41
2.5
 42
0.625
 43
0.38
 44
1.25
 45
0
 46
0
 47
0
 48
0
 49
1
140
2.5
141
0.09
142
2.5
143
25.4
144
1
145
0
146
1
147
0.625
148
0
 71
    0
 72
    0
 73
    0
 74
    1
 75
    0
 76
    0
 77
    0
 78
    1
 79
    0
170
    0
171
    2
172
    0
173
    0
174
    0
175
    0
176
    0
177
    0
178
    0
179
    0
271
    2
272
    4
273
    2
274
    2
275
    0
276
    0
277
    2
278
    0
279
    0
280
    0
281
    0
282
    0
283
    1
284
    0
285
    0
286
    0
288
    0
289
    3
340
standard
341

371
   -2
372
   -2
  0
ENDTAB
  0
TABLE
  2
BLOCK_RECORD
  5
1
330
0
100
AcDbSymbolTable
 70
    2
  0
BLOCK_RECORD
  5
1F
330
1
100
AcDbSymbolTableRecord
100
AcDbBlockTableRecord
  2
*Model_Space
 70
    0
280
    1
281
    0
  0
BLOCK_RECORD
  5
1E
330
1
100
AcDbSymbolTableRecord
100
AcDbBlockTableRecord
  2
*Paper_Space
 70
    0
280
    1
281
    0
  0
ENDTAB
  0
ENDSEC
  0
SECTION
  2
BLOCKS
  0
BLOCK
  5
20
330
1F
100
AcDbEntity
  8
0
100
AcDbBlockBegin
  2
*Model_Space
 70
    0
 10
0
 20
0
 30
0
  3
*Model_Space
  1

  0
ENDBLK
  5
21
330
1F
100
AcDbEntity
  8
0
100
AcDbBlockEnd
  0
BLOCK
  5
1C
330
1B
100
AcDbEntity
  8
0
100
AcDbBlockBegin
  2
*Paper_Space
 70
    0
 10
0
 20
0
 30
0
  3
*Paper_Space
  1

  0
ENDBLK
  5
1D
330
1F
100
AcDbEntity
  8
0
100
AcDbBlockEnd
  0
ENDSEC
  0
SECTION
  2
ENTITIES
  0
HATCH
  5
51
100
AcDbEntity
  8
G00-fill_Plattenlaufer
  6
CONTINUOUS
 62
  254
370
   13
100
AcDbHatch
 10
0
 20
0
 30
0
210
0
220
0
230
1
  2
SOLID
 70
    1
 71
    0
 91
    2
 92
    0
 93
   28
 72
    1
 10
-56.4446940463317
 20
38.86216363972926
 11
-57.81451550166136
 21
37.81099411482865
 72
    1
 10
-57.81451550166136
 20
37.81099411482865
 11
-58.86559930856353
 21
36.44110568064207
 72
    1
 10
-58.86559930856353
 20
36.44110568064207
 11
-59.52631374861127
 21
34.84585843338573
 72
    1
 10
-59.52631374861127
 20
34.84585843338573
 11
-59.99974713328308
 21
31.24889931465441
 72
    1
 10
-59.99974713328308
 20
31.24889931465441
 11
-59.99777822050279
 21
-31.25617256750411
 72
    1
 10
-59.99777822050279
 20
-31.25617256750411
 11
-59.52411822828478
 21
-34.8531018531794
 72
    1
 10
-59.52411822828478
 20
-34.8531018531794
 11
-58.86330328828669
 21
-36.44830747217929
 72
    1
 10
-58.86330328828669
 20
-36.44830747217929
 11
-57.81213317944682
 21
-37.81812968374288
 72
    1
 10
-57.81213317944682
 20
-37.81812968374288
 11
-56.44224550428814
 21
-38.86921290856844
 72
    1
 10
-56.44224550428814
 20
-38.86921290856844
 11
-55.43574380169636
 21
-39.2860825703392
 72
    1
 10
-55.43574380169636
 20
-39.2860825703392
 11
-51.50057566205984
 21
-40.00333569374925
 72
    1
 10
-51.50057566205984
 20
-40.00333569374925
 11
51.50557019242069
 21
-40.00009120338655
 72
    1
 10
51.50557019242069
 20
-40.00009120338655
 11
55.44039612223378
 21
-39.2827128701756
 72
    1
 10
55.44039612223378
 20
-39.2827128701756
 11
56.44716863294116
 21
-38.86565688428527
 72
    1
 10
56.44716863294116
 20
-38.86565688428527
 11
57.81699008827081
 21
-37.81448736031598
 72
    1
 10
57.81699008827081
 20
-37.81448736031598
 11
58.86807389610431
 21
-36.4445989261294
 72
    1
 10
58.86807389610431
 20
-36.4445989261294
 11
59.52878833615205
 21
-34.84935167887306
 72
    1
 10
59.52878833615205
 20
-34.84935167887306
 11
60.00222171989253
 21
-31.25239256014174
 72
    1
 10
60.00222171989253
 20
-31.25239256014174
 11
60.00025280618092
 21
31.25267932201677
 72
    1
 10
60.00025280618092
 20
31.25267932201677
 11
59.52659281489423
 21
34.84960860676074
 72
    1
 10
59.52659281489423
 20
34.84960860676074
 11
58.86577787582746
 21
36.44481422576064
 72
    1
 10
58.86577787582746
 20
36.44481422576064
 11
57.81460776605627
 21
37.81463643825555
 72
    1
 10
57.81460776605627
 20
37.81463643825555
 11
56.44472009089759
 21
38.86571966308111
 72
    1
 10
56.44472009089759
 20
38.86571966308111
 11
55.44884338189831
 21
39.27818855094665
 72
    1
 10
55.44884338189831
 20
39.27818855094665
 11
51.41285282892159
 21
39.99983960586542
 72
    1
 10
51.41285282892159
 20
39.99983960586542
 11
-51.41289824473685
 21
39.99660058888549
 72
    1
 10
-51.41289824473685
 20
39.99660058888549
 11
-55.4488433268202
 21
39.27469526707137
 72
    1
 10
-55.4488433268202
 20
39.27469526707137
 11
-56.4446940463317
 21
38.86216363972926
 97
    0
 92
    0
 93
   28
 72
    1
 10
-56.29339128959006
 20
38.6001189538365
 11
-55.36404226015335
 21
38.98510222612822
 72
    1
 10
-55.36404226015335
 20
38.98510222612822
 11
-51.38627429160303
 21
39.69660146917158
 72
    1
 10
-51.38627429160303
 20
39.69660146917158
 11
51.38624809176645
 21
39.69983880790824
 72
    1
 10
51.38624809176645
 20
39.69983880790824
 11
55.36406087649038
 21
38.98859016793722
 72
    1
 10
55.36406087649038
 20
38.98859016793722
 11
56.29343415942958
 21
38.60366544696444
 72
    1
 10
56.29343415942958
 20
38.60366544696444
 11
57.60065215134046
 21
37.60066722716147
 72
    1
 10
57.60065215134046
 20
37.60066722716147
 11
58.60373332125118
 21
36.2935116506269
 72
    1
 10
58.60373332125118
 20
36.2935116506269
 11
59.23431721382758
 21
34.77128370488936
 72
    1
 10
59.23431721382758
 20
34.77128370488936
 11
59.70025358495286
 21
31.23300687420124
 72
    1
 10
59.70025358495286
 20
31.23300687420124
 11
59.70222125907412
 21
-31.23273893063015
 72
    1
 10
59.70222125907412
 20
-31.23273893063015
 11
59.2365078009384
 21
-34.77104510729259
 72
    1
 10
59.2365078009384
 20
-34.77104510729259
 11
58.60601981130412
 21
-36.29331277859455
 72
    1
 10
58.60601981130412
 20
-36.29331277859455
 11
57.60302099359205
 21
-37.60053154536581
 72
    1
 10
57.60302099359205
 20
-37.60053154536581
 11
56.29586619284919
 21
-38.60361211736745
 72
    1
 10
56.29586619284919
 20
-38.60361211736745
 11
55.35512754560432
 21
-38.9933135452593
 72
    1
 10
55.35512754560432
 20
-38.9933135452593
 11
51.47844194115123
 21
-39.70009201661742
 72
    1
 10
51.47844194115123
 20
-39.70009201661742
 11
-51.47346344443983
 21
-39.70333479707188
 72
    1
 10
-51.47346344443983
 20
-39.70333479707188
 11
-55.35049076045877
 21
-38.99667885516828
 72
    1
 10
-55.35049076045877
 20
-38.99667885516828
 11
-56.29095924126929
 21
-38.60715862167126
 72
    1
 10
-56.29095924126929
 20
-38.60715862167126
 11
-57.59817724715001
 21
-37.60416039069241
 72
    1
 10
-57.59817724715001
 20
-37.60416039069241
 11
-58.60125841799206
 21
-36.29700481508917
 72
    1
 10
-58.60125841799206
 20
-36.29700481508917
 11
-59.23184231149978
 21
-34.77477686655766
 72
    1
 10
-59.23184231149978
 20
-34.77477686655766
 11
-59.69777868169373
 21
-31.23650003586954
 72
    1
 10
-59.69777868169373
 20
-31.23650003586954
 11
-59.69974635581499
 21
31.2292457670992
 72
    1
 10
-59.69974635581499
 20
31.2292457670992
 11
-59.23403289767927
 21
34.76755194562429
 72
    1
 10
-59.23403289767927
 20
34.76755194562429
 11
-58.603544908045
 21
36.28981961599493
 72
    1
 10
-58.603544908045
 20
36.28981961599493
 11
-57.60054609033293
 21
37.59703838183486
 72
    1
 10
-57.60054609033293
 20
37.59703838183486
 11
-56.29339128959006
 21
38.6001189538365
 97
    0
 75
    0
 76
    1
 98
    0
  0
LINE
  5
52
100
AcDbEntity
  8
#_Spielfeldmarkierung
  6
CONTINUOUS
 62
    7
370
   13
100
AcDbLine
 10
-55.50004820161166
 20
35.50116125060549
 11
-55.50004820161155
 21
-35.49883874939451
  0
LINE
  5
53
100
AcDbEntity
  8
#_Spielfeldmarkierung
  6
CONTINUOUS
 62
    7
370
   13
100
AcDbLine
 10
55.499951798388
 20
35.50116125060549
 11
-55.50004820161166
 21
35.50116125060549
  0
LINE
  5
54
100
AcDbEntity
  8
#_Spielfeldmarkierung
  6
CONTINUOUS
 62
    7
370
   13
100
AcDbLine
 10
-55.50004820161155
 20
-35.49883874939451
 11
55.49995179838845
 21
-35.49883874939451
  0
LINE
  5
55
100
AcDbEntity
  8
#_Spielfeldmarkierung
  6
CONTINUOUS
 62
    7
370
   13
100
AcDbLine
 10
55.499951798388
 20
35.50116125060549
 11
55.49995179838845
 21
-35.49883874939451
  0
LINE
  5
56
100
AcDbEntity
  8
#_Spielfeldmarkierung
  6
CONTINUOUS
 62
    7
370
   13
100
AcDbLine
 10
-52.49999999999997
 20
20.15999999999985
 11
-35.99999999976714
 21
20.15999999999985
  0
LINE
  5
57
100
AcDbEntity
  8
#_Spielfeldmarkierung
  6
CONTINUOUS
 62
    7
370
   13
100
AcDbLine
 10
-35.99999999976714
 20
20.15999999999985
 11
-35.99999999976714
 21
0
  0
LINE
  5
58
100
AcDbEntity
  8
#_Spielfeldmarkierung
  6
CONTINUOUS
 62
    7
370
   13
100
AcDbLine
 10
-47.00000000011639
 20
9.159999999999854
 11
-47.00000000011639
 21
0
  0
LINE
  5
59
100
AcDbEntity
  8
#_Spielfeldmarkierung
  6
CONTINUOUS
 62
    7
370
   13
100
AcDbLine
 10
-52.49999999999997
 20
9.159999999999854
 11
-47.00000000011639
 21
9.159999999999854
  0
LINE
  5
5A
100
AcDbEntity
  8
#_Spielfeldmarkierung
  6
CONTINUOUS
 62
    7
370
   13
100
AcDbLine
 10
-52.6199999998789
 20
3.132000000001426
 11
-52.6199999998789
 21
0
  0
LINE
  5
5B
100
AcDbEntity
  8
#_Spielfeldmarkierung
  6
CONTINUOUS
 62
    7
370
   13
100
AcDbLine
 10
-52.49999999999997
 20
34
 11
-52.49999999999997
 21
0
  0
LINE
  5
5C
100
AcDbEntity
  8
#_Spielfeldmarkierung
  6
CONTINUOUS
 62
    7
370
   13
100
AcDbLine
 10
0
 20
34
 11
-52.49999999999997
 21
34
  0
LINE
  5
5D
100
AcDbEntity
  8
#_Spielfeldmarkierung
  6
CONTINUOUS
 62
    7
370
   13
100
AcDbLine
 10
0
 20
0
 11
0
 21
34
  0
LINE
  5
5E
100
AcDbEntity
  8
#_Spielfeldmarkierung
  6
CONTINUOUS
 62
    7
370
   13
100
AcDbLine
 10
-52.6199999998789
 20
3.132000000001426
 11
-52.49999999999997
 21
3.132000000001426
  0
LINE
  5
5F
100
AcDbEntity
  8
#_Spielfeldmarkierung
  6
CONTINUOUS
 62
    7
370
   13
100
AcDbLine
 10
-52.49999999999997
 20
-20.15999999999985
 11
-35.99999999976714
 21
-20.15999999999985
  0
LINE
  5
60
100
AcDbEntity
  8
#_Spielfeldmarkierung
  6
CONTINUOUS
 62
    7
370
   13
100
AcDbLine
 10
-35.99999999976714
 20
-20.15999999999985
 11
-35.99999999976714
 21
0
  0
LINE
  5
61
100
AcDbEntity
  8
#_Spielfeldmarkierung
  6
CONTINUOUS
 62
    7
370
   13
100
AcDbLine
 10
-47.00000000011639
 20
-9.159999999999854
 11
-47.00000000011639
 21
0
  0
LINE
  5
62
100
AcDbEntity
  8
#_Spielfeldmarkierung
  6
CONTINUOUS
 62
    7
370
   13
100
AcDbLine
 10
-52.49999999999997
 20
-9.159999999999854
 11
-47.00000000011639
 21
-9.159999999999854
  0
LINE
  5
63
100
AcDbEntity
  8
#_Spielfeldmarkierung
  6
CONTINUOUS
 62
    7
370
   13
100
AcDbLine
 10
-52.6199999998789
 20
-3.131999999997788
 11
-52.6199999998789
 21
0
  0
LINE
  5
64
100
AcDbEntity
  8
#_Spielfeldmarkierung
  6
CONTINUOUS
 62
    7
370
   13
100
AcDbLine
 10
-52.49999999999997
 20
-34
 11
-52.49999999999997
 21
0
  0
LINE
  5
65
100
AcDbEntity
  8
#_Spielfeldmarkierung
  6
CONTINUOUS
 62
    7
370
   13
100
AcDbLine
 10
0
 20
-34
 11
-52.49999999999997
 21
-34
  0
LINE
  5
66
100
AcDbEntity
  8
#_Spielfeldmarkierung
  6
CONTINUOUS
 62
    7
370
   13
100
AcDbLine
 10
0
 20
0
 11
0
 21
-34
  0
LINE
  5
67
100
AcDbEntity
  8
#_Spielfeldmarkierung
  6
CONTINUOUS
 62
    7
370
   13
100
AcDbLine
 10
-52.6199999998789
 20
-3.131999999997788
 11
-52.49999999999997
 21
-3.131999999997788
  0
LINE
  5
68
100
AcDbEntity
  8
#_Spielfeldmarkierung
  6
CONTINUOUS
 62
    7
370
   13
100
AcDbLine
 10
52.5
 20
20.15999999999985
 11
35.99999999976717
 21
20.15999999999985
  0
LINE
  5
69
100
AcDbEntity
  8
#_Spielfeldmarkierung
  6
CONTINUOUS
 62
    7
370
   13
100
AcDbLine
 10
35.99999999976717
 20
20.15999999999985
 11
35.99999999976717
 21
0
  0
LINE
  5
6A
100
AcDbEntity
  8
#_Spielfeldmarkierung
  6
CONTINUOUS
 62
    7
370
   13
100
AcDbLine
 10
47.00000000011642
 20
9.159999999999854
 11
47.00000000011642
 21
0
  0
LINE
  5
6B
100
AcDbEntity
  8
#_Spielfeldmarkierung
  6
CONTINUOUS
 62
    7
370
   13
100
AcDbLine
 10
52.5
 20
9.159999999999854
 11
47.00000000011642
 21
9.159999999999854
  0
LINE
  5
6C
100
AcDbEntity
  8
#_Spielfeldmarkierung
  6
CONTINUOUS
 62
    7
370
   13
100
AcDbLine
 10
52.61999999987893
 20
3.132000000001426
 11
52.61999999987893
 21
0
  0
LINE
  5
6D
100
AcDbEntity
  8
#_Spielfeldmarkierung
  6
CONTINUOUS
 62
    7
370
   13
100
AcDbLine
 10
52.5
 20
34
 11
52.5
 21
0
  0
LINE
  5
6E
100
AcDbEntity
  8
#_Spielfeldmarkierung
  6
CONTINUOUS
 62
    7
370
   13
100
AcDbLine
 10
0
 20
34
 11
52.5
 21
34
  0
LINE
  5
6F
100
AcDbEntity
  8
#_Spielfeldmarkierung
  6
CONTINUOUS
 62
    7
370
   13
100
AcDbLine
 10
0
 20
0
 11
0
 21
34
  0
LINE
  5
70
100
AcDbEntity
  8
#_Spielfeldmarkierung
  6
CONTINUOUS
 62
    7
370
   13
100
AcDbLine
 10
52.61999999987893
 20
3.132000000001426
 11
52.5
 21
3.132000000001426
  0
LINE
  5
71
100
AcDbEntity
  8
#_Spielfeldmarkierung
  6
CONTINUOUS
 62
    7
370
   13
100
AcDbLine
 10
52.5
 20
-20.15999999999985
 11
35.99999999976717
 21
-20.15999999999985
  0
LINE
  5
72
100
AcDbEntity
  8
#_Spielfeldmarkierung
  6
CONTINUOUS
 62
    7
370
   13
100
AcDbLine
 10
35.99999999976717
 20
-20.15999999999985
 11
35.99999999976717
 21
0
  0
LINE
  5
73
100
AcDbEntity
  8
#_Spielfeldmarkierung
  6
CONTINUOUS
 62
    7
370
   13
100
AcDbLine
 10
47.00000000011642
 20
-9.159999999999854
 11
47.00000000011642
 21
0
  0
LINE
  5
74
100
AcDbEntity
  8
#_Spielfeldmarkierung
  6
CONTINUOUS
 62
    7
370
   13
100
AcDbLine
 10
52.5
 20
-9.159999999999854
 11
47.00000000011642
 21
-9.159999999999854
  0
LINE
  5
75
100
AcDbEntity
  8
#_Spielfeldmarkierung
  6
CONTINUOUS
 62
    7
370
   13
100
AcDbLine
 10
52.61999999987893
 20
-3.131999999997788
 11
52.61999999987893
 21
0
  0
LINE
  5
76
100
AcDbEntity
  8
#_Spielfeldmarkierung
  6
CONTINUOUS
 62
    7
370
   13
100
AcDbLine
 10
52.5
 20
-34
 11
52.5
 21
0
  0
LINE
  5
77
100
AcDbEntity
  8
#_Spielfeldmarkierung
  6
CONTINUOUS
 62
    7
370
   13
100
AcDbLine
 10
0
 20
0
 11
0
 21
-34
  0
LINE
  5
78
100
AcDbEntity
  8
#_Spielfeldmarkierung
  6
CONTINUOUS
 62
    7
370
   13
100
AcDbLine
 10
52.61999999987893
 20
-3.131999999997788
 11
52.5
 21
-3.131999999997788
  0
LWPOLYLINE
  5
79
100
AcDbEntity
  8
G00-Trainingsplatz
  6
CONTINUOUS
 62
   72
370
   13
100
AcDbPolyline
 90
    4
 70
    1
 43
0
 10
-16.08940146643165
 20
145.9042375581339
 10
82.16522867452856
 20
146.2577413283288
 10
82.45538259424772
 20
84.71225053630769
 10
-15.87789592485372
 20
84.27652491815388
  0
LWPOLYLINE
  5
7A
100
AcDbEntity
  8
G00-Trainingsplatz
  6
CONTINUOUS
 62
   72
370
   13
100
AcDbPolyline
 90
    4
 70
    0
 43
0
 10
-16.05203668832276
 20
135.2645391970873
 10
0.4478409908389693
 20
135.3280732389539
 10
0.6030950884943849
 20
95.00837214849889
 10
-15.89678258787337
 20
94.94483810197562
  0
LWPOLYLINE
  5
7B
100
AcDbEntity
  8
G00-Trainingsplatz
  6
CONTINUOUS
 62
   72
370
   13
100
AcDbPolyline
 90
    4
 70
    0
 43
0
 10
-16.00968065823857
 20
124.2646207418293
 10
-10.50972143340353
 20
124.2857987545431
 10
-10.43917939125988
 20
105.9659345727414
 10
-15.93913861888889
 20
105.944756558165
  0
LWPOLYLINE
  5
7C
100
AcDbEntity
  8
G00-Trainingsplatz
  6
CONTINUOUS
 62
   72
370
   13
100
AcDbPolyline
 90
    4
 70
    0
 43
0
 10
82.22447313029822
 20
135.6459354273975
 10
65.72459711354729
 20
135.5819706097245
 10
65.88090386368837
 20
95.26227358728647
 10
82.38077987578269
 20
95.32623839750886
  0
LWPOLYLINE
  5
7D
100
AcDbEntity
  8
G00-Trainingsplatz
  6
CONTINUOUS
 62
   72
370
   13
100
AcDbPolyline
 90
    4
 70
    0
 43
0
 10
82.26711633742359
 20
124.6460180804133
 10
76.76715766951945
 20
124.624696476385
 10
76.83817799516525
 20
106.3048341404647
 10
82.338136667726
 20
106.326155744493
  0
LWPOLYLINE
  5
7E
100
AcDbEntity
  8
G00-Trainingsplatz
  6
CONTINUOUS
 62
   72
370
   13
100
AcDbPolyline
 90
    2
 70
    0
 43
0
 10
33.03791360404846
 20
146.0809894427657
 10
33.31081020586696
 20
84.49448550865054
  0
CIRCLE
  5
7F
100
AcDbEntity
  8
G00-Trainingsplatz
  6
CONTINUOUS
 62
   72
370
   13
100
AcDbCircle
 10
33.17436190542337
 20
115.2877374757081
 40
9.149999999441206
  0
ARC
  5
80
100
AcDbEntity
  8
G00-Trainingsplatz
  6
CONTINUOUS
 62
   72
370
   13
100
AcDbCircle
 10
-4.974491189824974
 20
115.1470446772873
 40
9.150000002710948
100
AcDbArc
 50
307.1688314510499
 51
53.27240993966681
  0
ARC
  5
81
100
AcDbEntity
  8
G00-Trainingsplatz
  6
CONTINUOUS
 62
   72
370
   13
100
AcDbCircle
 10
71.30270916443821
 20
115.4434437006712
 40
9.150000002913302
100
AcDbArc
 50
127.1703273237551
 51
233.2739058397343
  0
ARC
  5
82
100
AcDbEntity
  8
#_Spielfeldmarkierung
  6
CONTINUOUS
 62
    7
370
   13
100
AcDbCircle
 10
-41.5000000002328
 20
0
 40
0.1499999999978172
100
AcDbArc
 50
0
 51
180
  0
ARC
  5
83
100
AcDbEntity
  8
#_Spielfeldmarkierung
  6
CONTINUOUS
 62
    7
370
   13
100
AcDbCircle
 10
-41.5000000002328
 20
0
 40
9.149999999997817
100
AcDbArc
 50
0
 51
53.05178926686698
  0
ARC
  5
84
100
AcDbEntity
  8
#_Spielfeldmarkierung
  6
CONTINUOUS
 62
    7
370
   13
100
AcDbCircle
 10
0
 20
0
 40
9.150000000001455
100
AcDbArc
 50
90
 51
180
  0
ARC
  5
85
100
AcDbEntity
  8
#_Spielfeldmarkierung
  6
CONTINUOUS
 62
    7
370
   13
100
AcDbCircle
 10
0
 20
0
 40
0.1500000000014552
100
AcDbArc
 50
90
 51
180
  0
ARC
  5
86
100
AcDbEntity
  8
#_Spielfeldmarkierung
  6
CONTINUOUS
 62
    7
370
   13
100
AcDbCircle
 10
-41.5000000002328
 20
0
 40
0.1499999999978172
100
AcDbArc
 50
180
 51
0
  0
ARC
  5
87
100
AcDbEntity
  8
#_Spielfeldmarkierung
  6
CONTINUOUS
 62
    7
370
   13
100
AcDbCircle
 10
-41.5000000002328
 20
0
 40
9.149999999999768
100
AcDbArc
 50
306.948210733051
 51
0
  0
ARC
  5
88
100
AcDbEntity
  8
#_Spielfeldmarkierung
  6
CONTINUOUS
 62
    7
370
   13
100
AcDbCircle
 10
-52.49999999999997
 20
-34
 40
0.8999999999978172
100
AcDbArc
 50
0
 51
90
  0
ARC
  5
89
100
AcDbEntity
  8
#_Spielfeldmarkierung
  6
CONTINUOUS
 62
    7
370
   13
100
AcDbCircle
 10
0
 20
0
 40
9.149999999997817
100
AcDbArc
 50
180
 51
270
  0
ARC
  5
8A
100
AcDbEntity
  8
#_Spielfeldmarkierung
  6
CONTINUOUS
 62
    7
370
   13
100
AcDbCircle
 10
0
 20
0
 40
0.1499999999978172
100
AcDbArc
 50
180
 51
270
  0
ARC
  5
8B
100
AcDbEntity
  8
#_Spielfeldmarkierung
  6
CONTINUOUS
 62
    7
370
   13
100
AcDbCircle
 10
41.50000000023283
 20
0
 40
0.1499999999978172
100
AcDbArc
 50
0
 51
180
  0
ARC
  5
8C
100
AcDbEntity
  8
#_Spielfeldmarkierung
  6
CONTINUOUS
 62
    7
370
   13
100
AcDbCircle
 10
41.50000000023283
 20
0
 40
9.149999999999768
100
AcDbArc
 50
126.948210733051
 51
180
  0
ARC
  5
8D
100
AcDbEntity
  8
#_Spielfeldmarkierung
  6
CONTINUOUS
 62
    7
370
   13
100
AcDbCircle
 10
52.5
 20
34
 40
0.8999999999978172
100
AcDbArc
 50
180
 51
270
  0
ARC
  5
8E
100
AcDbEntity
  8
#_Spielfeldmarkierung
  6
CONTINUOUS
 62
    7
370
   13
100
AcDbCircle
 10
0
 20
0
 40
9.149999999997817
100
AcDbArc
 50
0
 51
90
  0
ARC
  5
8F
100
AcDbEntity
  8
#_Spielfeldmarkierung
  6
CONTINUOUS
 62
    7
370
   13
100
AcDbCircle
 10
0
 20
0
 40
0.1499999999978172
100
AcDbArc
 50
0
 51
90
  0
ARC
  5
90
100
AcDbEntity
  8
#_Spielfeldmarkierung
  6
CONTINUOUS
 62
    7
370
   13
100
AcDbCircle
 10
41.50000000023283
 20
0
 40
0.1499999999978172
100
AcDbArc
 50
180
 51
0
  0
ARC
  5
91
100
AcDbEntity
  8
#_Spielfeldmarkierung
  6
CONTINUOUS
 62
    7
370
   13
100
AcDbCircle
 10
41.50000000023283
 20
0
 40
9.149999999997817
100
AcDbArc
 50
180
 51
233.051789266867
  0
ARC
  5
92
100
AcDbEntity
  8
#_Spielfeldmarkierung
  6
CONTINUOUS
 62
    7
370
   13
100
AcDbCircle
 10
52.5
 20
-34
 40
0.9000000000014552
100
AcDbArc
 50
90
 51
180
  0
ARC
  5
93
100
AcDbEntity
  8
#_Spielfeldmarkierung
  6
CONTINUOUS
 62
    7
370
   13
100
AcDbCircle
 10
0
 20
0
 40
9.150000000001455
100
AcDbArc
 50
270
 51
0
  0
ARC
  5
94
100
AcDbEntity
  8
#_Spielfeldmarkierung
  6
CONTINUOUS
 62
    7
370
   13
100
AcDbCircle
 10
0
 20
0
 40
0.1500000000014552
100
AcDbArc
 50
270
 51
0
  0
LINE
  5
95
100
AcDbEntity
  8
#_Spielfeldmarkierung
  6
CONTINUOUS
 62
    7
370
   13
100
AcDbLine
 10
0
 20
-34
 11
52.5
 21
-34
  0
LINE
  5
96
100
AcDbEntity
  8
overview
  6
CONTINUOUS
 62
  252
370
   13
100
AcDbLine
 10
78.85209435856238
 20
-32.48623331031922
 11
77.89359267687693
 21
-39.76854901715342
  0
LINE
  5
97
100
AcDbEntity
  8
overview
  6
CONTINUOUS
 62
  252
370
   13
100
AcDbLine
 10
77.89359267687693
 20
-39.76854901715342
 11
75.33364950007096
 21
-45.9493492129368
  0
LINE
  5
98
100
AcDbEntity
  8
overview
  6
CONTINUOUS
 62
  252
370
   13
100
AcDbLine
 10
75.33364950007096
 20
-45.9493492129368
 11
71.26122521961376
 21
-51.25698203268621
  0
LINE
  5
99
100
AcDbEntity
  8
overview
  6
CONTINUOUS
 62
  252
370
   13
100
AcDbLine
 10
65.95384897364572
 20
-55.32974068775002
 11
71.26122521961376
 21
-51.25698203268621
  0
LINE
  5
9A
100
AcDbEntity
  8
overview
  6
CONTINUOUS
 62
  252
370
   13
100
AcDbLine
 10
59.77321005871788
 20
-57.89007325145576
 11
65.95384897364572
 21
-55.32974068775002
  0
LINE
  5
9B
100
AcDbEntity
  8
overview
  6
CONTINUOUS
 62
  252
370
   13
100
AcDbLine
 10
52.49095538703993
 20
-58.84903351544563
 11
59.77321005871788
 21
-57.89007325145576
  0
LINE
  5
9C
100
AcDbEntity
  8
overview
  6
CONTINUOUS
 62
  252
370
   13
100
AcDbLine
 10
78.85209435856238
 20
-32.48623331031922
 11
78.85004760770396
 21
32.48982711926874
  0
LINE
  5
9D
100
AcDbEntity
  8
overview
  6
CONTINUOUS
 62
  252
370
   13
100
AcDbLine
 10
52.4872478049089
 20
58.85096651733693
 11
59.76956290172681
 21
57.89246503681716
  0
LINE
  5
9E
100
AcDbEntity
  8
overview
  6
CONTINUOUS
 62
  252
370
   13
100
AcDbLine
 10
59.76956290172681
 20
57.89246503681716
 11
65.95036310589209
 21
55.33252185907986
  0
LINE
  5
9F
100
AcDbEntity
  8
overview
  6
CONTINUOUS
 62
  252
370
   13
100
AcDbLine
 10
75.33075457977399
 20
45.9527213317233
 11
71.25799592657283
 21
51.26009757676002
  0
LINE
  5
A0
100
AcDbEntity
  8
overview
  6
CONTINUOUS
 62
  252
370
   13
100
AcDbLine
 10
77.89108714161709
 20
39.77208242424604
 11
75.33075457977399
 21
45.9527213317233
  0
LINE
  5
A1
100
AcDbEntity
  8
overview
  6
CONTINUOUS
 62
  252
370
   13
100
AcDbLine
 10
52.4872478049089
 20
58.85096651733693
 11
-52.48881294319139
 21
58.84765976619747
  0
LINE
  5
A2
100
AcDbEntity
  8
overview
  6
CONTINUOUS
 62
  252
370
   13
100
AcDbLine
 10
-78.84995231145726
 20
32.48485955920842
 11
-77.89145062977181
 21
39.76717526417997
  0
LINE
  5
A3
100
AcDbEntity
  8
overview
  6
CONTINUOUS
 62
  252
370
   13
100
AcDbLine
 10
-77.89145062977181
 20
39.76717526417997
 11
-75.33150745389716
 21
45.94797546089467
  0
LINE
  5
A4
100
AcDbEntity
  8
overview
  6
CONTINUOUS
 62
  252
370
   13
100
AcDbLine
 10
-75.33150745389716
 20
45.94797546089467
 11
-71.25908317343996
 21
51.25560827971276
  0
LINE
  5
A5
100
AcDbEntity
  8
overview
  6
CONTINUOUS
 62
  252
370
   13
100
AcDbLine
 10
-65.95170692840324
 20
55.32836693570789
 11
-71.25908317343996
 21
51.25560827971276
  0
LINE
  5
A6
100
AcDbEntity
  8
overview
  6
CONTINUOUS
 62
  252
370
   13
100
AcDbLine
 10
-59.77106801068143
 20
57.88869950034496
 11
-65.95170692840324
 21
55.32836693570789
  0
LINE
  5
A7
100
AcDbEntity
  8
overview
  6
CONTINUOUS
 62
  252
370
   13
100
AcDbLine
 10
-52.48881294319139
 20
58.84765976619747
 11
-59.77106801068143
 21
57.88869950034496
  0
LINE
  5
A8
100
AcDbEntity
  8
overview
  6
CONTINUOUS
 62
  252
370
   13
100
AcDbLine
 10
-78.84790556246148
 20
-32.49120087131087
 11
-78.84995231145726
 21
32.48485955920842
  0
LINE
  5
A9
100
AcDbEntity
  8
overview
  6
CONTINUOUS
 62
  252
370
   13
100
AcDbLine
 10
-78.84790556246148
 20
-32.49120087131087
 11
-77.88894509544329
 21
-39.77345617442552
  0
LINE
  5
AA
100
AcDbEntity
  8
overview
  6
CONTINUOUS
 62
  252
370
   13
100
AcDbLine
 10
-77.88894509544329
 20
-39.77345617442552
 11
-75.32861253360019
 21
-45.95409508376542
  0
LINE
  5
AB
100
AcDbEntity
  8
overview
  6
CONTINUOUS
 62
  252
370
   13
100
AcDbLine
 10
-75.32861253360019
 20
-45.95409508376542
 11
-71.25585388039903
 21
-51.26147132880214
  0
LINE
  5
AC
100
AcDbEntity
  8
overview
  6
CONTINUOUS
 62
  252
370
   13
100
AcDbLine
 10
-65.94822106064962
 20
-55.33389561112199
 11
-71.25585388039903
 21
-51.26147132880214
  0
LINE
  5
AD
100
AcDbEntity
  8
overview
  6
CONTINUOUS
 62
  252
370
   13
100
AcDbLine
 10
-59.76742085369037
 20
-57.89383878885928
 11
-65.94822106064962
 21
-55.33389561112199
  0
LINE
  5
AE
100
AcDbEntity
  8
overview
  6
CONTINUOUS
 62
  252
370
   13
100
AcDbLine
 10
-52.4851057587351
 20
-58.85234022095028
 11
-59.76742085369037
 21
-57.89383878885928
  0
LINE
  5
AF
100
AcDbEntity
  8
overview
  6
CONTINUOUS
 62
  252
370
   13
100
AcDbLine
 10
-53.93479306736694
 20
-80.9809750779641
 11
-51.12900813130395
 21
-38.15229749354694
  0
LINE
  5
B0
100
AcDbEntity
  8
overview
  6
CONTINUOUS
 62
  252
370
   13
100
AcDbLine
 10
53.94203676821932
 20
-80.97757695197288
 11
51.13355367889896
 21
-38.14907621639941
  0
LINE
  5
B1
100
AcDbEntity
  8
overview
  6
CONTINUOUS
 62
  252
370
   13
100
AcDbLine
 10
65.95036310589209
 20
55.33252185907986
 11
71.25799592657283
 21
51.26009757676002
  0
LINE
  5
B2
100
AcDbEntity
  8
overview
  6
CONTINUOUS
 62
  252
370
   13
100
AcDbLine
 10
78.85004760770396
 20
32.48982711926874
 11
77.89108714161709
 21
39.77208242424604
  0
LINE
  5
B3
100
AcDbEntity
  8
overview
  6
ByLayer
 62
  256
370
   -1
100
AcDbLine
 10
-80
 20
82
 11
-64
 21
82
  0
LINE
  5
B4
100
AcDbEntity
  8
overview
  6
ByLayer
 62
  256
370
   -1
100
AcDbLine
 10
-64
 20
82
 11
-64
 21
154
  0
LINE
  5
B5
100
AcDbEntity
  8
overview
  6
ByLayer
 62
  256
370
   -1
100
AcDbLine
 10
-64
 20
154
 11
-80
 21
154
  0
LINE
  5
B6
100
AcDbEntity
  8
overview
  6
ByLayer
 62
  256
370
   -1
100
AcDbLine
 10
-80
 20
154
 11
-80
 21
82
  0
LINE
  5
B7
100
AcDbEntity
  8
overview
  6
ByLayer
 62
  256
370
   -1
100
AcDbLine
 10
126
 20
6
 11
129
 21
6
  0
LINE
  5
B8
100
AcDbEntity
  8
overview
  6
ByLayer
 62
  256
370
   -1
100
AcDbLine
 10
129
 20
6
 11
129
 21
-6
  0
LINE
  5
B9
100
AcDbEntity
  8
overview
  6
ByLayer
 62
  256
370
   -1
100
AcDbLine
 10
129
 20
-6
 11
126
 21
-6
  0
LINE
  5
BA
100
AcDbEntity
  8
overview
  6
ByLayer
 62
  256
370
   -1
100
AcDbLine
 10
126
 20
-6
 11
126
 21
6
  0
LINE
  5
BB
100
AcDbEntity
  8
overview
  6
ByLayer
 62
  256
370
   -1
100
AcDbLine
 10
130
 20
-80
 11
130
 21
80
  0
LINE
  5
BC
100
AcDbEntity
  8
overview
  6
ByLayer
 62
  256
370
   -1
100
AcDbLine
 10
130
 20
80
 11
110
 21
80
  0
LINE
  5
BD
100
AcDbEntity
  8
overview
  6
ByLayer
 62
  256
370
   -1
100
AcDbLine
 10
110
 20
80
 11
110
 21
160
  0
LINE
  5
BE
100
AcDbEntity
  8
overview
  6
ByLayer
 62
  256
370
   -1
100
AcDbLine
 10
110
 20
160
 11
-160
 21
160
  0
LINE
  5
BF
100
AcDbEntity
  8
overview
  6
ByLayer
 62
  256
370
   -1
100
AcDbLine
 10
-160
 20
160
 11
-160
 21
-80
  0
LINE
  5
C0
100
AcDbEntity
  8
overview
  6
ByLayer
 62
  256
370
   -1
100
AcDbLine
 10
-160
 20
-80
 11
130
 21
-80
  0
LINE
  5
C1
100
AcDbEntity
  8
overview
  6
ByLayer
 62
  256
370
   -1
100
AcDbLine
 10
-160
 20
-80
 11
-260
 21
-80
  0
LINE
  5
C2
100
AcDbEntity
  8
overview
  6
ByLayer
 62
  256
370
   -1
100
AcDbLine
 10
-260
 20
-100
 11
290
 21
-100
  0
LINE
  5
C3
100
AcDbEntity
  8
G00-fill_Plattenlaufer
  6
ByLayer
 62
  256
370
   -1
100
AcDbLine
 10
-140
 20
60
 11
-140
 21
-60
  0
LINE
  5
C4
100
AcDbEntity
  8
G00-fill_Plattenlaufer
  6
ByLayer
 62
  256
370
   -1
100
AcDbLine
 10
-80
 20
154
 11
-160
 21
154
  0
LINE
  5
C5
100
AcDbEntity
  8
G00-fill_Plattenlaufer
  6
ByLayer
 62
  256
370
   -1
100
AcDbLine
 10
-64
 20
154
 11
104
 21
154
  0
LINE
  5
C6
100
AcDbEntity
  8
G00-fill_Plattenlaufer
  6
ByLayer
 62
  256
370
   -1
100
AcDbLine
 10
104
 20
154
 11
104
 21
80
  0
LINE
  5
C7
100
AcDbEntity
  8
G00-fill_Plattenlaufer
  6
ByLayer
 62
  256
370
   -1
100
AcDbLine
 10
104
 20
80
 11
110
 21
80
  0
LINE
  5
C8
100
AcDbEntity
  8
G00-fill_Plattenlaufer
  6
ByLayer
 62
  256
370
   -1
100
AcDbLine
 10
121
 20
80
 11
121
 21
-80
  0
LWPOLYLINE
  5
C9
100
AcDbEntity
  8
overview
  6
CONTINUOUS
 62
  253
370
   13
100
AcDbPolyline
 90
   11
 70
    1
 43
0
 10
-53.17332473039642
 20
77.96017633650581
 42
0.4218595892607634
 10
-97.65756058972696
 20
33.47594004592568
 10
-97.65756058972694
 20
-33.83795051630707
 42
0.4214798940092582
 10
-53.17332473039281
 20
-78.02243544693241
 10
53.87385803268078
 20
-78.02243544693236
 42
0.3519811278150277
 10
97.61266254817789
 20
-43.26662345039907
 42
0.05453468388992885
 10
98.34759901637514
 20
-33.77510894605484
 10
98.34759901637514
 20
33.7130984756727
 42
0.05338556205580364
 10
97.61266254817789
 20
42.90461298001719
 42
0.3494068732818749
 10
53.87961711648856
 20
77.96043050439403
 10
53.87961711648856
 20
77.96043050439403
  0
LINE
  5
CA
100
AcDbEntity
  8
overview
  6
ByLayer
 62
  256
370
   -1
100
AcDbLine
 10
-125
 20
60
 11
-125
 21
-60
  0
LINE
  5
CB
100
AcDbEntity
  8
overview
  6
ByLayer
 62
  256
370
   -1
100
AcDbLine
 10
-154
 20
60
 11
-154
 21
-60
  0
LINE
  5
CC
100
AcDbEntity
  8
overview
  6
ByLayer
 62
  256
370
   -1
100
AcDbLine
 10
-154
 20
60
 11
-125
 21
60
  0
LINE
  5
CD
100
AcDbEntity
  8
overview
  6
ByLayer
 62
  256
370
   -1
100
AcDbLine
 10
-154
 20
-60
 11
-125
 21
-60
  0
LINE
  5
CE
100
AcDbEntity
  8
overview
  6
ByLayer
 62
  256
370
   -1
100
AcDbLine
 10
130
 20
-80
 11
290
 21
-80
  0
LINE
  5
CF
100
AcDbEntity
  8
overview
  6
ByLayer
 62
  256
370
   -1
100
AcDbLine
 10
-80
 20
82
 11
-116
 21
82
  0
LINE
  5
D0
100
AcDbEntity
  8
overview
  6
ByLayer
 62
  256
370
   -1
100
AcDbLine
 10
-116
 20
82
 11
-116
 21
100
  0
LINE
  5
D1
100
AcDbEntity
  8
overview
  6
ByLayer
 62
  256
370
   -1
100
AcDbLine
 10
-116
 20
100
 11
-80
 21
100
  0
ENDSEC
  0
SECTION
  2
OBJECTS
  0
DICTIONARY
  5
C
330
0
100
AcDbDictionary
281
    1
  3
ACAD_GROUP
350
D
  0
DICTIONARY
  5
D
330
C
100
AcDbDictionary
281
    1
  0
ENDSEC
  0
EOF
